<?xml version="1.0" encoding="UTF-8" standalone="no"?>
<svg
   xmlns:dc="http://purl.org/dc/elements/1.1/"
   xmlns:cc="http://creativecommons.org/ns#"
   xmlns:rdf="http://www.w3.org/1999/02/22-rdf-syntax-ns#"
   xmlns:svg="http://www.w3.org/2000/svg"
   xmlns="http://www.w3.org/2000/svg"
   width="1000"
   height="1000"
   viewBox="0 0 1000 1000"
   version="1.1"
   id="svg8">
  <defs
     id="defs2" />
  <metadata
     id="metadata5">
    <rdf:RDF>
      <cc:Work
         rdf:about="">
        <dc:format>image/svg+xml</dc:format>
        <dc:type
           rdf:resource="http://purl.org/dc/dcmitype/StillImage" />
        <dc:title></dc:title>
      </cc:Work>
    </rdf:RDF>
  </metadata>
  <g
     id="layer1"
     transform="translate(-820.72751,213.60981)">
    <g
       id="g898"
       transform="matrix(1.5384615,0,0,1.5384615,-441.93021,115.02067)">
      <circle
         style="opacity:1;fill:#03a8f6;fill-opacity:1;stroke-width:2.20199;stroke-linecap:round"
         id="circle11"
         cx="1145.7275"
         cy="111.39018"
         r="325" />
      <circle
         style="opacity:1;fill:#d6f0fd;fill-opacity:1;stroke-width:2.0326;stroke-linecap:round"
         id="circle9"
         cx="1145.7275"
         cy="111.39018"
         r="300" />
      <circle
         style="opacity:1;fill:#ffffff;stroke-width:0.413957;stroke-linecap:round"
         id="circle13"
         cx="1234.889"
         cy="-79.613708"
         r="61.097576" />
      <path
         id="path7"
         style="opacity:1;fill:#a2e0f9;fill-opacity:1;stroke-width:1.85441;stroke-linecap:round"
         d="m 921.86189,-66.031575 c -44.50205,50.093578 -65.23325,115.599257 -65.23339,182.605225 3.6e-4,151.15992 141.83144,283.10116 292.9914,283.10154 109.601,5e-5 213.2307,-62.09176 256.29,-162.88009 -51.9404,58.46858 -145.364,86.0292 -223.5713,86.02976 -151.1606,-4e-4 -273.70022,-122.54075 -273.69959,-273.701367 1.6e-4,-36.961875 -1.29875,-81.165327 13.22288,-115.155068 z" />
      <path
         style="opacity:0.8;fill:#ffffff;fill-opacity:1;stroke-width:1.85857;stroke-linecap:round"
         id="path891"
         d="m 1298.2969,41.300278 c 2.4865,7.849634 4.9737,15.697017 7.5773,23.508329 1.7409,5.223335 2.731,10.638231 3.6747,16.045554 0.6735,3.85934 1.5032,7.691844 2.3446,11.517938 0.4187,1.903965 1.8243,4.137501 1.3009,6.074085 -0.2675,0.989735 -0.057,-2.069446 -0.3946,-2.974817 -0.1168,-0.313223 -0.1,0.661219 -0.1405,0.993083 -0.438,3.54602 -0.108,1.328701 -0.5897,4.25016 -1.2564,7.60989 -2.2756,15.2549 -3.2315,22.9079 -0.5026,4.02344 -0.8716,8.05598 -1.0308,12.10599 -2.5326,64.24861 88.3542,67.79686 90.8625,3.54729 v 0 c -0.05,-1.58781 0.2722,-3.17564 0.4448,-4.75602 0.7194,-6.74439 1.8331,-13.4383 2.8548,-20.14377 1.5961,-10.47636 2.72,-21.146914 0.7827,-31.677746 -1.0655,-5.79157 -2.5317,-11.496657 -3.5927,-17.288595 -1.7528,-9.569611 -3.6285,-19.135071 -6.7031,-28.388429 -2.583,-7.773595 -5.0645,-15.576326 -7.5382,-23.38563 -19.4156,-61.297022 -106.0386,-33.631813 -86.6212,27.664687 z" />
    </g>
  </g>
</svg>
