<?xml version="1.0" encoding="UTF-8" standalone="no"?>
<svg
   xmlns:dc="http://purl.org/dc/elements/1.1/"
   xmlns:cc="http://creativecommons.org/ns#"
   xmlns:rdf="http://www.w3.org/1999/02/22-rdf-syntax-ns#"
   xmlns:svg="http://www.w3.org/2000/svg"
   xmlns="http://www.w3.org/2000/svg"
   version="1.1"
   id="svg2"
   width="1000"
   height="1000"
   viewBox="0 0 1000 1000">
  <metadata
     id="metadata8">
    <rdf:RDF>
      <cc:Work
         rdf:about="">
        <dc:format>image/svg+xml</dc:format>
        <dc:type
           rdf:resource="http://purl.org/dc/dcmitype/StillImage" />
        <dc:title></dc:title>
      </cc:Work>
    </rdf:RDF>
  </metadata>
  <defs
     id="defs6" />
  <g
     id="g10"
     transform="translate(-1683.6489,-1525.6756)">
    <path
       style="fill:#ff2a2a;stroke-width:0.25226"
       d="m 2182.4243,2459.5514 c -0.4162,-0.3187 -4.1623,-2.9469 -8.3245,-5.8405 -78.2806,-54.4186 -153.4111,-115.5601 -224.2544,-182.499 -17.2503,-16.2996 -46.7096,-45.4524 -62.0749,-61.4292 -84.1196,-87.4671 -132.3067,-150.4869 -163.9507,-214.417 -13.6905,-27.6588 -23.5477,-53.8604 -30.2807,-80.4896 -13.9187,-55.0492 -13.124,-113.1003 2.2429,-163.8242 10.0365,-33.1291 25.9648,-62.0676 47.5557,-86.399 3.7338,-4.2078 11.5867,-12.0607 15.7945,-15.7946 9.941,-8.8212 20.6314,-16.6812 31.7848,-23.3692 46.5397,-27.9069 105.5209,-39.3265 166.3654,-32.2108 75.3168,8.8083 150.8592,48.1052 222.1181,115.5449 l 4.2916,4.0616 3.2762,-3.1485 c 14.5215,-13.956 32.8002,-29.4895 49.269,-41.8696 48.5768,-36.5166 99.9489,-60.7733 149.961,-70.8084 56.9143,-11.4199 115.8058,-5.9898 164.316,15.1509 51.6105,22.4919 89.5854,61.0466 111.9077,113.6167 20.4624,48.19 26.3773,106.3226 16.6707,163.8429 -7.1558,42.4046 -23.8262,86.8069 -49.4853,131.8058 -24.5609,43.073 -57.9436,87.6182 -104.3231,139.2064 -98.6709,109.7526 -211.3346,209.0815 -333.6274,294.1396 -4.2179,2.9337 -7.8504,5.3286 -8.0723,5.3221 -0.2219,-0.01 -0.744,-0.2726 -1.1603,-0.5913 z"
       id="path14" />
    <ellipse
       style="opacity:0.2;fill:#ffffff;stroke:none;stroke-width:2;stroke-linecap:round"
       id="path38"
       cx="-556.03961"
       cy="2499.4375"
       rx="121.82029"
       ry="45.222225"
       transform="rotate(-58.477651)" />
  </g>
</svg>
