<?xml version="1.0" encoding="UTF-8" standalone="no"?>
<svg
   xmlns:dc="http://purl.org/dc/elements/1.1/"
   xmlns:cc="http://creativecommons.org/ns#"
   xmlns:rdf="http://www.w3.org/1999/02/22-rdf-syntax-ns#"
   xmlns:svg="http://www.w3.org/2000/svg"
   xmlns="http://www.w3.org/2000/svg"
   version="1.1"
   id="svg2"
   width="1024"
   height="1024"
   viewBox="0 0 1024 1024">
  <metadata
     id="metadata8">
    <rdf:RDF>
      <cc:Work
         rdf:about="">
        <dc:format>image/svg+xml</dc:format>
        <dc:type
           rdf:resource="http://purl.org/dc/dcmitype/StillImage" />
        <dc:title></dc:title>
      </cc:Work>
    </rdf:RDF>
  </metadata>
  <defs
     id="defs6" />
  <g
     id="g10">
    <g
       id="g873"
       transform="translate(-842.98839,-334.27876)" />
    <g
       id="g923"
       transform="matrix(0.84502027,0,0,0.84502027,1515.0049,284.73395)">
      <circle
         style="fill:#6edbe9;fill-opacity:1;stroke:none;stroke-width:2;stroke-linecap:round"
         id="path16"
         cx="-1186.9596"
         cy="268.94745"
         r="591.70178" />
      <g
         id="g912"
         transform="translate(-9.7343998,-2440.569)">
        <g
           id="g869">
          <g
             id="g864">
            <path
               id="rect847"
               style="fill:#366595;fill-opacity:1;stroke:none;stroke-width:2.24222;stroke-linecap:round"
               d="m -1177.4101,2297.9824 c -41.672,0.014 -83.3466,0.392 -86.7559,1.1231 -6.6266,1.4212 -13.5058,7.9857 -15.0644,14.375 -0.5786,2.3714 -4.409,28.2609 -8.5137,57.5332 l -7.4629,53.2226 -17.4434,8.6192 c -17.3583,8.577 -34.7059,19.0199 -45.9043,27.6367 -3.501,2.6941 -6.5327,4.3348 -7.5058,4.0605 -0.8981,-0.2531 -24.4098,-9.7254 -52.2481,-21.0508 -46.492,-18.9141 -51.088,-20.593 -56.4121,-20.5937 -4.5917,-5e-4 -6.7412,0.5548 -10.3437,2.666 -5.3358,3.1269 -0.2326,-5.1771 -52.6309,85.6426 -29.5547,51.2262 -38.8687,68.1302 -39.3105,71.3535 -0.7351,5.3627 0.8988,11.4803 4.0742,15.2539 1.3614,1.618 22.2097,18.4325 46.3301,37.3672 42.8141,33.6092 43.8437,34.4963 43.3633,37.3535 -0.2706,1.6096 -1.0387,10.627 -1.7071,20.0391 -0.9776,13.7666 -0.9776,20.4598 0,34.2265 0.6684,9.412 1.4372,18.4264 1.7071,20.0313 0.4432,2.6349 -0.055,3.3428 -5.1309,7.293 -44.5794,34.6955 -78.739,61.6995 -82.0215,64.8398 -4.6045,4.4049 -6.8549,9.2313 -6.834,14.6894 0,0.7798 0.051,1.5728 0.1465,2.379 0.4925,4.1587 6.6168,15.3241 42.6875,77.8437 23.1612,40.144 42.9227,74.1442 43.9141,75.5566 2.4599,3.5054 10.8867,7.5547 15.7226,7.5547 2.7667,0 11.9734,-3.2669 31.3848,-11.1386 70.9515,-28.7718 78.3045,-31.6137 79.4902,-30.7286 12.2434,9.1393 37.0003,24.2936 51.2344,31.3614 l 17.4473,8.664 7.459,53.2227 c 4.1022,29.2732 7.9319,55.1656 8.5097,57.5371 1.4476,5.942 8.5108,12.9999 14.3242,14.3145 2.6134,0.5909 35.4214,0.8894 87.6797,0.8066 v -268.1387 c -15.532,0.2596 -17.2663,0.1021 -28.5019,-2.1035 -48.5539,-9.5306 -89.9288,-45.1445 -106.8926,-92.0078 -6.3495,-17.5408 -7.834,-26.8448 -7.834,-49.0898 0,-17.1695 0.2936,-21.0774 2.2402,-29.7715 6.242,-27.8782 18.8656,-51.293 38.252,-70.9512 20.2502,-20.5341 44.3119,-33.8033 72.9043,-40.2051 8.6941,-1.9466 12.602,-2.2402 29.7715,-2.2402 0.022,0 0.038,0 0.061,0 v -268.5469 c -0.063,0 -0.1225,0 -0.1855,0 z" />
          </g>
          <path
             id="path851"
             style="fill:#283b79;fill-opacity:1;stroke-width:0.964103"
             d="m -1177.2246,2297.9824 v 268.5469 c 17.1133,8e-4 21.0281,0.2981 29.7109,2.2422 51.1124,11.444 91.0487,47.3235 106.9766,96.1133 5.4879,16.8103 6.4101,23.2606 6.4101,44.8144 0,21.5298 -0.912,27.9133 -6.3984,44.8301 -15.672,48.3233 -55.4823,84.1618 -106.707,96.0586 -6.4109,1.4888 -12.63,2.016 -26.6778,2.2656 -1.4023,0.025 -2.0999,0.025 -3.3144,0.045 v 268.1387 c 0.6832,0 1.1773,0 1.8672,0 l 85.3242,-0.1504 4.0039,-2.1406 c 5.1577,-2.7582 9.5476,-8.1222 10.7715,-13.1602 0.5319,-2.1896 4.3261,-27.9491 8.4316,-57.2441 l 7.4649,-53.2637 16.4785,-8.0996 c 16.8408,-8.2769 33.1951,-18.0374 45.63475,-27.2363 3.8391,-2.8391 7.37794,-5.1621 7.86524,-5.1621 0.4873,0 18.60572,7.1897 40.26172,15.9785 68.1908,27.6744 65.64784,26.7378 70.83984,26.123 5.1575,-0.6109 8.84952,-2.2779 12.41602,-5.6093 1.3344,-1.2465 21.61887,-35.5176 45.07617,-76.1582 32.5739,-56.4352 42.78586,-74.8882 43.22656,-78.1036 0.7709,-5.6245 -0.98417,-11.6712 -4.57227,-15.7578 -1.6173,-1.842 -18.72146,-15.7129 -38.00976,-30.8242 -19.2883,-15.1112 -38.80921,-30.4109 -43.37891,-33.998 -8.0953,-6.3544 -8.29366,-6.6088 -7.75976,-9.8965 2.02,-12.4391 2.8305,-37.5364 1.7207,-53.2656 -0.6453,-9.1469 -1.42071,-18.1504 -1.72461,-20.0079 l -0.55273,-3.3769 30.21484,-23.6992 c 16.6186,-13.0344 36.83167,-28.8383 44.91797,-35.1192 12.3692,-9.6072 15.08548,-12.1865 17.11328,-16.2558 2.7269,-5.4724 3.11921,-11.4967 1.07031,-16.4004 -0.7362,-1.762 -20.0591,-35.6968 -42.9414,-75.4102 -28.0031,-48.6008 -42.70114,-73.1917 -44.96094,-75.2207 -3.9652,-3.5605 -10.56252,-5.6384 -15.60742,-4.916 -1.9862,0.2846 -26.82281,9.9153 -55.19141,21.4024 -46.6211,18.878 -51.78121,20.7644 -53.69141,19.6152 -1.1623,-0.6991 -7.23678,-4.7835 -13.49808,-9.0742 -6.2612,-4.2908 -14.5208,-9.6184 -18.3535,-11.8399 -8.045,-4.6629 -30.5639,-15.9629 -33.7617,-16.9414 -1.1918,-0.3647 -2.3797,-1.6098 -2.6387,-2.7676 -0.2591,-1.1577 -3.9247,-26.4872 -8.1465,-56.2871 -4.5923,-32.414 -8.2666,-55.3239 -9.1464,-57.0254 -2.4112,-4.6627 -8.9164,-9.5582 -14.209,-10.6933 -3.3936,-0.7279 -44.9459,-1.081 -86.5547,-1.0684 z" />
        </g>
        <g
           id="g903"
           transform="translate(1361.7514,354.2991)">
          <path
             id="path875"
             style="fill:#d3840b;fill-opacity:1;stroke-width:0.964104"
             d="m -2538.9756,2174.0372 v 38.1951 0 c 17.1133,8e-4 21.0287,0.2994 29.7115,2.2435 51.1125,11.444 91.0467,47.3229 106.9745,96.1128 5.4879,16.8102 6.4122,23.2612 6.4122,44.815 0,21.5298 -0.9141,27.9122 -6.4005,44.8291 -15.672,48.3232 -55.4807,84.1616 -106.7055,96.0585 -6.4109,1.4888 -12.6296,2.0153 -26.6775,2.2648 -1.4022,0.025 -2.1002,0.026 -3.3147,0.045 0,0 0,-2e-4 0,0 v 37.8033 a 181.18409,181.18409 0 0 0 181.1824,-181.1823 181.18409,181.18409 0 0 0 -181.1824,-181.1847 z" />
          <path
             id="path889"
             style="fill:#fcc313;fill-opacity:1;stroke-width:0.964104"
             d="m -2539.4733,2174.0352 a 181.18401,181.18401 0 0 0 -180.6869,180.7104 181.18401,181.18401 0 0 0 0,0.4743 181.18401,181.18401 0 0 0 181.1846,181.1822 v -37.8011 c -15.5292,0.2595 -17.2661,0.1004 -28.5011,-2.1044 -48.554,-9.5306 -89.928,-45.1445 -106.8918,-92.0078 -6.3496,-17.5409 -7.8348,-26.8447 -7.8348,-49.0897 0,-17.1695 0.2945,-21.0787 2.2411,-29.7727 6.2419,-27.8783 18.8653,-51.2916 38.2517,-70.9499 20.2503,-20.5341 44.3109,-33.8032 72.9033,-40.2051 8.694,-1.9465 12.6032,-2.2411 29.7727,-2.2412 h 0.059 v -38.195 a 181.18401,181.18401 0 0 0 -0.4977,0 z" />
        </g>
      </g>
    </g>
  </g>
</svg>
