<?xml version="1.0" encoding="UTF-8" standalone="no"?>
<svg
   xmlns:dc="http://purl.org/dc/elements/1.1/"
   xmlns:cc="http://creativecommons.org/ns#"
   xmlns:rdf="http://www.w3.org/1999/02/22-rdf-syntax-ns#"
   xmlns:svg="http://www.w3.org/2000/svg"
   xmlns="http://www.w3.org/2000/svg"
   id="svg8"
   version="1.1"
   viewBox="0 0 551.06873 171.12918"
   height="171.12918"
   width="551.06873">
  <defs
     id="defs2" />
  <metadata
     id="metadata5">
    <rdf:RDF>
      <cc:Work
         rdf:about="">
        <dc:format>image/svg+xml</dc:format>
        <dc:type
           rdf:resource="http://purl.org/dc/dcmitype/StillImage" />
        <dc:title></dc:title>
      </cc:Work>
    </rdf:RDF>
  </metadata>
  <g
     transform="translate(-171.95412,-293.75822)"
     id="layer1">
    <g
       id="flowRoot1380"
       style="font-style:normal;font-variant:normal;font-weight:normal;font-stretch:normal;font-size:96px;line-height:1.25;font-family:AeroLight;-inkscape-font-specification:AeroLight;letter-spacing:0px;word-spacing:0px;fill:#bae0bd;fill-opacity:1;stroke:#5e9c76;stroke-width:5;stroke-miterlimit:4;stroke-dasharray:none;stroke-opacity:0.96078431"
       transform="translate(142.95262,18.890892)"
       aria-label="infection">
      <path
         id="path1530"
         style=""
         d="m 186.816,288.31133 v -10.944 h 11.904 v 10.944 z m 0,58.08 v -50.112 h 11.904 v 50.112 z" />
      <path
         id="path1532"
         style=""
         d="m 245.052,346.39133 v -30.528 q 0,-6.24 -1.632,-8.16 -1.92,-2.208 -8.064,-2.208 h -11.712 v 40.896 h -11.328 v -50.592 h 24.096 q 10.944,0 15.552,4.128 4.704,4.128 4.704,14.112 v 32.352 z" />
      <path
         id="path1534"
         style=""
         d="m 286.2945,304.72733 v 41.664 h -12 v -41.664 h -9.504 v -8.448 h 9.504 v -3.936 q 0,-8.544 1.632,-11.04 2.4,-3.936 11.328,-3.936 h 11.808 v 8.256 h -6.144 q -4.608,0 -5.76,1.92 -0.864,1.344 -0.864,6.144 v 2.592 h 12.768 v 8.448 z" />
      <path
         id="path1536"
         style=""
         d="m 329.07,346.39133 q -24.576,0 -24.576,-25.344 0,-11.04 5.28,-17.472 6.24,-7.776 19.296,-7.776 h 18.528 v 8.928 h -16.704 q -6.816,0 -9.504,1.92 -3.552,2.592 -4.032,9.984 h 30.24 v 9.12 h -30.24 q 0.48,7.2 3.072,9.504 2.592,2.208 10.368,2.208 h 16.8 v 8.928 z" />
      <path
         id="path1538"
         style=""
         d="m 380.847,346.39133 q -12.768,0 -19.392,-6.816 -6.336,-6.432 -6.336,-18.336 0,-25.44 25.728,-25.44 h 16.992 v 9.504 h -13.056 q -8.448,0 -12.192,2.496 -5.28,3.552 -5.28,13.44 0,7.104 2.88,10.752 4.128,5.088 14.592,5.088 h 13.056 v 9.312 z" />
      <path
         id="path1540"
         style=""
         d="m 427.536,346.39133 q -14.496,0 -14.496,-15.168 v -26.496 h -9.312 v -8.448 h 9.312 v -18.912 h 11.424 v 18.912 h 14.304 v 8.448 h -14.304 v 21.984 q 0,6.912 3.072,9.216 2.784,2.016 10.848,2.016 h 0.384 v 8.448 z" />
      <path
         id="path1542"
         style=""
         d="m 448.566,288.31133 v -10.944 h 11.904 v 10.944 z m 0,58.08 v -50.112 h 11.904 v 50.112 z" />
      <path
         id="path1544"
         style=""
         d="m 496.53,347.44733 q -13.632,0 -20.448,-8.928 -5.472,-7.104 -5.472,-17.472 0,-10.56 5.952,-17.856 7.008,-8.448 19.968,-8.448 10.656,0 17.76,6.24 8.064,7.104 8.064,20.064 0,11.52 -6.624,18.72 -7.008,7.68 -19.2,7.68 z m 0.096,-43.104 q -6.144,0 -10.08,4.512 -3.936,4.512 -3.936,12.384 0,7.488 3.84,12.192 3.84,4.608 9.888,4.608 5.28,0 9.024,-3.264 4.992,-4.512 4.992,-13.536 0,-8.16 -4.032,-12.672 -3.744,-4.224 -9.696,-4.224 z" />
      <path
         id="path1546"
         style=""
         d="m 565.302,346.39133 v -30.528 q 0,-6.24 -1.632,-8.16 -1.92,-2.208 -8.064,-2.208 h -11.712 v 40.896 h -11.328 v -50.592 h 24.096 q 10.944,0 15.552,4.128 4.704,4.128 4.704,14.112 v 32.352 z" />
    </g>
    <g
       id="flowRoot1390"
       style="font-style:normal;font-variant:normal;font-weight:normal;font-stretch:normal;font-size:96px;line-height:1.25;font-family:AeroLight;-inkscape-font-specification:AeroLight;letter-spacing:0px;word-spacing:0px;fill:#bae0bd;fill-opacity:1;stroke:#5e9c76;stroke-width:5;stroke-miterlimit:4;stroke-dasharray:none;stroke-opacity:0.96078431"
       transform="translate(-13.609875,19.418892)"
       aria-label="Dis">
      <path
         id="path1523"
         style="fill:#ffeea3;fill-opacity:1;stroke:#ba9b48;stroke-opacity:1"
         d="m 218.976,346.39133 h -30.912 v -69.024 h 30.528 q 16.32,0 24,8.928 7.68,8.832 7.68,26.976 0,33.12 -31.296,33.12 z m -0.576,-58.656 h -17.76 v 48.288 h 17.76 q 9.888,0 13.44,-4.224 4.416,-5.088 4.416,-19.872 0,-13.152 -3.36,-18.24 -3.84,-5.952 -14.496,-5.952 z" />
      <path
         id="path1525"
         style="fill:#ffeea3;fill-opacity:1;stroke:#ba9b48;stroke-opacity:1"
         d="m 260.8785,288.31133 v -10.944 h 11.904 v 10.944 z m 0,58.08 v -50.112 h 11.904 v 50.112 z" />
      <path
         id="path1527"
         style="fill:#ffeea3;fill-opacity:1;stroke:#ba9b48;stroke-opacity:1"
         d="m 318.9225,346.39133 h -33.312 v -8.928 h 27.168 q 8.064,0 8.064,-6.24 0,-6.048 -8.064,-6.048 h -11.616 q -8.736,0 -12,-2.016 -4.512,-2.88 -4.512,-11.616 0,-15.744 16.896,-15.744 h 27.648 v 8.928 h -22.656 q -5.184,0 -7.296,0.96 -2.784,1.248 -2.784,5.184 0,5.376 7.296,5.376 h 12.192 q 15.648,0 15.936,13.824 0.096,7.104 -3.552,11.712 -3.552,4.608 -9.408,4.608 z" />
    </g>
    <g
       transform="matrix(-0.33819099,0.58576401,-0.58576401,-0.33819099,586.17115,262.76174)"
       id="g121">
      <path
         style="fill:#99c99e;stroke-width:3.70676684"
         d="m 486.56674,367.0144 a 10.623594,10.623594 0 0 1 -10.26033,-7.57663 10.608767,10.608767 0 0 1 -0.0667,-5.98272 c 1.19728,-4.19606 0.7154,-9.07046 -1.35297,-13.72987 l -8.08076,-18.17798 5.79739,-2.57621 c 1.92381,4.39623 7.03174,16.0503 9.15201,20.55403 2.0313,4.3295 6.194,5.916 8.68124,6.86493 0.64498,0.24464 1.19729,0.4411 1.57909,0.66722 a 10.786692,10.786692 0 0 1 5.27473,9.23726 c 0,2.86162 -1.11574,5.56015 -3.14334,7.58404 a 10.645835,10.645835 0 0 1 -7.58034,3.13593 z"
         id="path2" />
      <path
         style="fill:#5e9c76;stroke-width:3.70676684"
         d="m 471.65442,321.42117 c 2.26854,5.18206 6.50537,14.80853 8.42177,18.88968 2.35009,5.00414 6.94648,6.75744 9.6932,7.80274 0.46705,0.17793 1.10832,0.42258 1.30107,0.53378 a 8.9184812,8.9184812 0 0 1 4.36657,7.64335 8.8777068,8.8777068 0 0 1 -8.87029,8.8703 8.7442632,8.7442632 0 0 1 -8.48108,-6.24591 8.7702105,8.7702105 0 0 1 -0.063,-4.95224 c 1.3159,-4.61122 0.80437,-9.93784 -1.44193,-14.99387 l -7.32457,-16.48399 2.39828,-1.06384 m 1.90527,-4.90406 -9.19648,4.08857 8.83322,19.87197 c 1.73847,3.91435 2.44276,8.34764 1.26401,12.46957 a 12.484391,12.484391 0 0 0 0.0704,7.0132 c 1.2084,4.12934 4.64828,7.47655 8.82581,8.51074 1.08979,0.27059 2.16475,0.39662 3.21006,0.39662 a 12.57706,12.57706 0 0 0 6.39047,-23.41194 c -1.87192,-1.10832 -7.26897,-1.9201 -9.5264,-6.72407 -2.63551,-5.61205 -9.87112,-22.21466 -9.87112,-22.21466 z"
         id="path4" />
      <path
         style="fill:#99c99e;stroke-width:3.70676684"
         d="m 467.63628,289.44289 4.34062,-5.42671 c 3.08403,-3.85504 4.4889,-8.29574 3.94771,-12.50663 a 10.49015,10.49015 0 0 1 0.54119,-4.8225 c 1.17875,-3.38799 3.9996,-6.00867 7.35422,-6.83528 a 10.790398,10.790398 0 0 1 13.4704,10.11947 c 0.0741,2.97283 -1.57909,6.12358 -4.41476,8.4329 -1.56055,1.26771 -3.05067,2.04242 -4.56674,2.37603 -4.42588,0.96006 -8.0548,3.08033 -10.49386,6.12358 l -5.20801,6.50908 z"
         id="path6" />
      <path
         style="fill:#5e9c76;stroke-width:3.70676684"
         d="m 486.56674,261.37154 a 8.922188,8.922188 0 0 1 8.87029,8.64418 c 0.0593,2.40199 -1.33814,5.00043 -3.73271,6.95019 -1.33073,1.08238 -2.56879,1.73477 -3.79202,2.00165 -4.84846,1.05643 -8.84064,3.40282 -11.54658,6.77968 l -4.0515,5.06344 -2.07208,-1.65692 3.18411,-3.98107 c 3.40281,-4.25166 4.94112,-9.18907 4.34062,-13.90037 a 8.651594,8.651594 0 0 1 0.45223,-3.97736 c 0.96005,-2.76155 3.33609,-4.97819 6.04944,-5.6417 0.7636,-0.18534 1.53831,-0.28172 2.2982,-0.28172 m 0,-3.70677 c -1.0379,0 -2.10544,0.12603 -3.18782,0.39292 -4.01072,0.986 -7.30974,4.12563 -8.66642,8.02515 a 12.306466,12.306466 0 0 0 -0.62645,5.66765 c 0.51154,3.98848 -1.0453,7.97325 -3.55849,11.11289 l -5.50084,6.87234 7.86205,6.28668 6.36452,-7.95843 c 2.3538,-2.93947 5.76031,-4.67423 9.44113,-5.47489 1.65693,-0.35956 3.42876,-1.18988 5.34145,-2.74672 3.0099,-2.44647 5.19689,-6.03832 5.10052,-9.9156 a 12.573353,12.573353 0 0 0 -12.56965,-12.26199 z"
         id="path8" />
      <path
         style="fill:#99c99e;stroke-width:3.70676684"
         d="m 409.4734,306.04179 a 12.399135,12.399135 0 0 0 -2.72077,-0.30766 c -1.82743,0 -3.57332,0.4374 -5.0412,1.26771 a 5.3673985,5.3673985 0 0 1 -2.65404,0.69687 5.5601504,5.5601504 0 0 1 -0.004,-11.11288 c 1.63098,0 3.17299,0.71911 4.22571,1.9757 1.55314,1.84968 3.90694,3.16929 6.81675,3.82168 l 20.11662,4.4889 -0.80437,3.6178 z"
         id="path10" />
      <path
         style="fill:#5e9c76;stroke-width:3.70676684"
         d="m 399.05368,298.43921 c 1.08237,0 2.10544,0.47817 2.80602,1.3159 1.79778,2.14622 4.48148,3.67341 7.75826,4.41847 a 14.204331,14.204331 0 0 0 -2.86162,-0.29284 c -2.14622,0 -4.20718,0.51895 -5.95677,1.50125 a 3.5214286,3.5214286 0 0 1 -1.74589,0.45593 3.699355,3.699355 0 0 1 0,-7.39871 m 0,-3.70677 a 7.4098271,7.4098271 0 0 0 0,14.81224 c 1.29737,0 2.50577,-0.34102 3.5585,-0.93039 a 8.4069474,8.4069474 0 0 1 4.14045,-1.02678 c 0.77472,0 1.55314,0.0927 2.31673,0.25948 l 21.74019,4.85215 1.61244,-7.2319 -21.92181,-4.89293 c -2.19812,-0.48929 -4.35175,-1.47159 -5.79739,-3.19894 a 7.3542256,7.3542256 0 0 0 -5.64911,-2.64293 z"
         id="path12" />
      <path
         style="fill:#99c99e;stroke-width:3.70676684"
         d="m 425.1419,363.30763 a 5.693594,5.693594 0 0 1 -1.59391,-11.15737 9.8711203,9.8711203 0 0 0 5.16724,-3.69564 c 2.41681,-3.53255 8.46255,-12.1026 10.92013,-15.57954 l 3.14334,2.20181 c -2.31302,3.25825 -7.75826,10.94238 -10.58652,15.10508 -1.19358,1.76442 -1.35297,4.70018 -1.35297,7.33569 a 5.7306617,5.7306617 0 0 1 -5.69731,5.78997 z"
         id="path14" />
      <path
         style="fill:#5e9c76;stroke-width:3.70676684"
         d="m 440.08388,335.45128 0.10379,0.0704 a 1063.6568,1063.6568 0 0 0 -9.5301,13.61866 c -1.479,2.17958 -1.67916,5.45636 -1.67545,8.47367 0,2.11656 -1.72365,3.84021 -3.84022,3.84021 a 3.8439173,3.8439173 0 0 1 -1.07866,-7.52845 11.624421,11.624421 0 0 0 6.17547,-4.42588 c 2.10174,-3.06178 7.00579,-10.0268 9.84517,-14.04864 m -0.89704,-5.15611 c 0,0 -8.92589,12.62154 -12.00251,17.11043 a 7.951015,7.951015 0 0 1 -4.15158,2.96171 7.5506842,7.5506842 0 1 0 9.65613,7.24673 c 0,-1.29366 -0.0297,-4.82251 1.03419,-6.39047 a 1305.0044,1305.0044 0 0 1 11.64295,-16.59519 z"
         id="path16" />
      <path
         style="fill:#bae0bd;stroke-width:3.70676684"
         d="m 420.4269,283.73076 c -2.81715,-3.62522 -6.50167,-5.9679 -10.37154,-6.59805 a 10.897895,10.897895 0 0 1 -3.03584,-1.00453 c -3.19894,-1.59762 -5.49343,-4.64087 -5.98272,-7.94731 a 10.723677,10.723677 0 0 1 10.60135,-12.36948 c 0.84885,0 1.70882,0.0964 2.56138,0.29284 3.49548,0.80436 6.48684,3.58444 7.6174,7.07992 0.51525,1.59391 0.66722,3.19894 0.44482,4.77061 -0.6005,4.24795 0.75988,8.7628 3.83279,12.7105 l 19.6088,25.21343 -5.01525,3.90693 z"
         id="path18" />
      <path
         style="fill:#5e9c76;stroke-width:3.70676684"
         d="m 411.63815,257.66477 c 0.708,0 1.43081,0.0853 2.14622,0.24836 2.87645,0.6598 5.33404,2.95429 6.26814,5.84186 0.42628,1.32703 0.55231,2.65034 0.37068,3.93659 -0.67092,4.75207 0.8229,9.76362 4.20718,14.11166 l 18.47453,23.75296 -2.09062,1.62727 -19.12321,-24.58698 c -3.10627,-3.99219 -7.20225,-6.58322 -11.53175,-7.29121 a 8.8888271,8.8888271 0 0 1 -2.51319,-0.83032 c -2.66887,-1.32702 -4.57415,-3.84021 -4.97448,-6.55727 a 8.8702932,8.8702932 0 0 1 8.7665,-10.25292 m 0,-3.70676 a 12.584474,12.584474 0 0 0 -12.4362,14.49716 c 0.59308,4.01814 3.35462,7.52474 6.99096,9.33364 1.22324,0.60791 2.41311,0.9823 3.56591,1.17134 3.70306,0.60791 6.902,2.94688 9.2039,5.90859 l 21.39917,27.51533 7.93989,-6.17918 -20.74677,-26.6776 c -2.50577,-3.22118 -4.02926,-7.28009 -3.46212,-11.31676 a 12.417669,12.417669 0 0 0 -0.51524,-5.59351 c -1.31961,-4.08116 -4.78914,-7.35794 -8.96667,-8.31799 a 13.355481,13.355481 0 0 0 -2.97283,-0.34102 z"
         id="path20" />
      <path
         style="fill:#bae0bd;stroke-width:3.70676684"
         d="m 400.96266,344.7738 c -2.26112,0 -4.38139,-1.00824 -5.80479,-2.77637 a 7.4283609,7.4283609 0 0 1 -1.47159,-6.36081 7.4061203,7.4061203 0 0 1 5.24508,-5.51938 c 0.68204,-0.17422 1.36409,-0.26318 2.03501,-0.26318 1.40116,0 2.76154,0.38921 3.94029,1.13056 a 11.802346,11.802346 0 0 0 6.27185,1.85709 c 1.13427,0 2.25001,-0.17792 3.32127,-0.52636 l 17.23276,-5.59351 1.01194,3.11369 -17.55895,5.701 c -3.08774,1.00454 -5.87523,3.11739 -8.28463,6.28668 a 7.4098271,7.4098271 0 0 1 -5.93824,2.95059 z"
         id="path22" />
      <path
         style="fill:#5e9c76;stroke-width:3.70676684"
         d="m 400.96266,331.70374 c 1.04902,0 2.07209,0.29283 2.9543,0.84885 a 13.640902,13.640902 0 0 0 7.25414,2.1388 c 0.45223,0 0.90074,-0.0222 1.34556,-0.0704 -2.61698,1.28254 -4.99673,3.32127 -7.09476,6.08281 a 5.597218,5.597218 0 0 1 -8.82581,0.12973 5.6379925,5.6379925 0 0 1 -1.10461,-4.80767 5.5230827,5.5230827 0 0 1 5.47118,-4.32209 m 31.95975,-7.31716 -18.99718,6.16435 a 8.922188,8.922188 0 0 1 -2.75413,0.43369 c -1.84226,0 -3.67341,-0.55972 -5.28214,-1.57166 a 9.2298496,9.2298496 0 0 0 -4.9263,-1.41599 9.2595038,9.2595038 0 0 0 -9.0927,7.25044 9.3262256,9.3262256 0 0 0 9.0927,11.37977 c 3.02843,0 5.71584,-1.44564 7.41354,-3.68082 1.92752,-2.53913 4.34804,-4.66311 7.38017,-5.64911 l 19.31967,-6.27185 z"
         id="path24" />
      <path
         style="fill:#bae0bd;stroke-width:3.70676684"
         d="m 474.72362,303.55455 5.72695,-1.46417 c 5.17465,-1.31591 11.69115,-2.97654 15.0643,-3.8847 2.27596,-0.60791 4.05521,-1.36779 6.14953,-5.63057 1.04531,-2.1314 2.92835,-3.40652 5.03379,-3.40652 a 5.4192932,5.4192932 0 1 1 -1.0935,10.72738 c -2.64663,-0.54119 -4.68164,-0.78213 -6.59433,-0.78213 -1.6384,0 -3.13964,0.18163 -4.57786,0.5486 l -19.41975,5.01155 z"
         id="path26" />
      <path
         style="fill:#5e9c76;stroke-width:3.70676684"
         d="m 506.7019,291.02568 a 3.5659098,3.5659098 0 1 1 -0.71912,7.05397 c -1.99424,-0.40774 -3.66599,-0.65239 -5.21171,-0.75988 0.8748,-0.93781 1.70882,-2.19441 2.55767,-3.92918 0.2743,-0.5523 1.32331,-2.36491 3.37316,-2.36491 m 0,-3.70677 c -3.0099,0 -5.44895,1.89786 -6.69813,4.44071 -1.82744,3.71418 -3.1211,4.1664 -4.96707,4.6594 -6.14582,1.64951 -22.74843,5.80851 -22.5668,5.81963 l 1.21212,4.69647 21.21753,-5.47119 a 16.391323,16.391323 0 0 1 4.12193,-0.493 c 2.06837,0 4.15157,0.31878 6.21624,0.74136 a 7.2689699,7.2689699 0 1 0 1.46418,-14.39338 z"
         id="path28" />
      <path
         style="fill:#d8f0da;stroke-width:3.70676684"
         d="m 452.81292,378.13099 c -1.02677,0 -2.07579,-0.13715 -3.10627,-0.41516 a 10.912722,10.912722 0 0 1 -7.58775,-7.53956 c -1.34927,-4.96707 0.53377,-9.88595 4.79655,-12.53628 4.09598,-2.54655 6.44978,-6.46831 6.44978,-10.76446 v -0.64868 c 0,-1.63839 -0.61903,-2.94317 -1.03048,-3.80685 -0.11491,-0.24835 -0.23353,-0.45964 -0.28172,-0.64868 0.0148,-0.47818 1.34556,-1.44564 3.35092,-1.44564 2.00536,0 3.33238,0.96746 3.33238,1.60873 l -0.35585,0.8748 c -0.41886,1.02678 -0.94152,2.30932 -0.94152,3.62893 v 2.57249 c 0,4.02184 1.40487,7.92878 3.94771,10.99427 1.66063,1.99424 2.53914,4.41847 2.53914,7.01321 0,2.97282 -1.15651,5.76402 -3.25454,7.86205 -2.09803,2.09803 -4.88923,3.25083 -7.85835,3.25083 z"
         id="path30" />
      <path
         style="fill:#5e9c76;stroke-width:3.70676684"
         d="m 455.40395,342.17906 a 3.7067669,3.7067669 0 0 1 1.16022,0.17793 c -0.44111,1.08978 -0.97488,2.5206 -0.97488,4.07744 v 2.57249 c 0,4.45183 1.55313,8.77763 4.37769,12.17673 1.37892,1.66434 2.10915,3.68082 2.10915,5.83075 0,5.10792 -4.15529,9.26692 -9.26692,9.26692 -0.86367,0 -1.74588,-0.11862 -2.62068,-0.35215 a 9.0445113,9.0445113 0 0 1 -6.27926,-6.23849 c -1.13057,-4.15528 0.43369,-8.26609 3.98477,-10.47532 4.51484,-2.80602 7.23932,-7.32086 7.32086,-12.11742 h 0.004 v -0.8748 c 0,-1.61244 -0.46705,-2.93946 -0.88592,-3.89581 0.28172,-0.0815 0.64498,-0.14827 1.07126,-0.14827 m 0,-3.70677 c -2.86533,0 -5.18947,1.54943 -5.18947,3.45842 0,0.85997 1.29736,2.27966 1.29736,4.29243 v 0.64869 c 0,3.86245 -2.29078,7.15406 -5.57127,9.19278 -4.60009,2.85421 -7.26897,8.4885 -5.60833,14.59725 a 12.777226,12.777226 0 0 0 8.89624,8.84805 c 1.21582,0.3262 2.41681,0.47817 3.58073,0.47817 a 12.973684,12.973684 0 0 0 12.9734,-12.97368 c 0,-3.12481 -1.11574,-5.9716 -2.96542,-8.19566 a 15.342308,15.342308 0 0 1 -3.52143,-9.80811 v -2.57249 c 0,-1.64581 1.29737,-3.64376 1.29737,-4.50373 0,-1.91269 -2.32414,-3.46212 -5.18947,-3.46212 z"
         id="path32" />
      <g
         transform="matrix(3.7067669,0,0,3.7067669,380.52726,235.42417)"
         id="g38">
        <path
           style="fill:#d8f0da"
           d="M 34.393,27.5 A 1.963,1.963 0 0 1 32.504,26.054 1.73,1.73 0 0 0 31.483,24.9 C 31.481,24.899 29.394,24.076 28.702,23.792 28.447,23.688 28.17,23.674 27.957,23.674 l -0.312,0.004 a 0.463,0.463 0 0 1 -0.079,-0.005 c -0.044,-0.022 -0.15,-0.35 0.04,-0.785 0.162,-0.37 0.426,-0.545 0.555,-0.547 0.004,0.008 0.019,0.028 0.035,0.05 0.12,0.159 0.321,0.425 0.688,0.563 0.711,0.267 2.821,1.124 2.821,1.124 0.2,0.08 0.408,0.12 0.622,0.12 0.351,0 0.699,-0.107 1.009,-0.311 a 1.94,1.94 0 0 1 1.512,-0.262 1.982,1.982 0 0 1 1.47,1.507 1.957,1.957 0 0 1 -0.405,1.651 1.97,1.97 0 0 1 -1.52,0.717 z"
           id="path34" />
        <path
           style="fill:#5e9c76"
           d="m 28.091,23.031 c 0.055,0.052 0.116,0.104 0.185,0.155 a 3.058,3.058 0 0 0 -0.244,-0.012 0.864,0.864 0 0 1 0.059,-0.143 m 6.302,1.04 a 1.466,1.466 0 0 1 0,2.929 1.46,1.46 0 0 1 -1.406,-1.078 2.241,2.241 0 0 0 -0.859,-1.235 2.339,2.339 0 0 0 1.482,-0.382 c 0.234,-0.153 0.505,-0.234 0.783,-0.234 m -6.23,-2.232 c -0.373,0 -0.791,0.334 -1.016,0.848 -0.272,0.624 -0.156,1.276 0.26,1.458 0.06,0.026 0.153,0.032 0.263,0.032 0.087,0 0.185,-0.004 0.287,-0.004 0.187,0 0.387,0.012 0.554,0.081 0.694,0.284 2.785,1.11 2.785,1.11 0.359,0.143 0.624,0.448 0.725,0.821 A 2.46,2.46 0 0 0 34.393,28 2.468,2.468 0 0 0 36.808,25.033 2.472,2.472 0 0 0 34.393,23.071 c -0.492,0 -0.947,0.147 -1.33,0.397 a 1.354,1.354 0 0 1 -0.736,0.228 c -0.146,0 -0.292,-0.026 -0.434,-0.083 0,0 -2.12,-0.861 -2.834,-1.129 -0.385,-0.145 -0.486,-0.519 -0.666,-0.598 a 0.57,0.57 0 0 0 -0.23,-0.047 z"
           id="path36" />
      </g>
      <g
         transform="matrix(3.7067669,0,0,3.7067669,380.52726,235.42417)"
         id="g44">
        <path
           style="fill:#d8f0da"
           d="m 19.5,13.1 c -1.036,0 -2.009,-0.562 -2.009,-0.899 0,-0.21 0.159,-0.427 0.437,-0.597 0.612,-0.374 0.964,-0.957 0.964,-1.599 V 9.729 c 0,-1.035 -0.135,-2.088 -1.108,-2.77 C 16.7,6.201 16.252,4.87 16.639,3.568 16.915,2.638 17.706,1.871 18.652,1.614 A 3.31,3.31 0 0 1 19.501,1.5 3.003,3.003 0 0 1 22.5,4.5 c 0,0.977 -0.478,1.895 -1.278,2.457 -0.835,0.587 -1.259,1.506 -1.259,2.732 v 0.315 c 0,0.642 0.352,1.225 0.964,1.599 0.276,0.17 0.436,0.387 0.436,0.597 -0.001,0.356 -0.835,0.9 -1.863,0.9 z"
           id="path40" />
        <path
           style="fill:#5e9c76"
           d="m 19.5,2 c 1.379,0 2.5,1.122 2.5,2.5 0,0.814 -0.398,1.579 -1.066,2.047 -0.977,0.686 -1.472,1.742 -1.472,3.141 v 0.316 c 0,0.807 0.449,1.564 1.202,2.025 a 0.77,0.77 0 0 1 0.172,0.138 C 20.675,12.329 20.154,12.6 19.5,12.6 c -0.643,0 -1.247,-0.262 -1.465,-0.449 a 0.775,0.775 0 0 1 0.155,-0.122 c 0.753,-0.461 1.202,-1.218 1.202,-2.025 V 9.73 c 0,-0.732 0,-2.255 -1.323,-3.18 C 17.166,5.918 16.793,4.805 17.118,3.713 A 2.43,2.43 0 0 1 18.782,2.098 C 19.022,2.033 19.263,2 19.5,2 m 0,-1 a 3.75,3.75 0 0 0 -0.98,0.133 3.431,3.431 0 0 0 -2.361,2.294 c -0.479,1.609 0.167,3.124 1.336,3.942 0.786,0.55 0.896,1.402 0.896,2.361 v 0.275 c 0,0.496 -0.301,0.913 -0.725,1.172 -0.415,0.254 -0.675,0.617 -0.675,1.023 0,0.773 1.349,1.4 2.508,1.4 1.16,0 2.362,-0.627 2.362,-1.4 0,-0.406 -0.261,-0.769 -0.675,-1.023 -0.423,-0.259 -0.725,-0.676 -0.725,-1.172 V 9.689 c 0,-0.95 0.269,-1.777 1.046,-2.323 A 3.5,3.5 0 0 0 19.5,1 Z"
           id="path42" />
      </g>
      <g
         transform="matrix(3.7067669,0,0,3.7067669,380.52726,235.42417)"
         id="g50">
        <path
           style="fill:#bae0bd"
           d="m 19.5,30.5 c -5.514,0 -10,-4.486 -10,-10 0,-5.514 4.486,-10 10,-10 5.514,0 10,4.486 10,10 0,5.514 -4.486,10 -10,10 z"
           id="path46" />
        <path
           style="fill:#5e9c76"
           d="M 19.5,11 C 24.738,11 29,15.262 29,20.5 29,25.738 24.738,30 19.5,30 14.262,30 10,25.738 10,20.5 10,15.262 14.262,11 19.5,11 m 0,-1 C 13.701,10 9,14.701 9,20.5 9,26.299 13.701,31 19.5,31 25.299,31 30,26.299 30,20.5 30,14.701 25.299,10 19.5,10 Z"
           id="path48" />
      </g>
      <g
         transform="matrix(3.7067669,0,0,3.7067669,380.52726,235.42417)"
         id="g56">
        <circle
           style="fill:#ffeea3"
           cx="17.5"
           cy="17.5"
           r="2"
           id="circle52" />
        <path
           style="fill:#ba9b48"
           d="M 17.5,16 C 18.327,16 19,16.673 19,17.5 19,18.327 18.327,19 17.5,19 16.673,19 16,18.327 16,17.5 16,16.673 16.673,16 17.5,16 m 0,-1 C 16.125,15 15,16.125 15,17.5 15,18.875 16.124,20 17.5,20 18.875,20 20,18.875 20,17.5 20,16.125 18.875,15 17.5,15 Z"
           id="path54" />
      </g>
      <g
         transform="matrix(3.7067669,0,0,3.7067669,380.52726,235.42417)"
         id="g62">
        <path
           style="fill:#ffeea3"
           d="m 16.5,25.5 c -0.626,0 -1,-0.374 -1,-1 0,-0.626 0.374,-1 1,-1 0.626,0 1,0.374 1,1 0,0.626 -0.374,1 -1,1 z"
           id="path58" />
        <path
           style="fill:#ba9b48"
           d="M 16.5,24 C 16.846,24 17,24.154 17,24.5 17,24.846 16.846,25 16.5,25 16.154,25 16,24.846 16,24.5 16,24.154 16.154,24 16.5,24 m 0,-1 C 15.599,23 15,23.6 15,24.5 15,25.4 15.6,26 16.5,26 17.4,26 18,25.4 18,24.5 18,23.6 17.4,23 16.5,23 Z"
           id="path60" />
      </g>
      <g
         transform="matrix(3.7067669,0,0,3.7067669,380.52726,235.42417)"
         id="g68">
        <path
           style="fill:#ffeea3"
           d="m 23,25.5 c -0.785,0 -1.5,-0.715 -1.5,-1.5 0,-0.785 0.715,-1.5 1.5,-1.5 0.785,0 1.5,0.715 1.5,1.5 0,0.785 -0.715,1.5 -1.5,1.5 z"
           id="path64" />
        <path
           style="fill:#ba9b48"
           d="m 23,23 c 0.514,0 1,0.486 1,1 0,0.514 -0.486,1 -1,1 -0.514,0 -1,-0.486 -1,-1 0,-0.514 0.486,-1 1,-1 m 0,-1 c -1.068,0 -2,0.932 -2,2 0,1.068 0.934,2 2,2 1.066,0 2,-0.932 2,-2 0,-1.068 -0.934,-2 -2,-2 z"
           id="path66" />
      </g>
    </g>
    <rect
       y="419.30222"
       x="326.54935"
       height="10.05623"
       width="393.98859"
       id="rect125"
       style="opacity:1;fill:#ffeea3;fill-opacity:1;stroke:#ba9b48;stroke-width:4.96988297;stroke-miterlimit:4;stroke-dasharray:none;stroke-opacity:1" />
  </g>
</svg>
