<svg xmlns="http://www.w3.org/2000/svg" viewBox="0 0 572.418 106.64"><defs><style>.a{fill:#ffef7c;}.b{fill:#fff;}.c{fill:#99c99e;}.d{fill:#5e9c77;}.e{fill:#bbdcbc;}.f{fill:#daebd9;}.g{fill:#ffefa4;}.h{fill:#bb9c48;}</style></defs><title>Disinfection_Logo</title><path class="a" d="M18.307,87.148l-3.339,1.057Q7.066,89.264,0,89.6,1.112,86.48,5.9,72.4q2.337-7.011,7.234-20.866a134.257,134.257,0,0,1,6.845-14.58q-1.5.948-4.007,2.227L12.687,23.936A135.913,135.913,0,0,1,32.5,22.211q1.891,0,4.285.223,6.621.5,7.568.667a32.476,32.476,0,0,1,7.734,2.393q9.348,3.9,9.349,13.355a14.45,14.45,0,0,1-.39,3.394Q57.257,74.741,18.307,87.148ZM27.655,49.81,18.919,73.571Q30.048,70.957,39.4,61.385q7.512-7.846,7.512-16.248,0-8.514-3.283-9.627a18.05,18.05,0,0,0-5.954-1.336H37.5a42.189,42.189,0,0,0-9.682,1.336l4.952,2.5q-.668,1.168-3.338,7.011Q28.935,46.417,27.655,49.81Z"/><path class="a" d="M63.6,77.912l1.558-5.064q.5-1.725,2.226-7.067a216.177,216.177,0,0,1,8.458-20.644q1.391-3.284,4.451-9.293-4.841.78-14.69,2.17L69.5,24.659q7.012-.612,17.584-1.447,11.073-.834,19.476-1l-4.118,12.965q-8.569,0-13.522.167l3.84,2.114q-1.337,2.56-3.339,7.68-2.559,6.288-7.067,20.644-1.614,5.287-3.06,10.962,1.446-.055,4.952-.278l6.9-.223L87.028,89.207q-10.406,0-13.577.167-5.121.39-23.26,2.727l3.9-13.411,4.451-.445Q60.485,78.134,63.6,77.912Z"/><path class="a" d="M131.989,34.842a36.077,36.077,0,0,0-6.288.668q-6.567,1.559-9.348,5.342a4.744,4.744,0,0,0-.946,2.782q0,2.45,2.56,6.121a61.659,61.659,0,0,1,3.894,6.01q3.115,7.29,3.117,11.351v1.113Q124.087,78.3,113.4,85.368q-5.787,3.9-18.7,7.122L91.591,75.852a43.935,43.935,0,0,0,8.792-1.947q9.236-3.172,9.237-8.458v-.556a13.353,13.353,0,0,0-1.725-6.01q-.947-1.391-3.283-5.119-4.173-6.623-4.174-11.463,0-10.35,7.735-14.913,5.955-3.45,17.918-6.455Z"/><path class="b" d="M136.83,77.912l1.559-5.064q.5-1.725,2.225-7.067a216.708,216.708,0,0,1,8.458-20.644q1.39-3.284,4.451-9.293-4.839.78-14.689,2.17l3.9-13.355q7.011-.612,17.584-1.447,11.072-.834,19.475-1l-4.117,12.965q-8.571,0-13.523.167l3.84,2.114q-1.335,2.56-3.339,7.68-2.559,6.288-7.066,20.644-1.614,5.287-3.061,10.962,1.446-.055,4.953-.278l6.9-.223-4.118,12.965q-10.407,0-13.577.167-5.121.39-23.26,2.727l3.895-13.411,4.452-.445Q133.712,78.134,136.83,77.912Z"/><path class="b" d="M181.735,23.713,198.1,20.04a306.235,306.235,0,0,1,6.956,36.17q.278,0,2-4.118l1.781-4.34q2.892-6.789,12.742-24.6l1.836-.167q5.008-.612,11.574-1-5.953,10.851-12.575,25.764-2.337,5.4-6.956,20.644-1.279,4.062-4.841,16.36L193.7,88.873a13.738,13.738,0,0,0,.223-2.893,178.13,178.13,0,0,0-2.393-25.374q-.889-6.231-1.558-6.233L184.128,68.4a62.355,62.355,0,0,0-4.841,17.918l-16.86,4.173q2.949-10.9,6.622-22.091a211.5,211.5,0,0,1,8.4-20.644q2.448-5.343,6.788-13.355a4.48,4.48,0,0,0,.279-1.336,15.448,15.448,0,0,0-1.168-4.618Q181.9,24.383,181.735,23.713Z"/><path class="b" d="M227.754,88.317q-7.345.78-16.693,2.393v-.167q0-.612,2.336-8.959,2.783-9.683,4.953-15.8,3.674-10.239,8.346-20.644,1.782-3.9,4.007-8.125-4.73.5-8.848,1l3.952-13.355q9.236-.721,22.09-1.447,7.68-.444,24.818-1L268.6,35.176h-5.119q-14.413,0-22.538.668l2.783,1.613q-.667,1.449-3.283,7.68-.723,1.614-1.614,3.783l19.2-.723-4.061,11.63-18.919.668q-1,3.283-1.614,5.119A120.942,120.942,0,0,0,227.754,88.317Z"/><path class="b" d="M313.5,22.211l-4.117,12.965h-5.12q-14.414,0-22.537.668l2.783,1.613q-.669,1.449-3.283,7.68-.724,1.614-1.614,3.783l19.2-.723-4.062,11.63-18.92.668q-2.058,6.066-4.507,15.413,7.734-.444,23.149-1.168l-4.23,12.854h-9.57q-9.8,0-28.824,3.116v-.167q0-.612,2.337-8.959,2.781-9.683,4.952-15.8,3.672-10.239,8.346-20.644,1.782-3.9,4.007-8.125-4.729.5-8.847,1L266.6,24.659q9.236-.721,22.091-1.447Q296.365,22.768,313.5,22.211Z"/><path class="b" d="M351.23,80.026q-9.293,10.406-23.816,10.406-11.74,0-18.307-8.57-6.066-7.9-6.065-20.533,0-2.726.278-5.787a38.372,38.372,0,0,1,11.185-23.371q9.96-9.96,22.759-9.96,19.308,0,27.321,13.855l-16.805,8.57a11.917,11.917,0,0,0-11.63-7.4,18.711,18.711,0,0,0-13.855,5.62q-5.231,5.4-6.511,14.3a26.883,26.883,0,0,0-.277,3.506,17.864,17.864,0,0,0,3.727,11.407,12.143,12.143,0,0,0,10.073,5.063,15.809,15.809,0,0,0,11.851-5.453Z"/><path class="b" d="M417.393,22.211l-4.119,12.965h-5.341q-7.846,0-13.578.167l3.895,2.114q-4.284,8.181-10.461,28.324-2.226,7.624-5.564,20.756l-.446.166q-6.009,1.114-16.415,4.007,3.284-12.465,7.512-24.929a208.742,208.742,0,0,1,8.458-20.644q1.337-3.172,4.452-9.293-8.46.78-19.253,2.17l3.95-13.355q9.682-.721,22.091-1.447Q400.2,22.768,417.393,22.211Z"/><path class="b" d="M412.606,77.912l1.559-5.064q.5-1.725,2.226-7.067a216.177,216.177,0,0,1,8.458-20.644q1.389-3.284,4.451-9.293-4.841.78-14.69,2.17l3.895-13.355q7.013-.612,17.584-1.447,11.073-.834,19.475-1l-4.117,12.965q-8.571,0-13.522.167l3.84,2.114q-1.336,2.56-3.339,7.68-2.559,6.288-7.067,20.644-1.614,5.287-3.06,10.962,1.446-.055,4.952-.278l6.9-.223-4.118,12.965q-10.406,0-13.577.167-5.121.39-23.26,2.727l3.9-13.411,4.451-.445Q409.49,78.134,412.606,77.912Z"/><path class="b" d="M519.166,23.713l16.359-3.673a306.032,306.032,0,0,1,6.956,36.17q.279,0,2-4.118l1.782-4.34q2.891-6.789,12.742-24.6l1.836-.167q5.008-.612,11.574-1-5.955,10.851-12.575,25.764-2.338,5.4-6.956,20.644-1.281,4.062-4.841,16.36L531.13,88.873a13.807,13.807,0,0,0,.223-2.893,178.13,178.13,0,0,0-2.393-25.374q-.891-6.231-1.559-6.233L521.559,68.4a62.322,62.322,0,0,0-4.841,17.918l-16.861,4.173q2.949-10.9,6.622-22.091a211.79,211.79,0,0,1,8.4-20.644q2.448-5.343,6.788-13.355a4.5,4.5,0,0,0,.278-1.336,15.417,15.417,0,0,0-1.168-4.618Q519.331,24.383,519.166,23.713Z"/><path class="c" d="M504,97.974a8.156,8.156,0,0,1-7.884-10.352,15.549,15.549,0,0,0-1.033-10.482L488.91,63.262l4.426-1.967c1.468,3.356,5.368,12.254,6.987,15.692,1.55,3.305,4.728,4.517,6.627,5.241a8.784,8.784,0,0,1,1.206.509,8.239,8.239,0,0,1,4.027,7.053A8.186,8.186,0,0,1,504,97.974Z"/><path class="d" d="M492.611,63.166c1.732,3.956,4.967,11.305,6.43,14.421,1.794,3.82,5.3,5.159,7.4,5.957.356.136.846.323.993.407A6.773,6.773,0,0,1,504,96.559a6.742,6.742,0,0,1-6.523-8.55,16.961,16.961,0,0,0-1.1-11.446L490.78,63.978l1.831-.812m1.455-3.744-7.021,3.121,6.743,15.171a14.089,14.089,0,0,1,.965,9.52,9.582,9.582,0,0,0,6.792,11.852,10.186,10.186,0,0,0,2.451.3,9.6,9.6,0,0,0,4.879-17.874c-1.43-.846-5.55-1.466-7.273-5.134C499.59,72.1,494.066,59.422,494.066,59.422Z"/><path class="c" d="M489.543,38.752l3.314-4.143a12.768,12.768,0,0,0,3.014-9.548,8.019,8.019,0,0,1,.413-3.682,8.122,8.122,0,0,1,5.615-5.218,8.241,8.241,0,0,1,10.284,7.726,8.38,8.38,0,0,1-3.371,6.438,8.423,8.423,0,0,1-3.486,1.814,13.791,13.791,0,0,0-8.012,4.675l-3.976,4.969Z"/><path class="d" d="M504,17.321a6.812,6.812,0,0,1,6.772,6.6,6.978,6.978,0,0,1-2.85,5.306,7.028,7.028,0,0,1-2.895,1.528,15.207,15.207,0,0,0-8.815,5.176L493.115,39.8l-1.582-1.264,2.431-3.04a14.182,14.182,0,0,0,3.314-10.612,6.6,6.6,0,0,1,.345-3.036,6.769,6.769,0,0,1,4.618-4.308A7.491,7.491,0,0,1,504,17.321m0-2.83a10.188,10.188,0,0,0-2.434.3,9.574,9.574,0,0,0-6.616,6.127,9.389,9.389,0,0,0-.478,4.327,11.491,11.491,0,0,1-2.717,8.484l-4.2,5.247,6,4.8,4.859-6.075a12.4,12.4,0,0,1,7.208-4.18,9.745,9.745,0,0,0,4.078-2.1,9.748,9.748,0,0,0,3.894-7.57A9.6,9.6,0,0,0,504,14.491Z"/><path class="c" d="M445.139,51.425a9.422,9.422,0,0,0-2.077-.235,7.83,7.83,0,0,0-3.848.967,4.089,4.089,0,0,1-2.027.532,4.245,4.245,0,0,1,0-8.484,4.2,4.2,0,0,1,3.226,1.509,9.311,9.311,0,0,0,5.2,2.917l15.358,3.427-.614,2.762Z"/><path class="d" d="M437.185,45.62a2.786,2.786,0,0,1,2.142,1.005A10.655,10.655,0,0,0,445.25,50a10.837,10.837,0,0,0-2.185-.223,9.294,9.294,0,0,0-4.547,1.146,2.685,2.685,0,0,1-1.333.348,2.825,2.825,0,1,1,0-5.649m0-2.83a5.657,5.657,0,0,0,0,11.309,5.532,5.532,0,0,0,2.716-.711,6.425,6.425,0,0,1,3.161-.783,8.262,8.262,0,0,1,1.769.2l16.6,3.7,1.231-5.521L445.923,47.25a7.911,7.911,0,0,1-4.426-2.442A5.616,5.616,0,0,0,437.185,42.79Z"/><path class="c" d="M457.1,95.144a4.347,4.347,0,0,1-1.216-8.518A7.537,7.537,0,0,0,459.83,83.8c1.845-2.7,6.46-9.239,8.336-11.894l2.4,1.681c-1.766,2.488-5.923,8.354-8.082,11.532-.911,1.347-1.033,3.588-1.033,5.6a4.376,4.376,0,0,1-4.329,4.421Z"/><path class="d" d="M468.509,73.877l.079.054q-3.678,5.169-7.276,10.4c-1.129,1.664-1.282,4.165-1.279,6.469a2.927,2.927,0,1,1-3.755-2.816,8.871,8.871,0,0,0,4.715-3.379c1.6-2.337,5.348-7.655,7.516-10.725m-.685-3.936S461.01,79.576,458.661,83a6.068,6.068,0,0,1-3.17,2.261,5.765,5.765,0,1,0,7.372,5.533c0-.988-.022-3.682.79-4.879q4.395-6.369,8.888-12.669Z"/><path class="e" d="M453.5,34.391a12.86,12.86,0,0,0-7.918-5.037A8.516,8.516,0,0,1,438.7,22.52a8.186,8.186,0,0,1,6.833-9.346,8.055,8.055,0,0,1,1.26-.1,8.716,8.716,0,0,1,1.956.223,8.2,8.2,0,0,1,5.815,5.4,8.1,8.1,0,0,1,.34,3.642,12.938,12.938,0,0,0,2.926,9.7L472.8,51.3l-3.829,2.983Z"/><path class="d" d="M446.792,14.491a7.424,7.424,0,0,1,1.639.19,6.791,6.791,0,0,1,5.068,7.465,14.345,14.345,0,0,0,3.212,10.774l14.1,18.134-1.6,1.242-14.6-18.771a14.286,14.286,0,0,0-8.8-5.566,6.776,6.776,0,0,1-1.919-.634,6.89,6.89,0,0,1-3.8-5.006,6.774,6.774,0,0,1,6.693-7.828m0-2.829A9.6,9.6,0,0,0,437.3,22.729a9.742,9.742,0,0,0,5.337,7.126,9.567,9.567,0,0,0,2.722.894,11.511,11.511,0,0,1,7.027,4.511l16.337,21.006,6.062-4.717L458.944,31.182a11.672,11.672,0,0,1-2.643-8.639,9.488,9.488,0,0,0-.394-4.271,9.6,9.6,0,0,0-6.845-6.35A10.146,10.146,0,0,0,446.792,11.662Z"/><path class="e" d="M438.642,80.994a5.7,5.7,0,0,1-1.551-11.189,6.283,6.283,0,0,1,1.554-.2,5.635,5.635,0,0,1,3.008.863,9.012,9.012,0,0,0,4.788,1.418,8.183,8.183,0,0,0,2.536-.4l13.156-4.27.773,2.377L449.5,73.942a13.159,13.159,0,0,0-6.324,4.8A5.66,5.66,0,0,1,438.642,80.994Z"/><path class="d" d="M438.642,71.016a4.226,4.226,0,0,1,2.255.648,10.428,10.428,0,0,0,5.539,1.633,9.481,9.481,0,0,0,1.027-.054,15.4,15.4,0,0,0-5.417,4.644,4.285,4.285,0,0,1-7.581-3.571,4.217,4.217,0,0,1,4.177-3.3m24.4-5.586-14.5,4.706a6.822,6.822,0,0,1-2.1.331,7.6,7.6,0,0,1-4.033-1.2,7.111,7.111,0,0,0-10.7,4.454A7.114,7.114,0,0,0,444.3,79.6a11.814,11.814,0,0,1,5.634-4.313l14.75-4.788Z"/><path class="e" d="M494.954,49.526l4.372-1.118c3.951-1.005,8.926-2.273,11.5-2.966,1.738-.464,3.1-1.044,4.7-4.3a4.317,4.317,0,0,1,3.843-2.6,4.137,4.137,0,1,1-.835,8.19,24.693,24.693,0,0,0-5.034-.6,13.99,13.99,0,0,0-3.5.419L495.175,50.38Z"/><path class="d" d="M519.368,39.961a2.722,2.722,0,1,1-.549,5.385,30.314,30.314,0,0,0-3.979-.58,12.191,12.191,0,0,0,1.953-3,3.035,3.035,0,0,1,2.575-1.8m0-2.83a5.759,5.759,0,0,0-5.114,3.39c-1.395,2.835-2.383,3.181-3.792,3.557-4.692,1.259-17.367,4.435-17.228,4.443l.925,3.586,16.2-4.177a12.508,12.508,0,0,1,3.147-.377,23.849,23.849,0,0,1,4.746.566,5.549,5.549,0,1,0,1.118-10.988Z"/><path class="f" d="M478.227,106.46a9.139,9.139,0,0,1-2.372-.316,8.333,8.333,0,0,1-5.793-5.757,8.422,8.422,0,0,1,3.662-9.57,9.7,9.7,0,0,0,4.924-8.218v-.5a6.6,6.6,0,0,0-.786-2.906,3.243,3.243,0,0,1-.215-.5c.011-.365,1.027-1.1,2.558-1.1s2.544.739,2.544,1.228l-.272.668a7.523,7.523,0,0,0-.719,2.771v1.964a13.173,13.173,0,0,0,3.014,8.393,8.27,8.27,0,0,1,1.939,5.354,8.477,8.477,0,0,1-8.484,8.484Z"/><path class="d" d="M480.205,79.013a2.84,2.84,0,0,1,.886.136,8.358,8.358,0,0,0-.745,3.113v1.964a14.569,14.569,0,0,0,3.342,9.3,6.9,6.9,0,0,1,1.611,4.452,7.083,7.083,0,0,1-7.075,7.074,7.743,7.743,0,0,1-2-.269,6.9,6.9,0,0,1-4.794-4.762,7.034,7.034,0,0,1,3.042-8,11.253,11.253,0,0,0,5.589-9.25h0V82.1a7.341,7.341,0,0,0-.676-2.975,2.956,2.956,0,0,1,.818-.113m0-2.83c-2.188,0-3.962,1.183-3.962,2.641,0,.656.99,1.74.99,3.277v.5a8.373,8.373,0,0,1-4.253,7.018,9.87,9.87,0,0,0-4.282,11.144,9.754,9.754,0,0,0,6.792,6.755,10.536,10.536,0,0,0,2.734.365,9.9,9.9,0,0,0,9.905-9.9,9.739,9.739,0,0,0-2.264-6.257,11.71,11.71,0,0,1-2.689-7.488V82.265c0-1.257.991-2.782.991-3.439C484.167,77.366,482.392,76.183,480.205,76.183Z"/><path class="f" d="M520.37,75.334a5.554,5.554,0,0,1-5.346-4.092,4.895,4.895,0,0,0-2.889-3.265c-.006,0-5.912-2.332-7.87-3.136a5.625,5.625,0,0,0-2.109-.334l-.883.011a1.285,1.285,0,0,1-.223-.014,2.441,2.441,0,0,1,.113-2.221c.459-1.047,1.206-1.542,1.571-1.548a1.507,1.507,0,0,0,.1.141,4.314,4.314,0,0,0,1.947,1.594c2.012.755,7.983,3.18,7.983,3.18a4.691,4.691,0,0,0,1.76.34,5.189,5.189,0,0,0,2.855-.88,5.487,5.487,0,0,1,4.279-.741,5.607,5.607,0,0,1,4.16,4.264,5.559,5.559,0,0,1-5.447,6.7Z"/><path class="d" d="M502.536,62.688a5.543,5.543,0,0,0,.523.438c-.23-.02-.46-.032-.69-.034a2.371,2.371,0,0,1,.167-.4m17.834,2.943a4.144,4.144,0,1,1-3.979,5.238,6.345,6.345,0,0,0-2.431-3.5,6.622,6.622,0,0,0,4.194-1.081,4.041,4.041,0,0,1,2.216-.662m-17.631-6.317a3.592,3.592,0,0,0-2.875,2.4c-.77,1.766-.441,3.611.736,4.126a2.05,2.05,0,0,0,.744.091c.246,0,.524-.012.812-.012a4.175,4.175,0,0,1,1.568.23c1.964.8,7.881,3.141,7.881,3.141a3.457,3.457,0,0,1,2.052,2.323A6.97,6.97,0,1,0,520.37,62.8a6.857,6.857,0,0,0-3.764,1.123,3.827,3.827,0,0,1-2.083.645,3.281,3.281,0,0,1-1.228-.234s-6-2.437-8.02-3.195c-1.09-.411-1.375-1.469-1.885-1.693A1.617,1.617,0,0,0,502.739,59.314Z"/><path class="f" d="M478.224,34.584c-2.932,0-5.685-1.591-5.685-2.544a2.181,2.181,0,0,1,1.236-1.69,5.309,5.309,0,0,0,2.728-4.525v-.781c0-2.929-.382-5.909-3.135-7.839a8.537,8.537,0,0,1-3.24-9.6,8.32,8.32,0,0,1,5.7-5.529,9.332,9.332,0,0,1,2.4-.323A8.49,8.49,0,0,1,483.1,17.2c-2.363,1.661-3.563,4.262-3.563,7.731v.891a5.309,5.309,0,0,0,2.728,4.525,2.193,2.193,0,0,1,1.234,1.69C483.493,33.044,481.133,34.584,478.224,34.584Z"/><path class="d" d="M478.224,3.172a7.073,7.073,0,0,1,4.058,12.867c-2.765,1.942-4.166,4.93-4.166,8.889v.894a6.782,6.782,0,0,0,3.4,5.731,2.209,2.209,0,0,1,.487.39,5.95,5.95,0,0,1-3.781,1.226,7.257,7.257,0,0,1-4.146-1.271,2.191,2.191,0,0,1,.439-.345,6.781,6.781,0,0,0,3.4-5.731v-.775c0-2.071,0-6.381-3.744-9a7.14,7.14,0,0,1-2.691-8.029,6.878,6.878,0,0,1,4.709-4.57,7.768,7.768,0,0,1,2.032-.277m0-2.83a10.6,10.6,0,0,0-2.773.376,9.711,9.711,0,0,0-6.682,6.492,9.959,9.959,0,0,0,3.781,11.156c2.224,1.556,2.536,3.967,2.536,6.681v.778a3.949,3.949,0,0,1-2.052,3.317,3.51,3.51,0,0,0-1.91,2.895c0,2.187,3.817,3.962,7.1,3.962s6.684-1.775,6.684-3.962A3.517,3.517,0,0,0,483,29.142a3.956,3.956,0,0,1-2.052-3.317v-.894c0-2.688.762-5.029,2.96-6.574A9.9,9.9,0,0,0,478.224.342Z"/><path class="e" d="M478.224,83.824a28.3,28.3,0,1,1,28.3-28.3A28.331,28.331,0,0,1,478.224,83.824Z"/><path class="d" d="M478.224,28.641A26.884,26.884,0,1,1,451.34,55.525a26.916,26.916,0,0,1,26.884-26.884m0-2.83a29.714,29.714,0,1,0,29.714,29.714A29.713,29.713,0,0,0,478.224,25.811Z"/><circle class="g" cx="472.564" cy="47.035" r="5.66"/><path class="h" d="M472.564,42.79a4.245,4.245,0,1,1-4.245,4.245,4.251,4.251,0,0,1,4.245-4.245m0-2.829a7.075,7.075,0,1,0,7.075,7.074A7.1,7.1,0,0,0,472.564,39.961Z"/><path class="g" d="M469.734,69.675a2.83,2.83,0,1,1,2.83-2.83A2.6,2.6,0,0,1,469.734,69.675Z"/><path class="h" d="M469.734,65.43c.979,0,1.415.436,1.415,1.415s-.436,1.415-1.415,1.415-1.415-.436-1.415-1.415.436-1.415,1.415-1.415m0-2.83a4.245,4.245,0,1,0,4.245,4.245A4.009,4.009,0,0,0,469.734,62.6Z"/><path class="g" d="M488.129,69.675a4.245,4.245,0,1,1,4.244-4.245A4.413,4.413,0,0,1,488.129,69.675Z"/><path class="h" d="M488.129,62.6a2.83,2.83,0,1,1-2.83,2.83,2.98,2.98,0,0,1,2.83-2.83m0-2.83a5.66,5.66,0,1,0,5.659,5.66A5.8,5.8,0,0,0,488.129,59.77Z"/></svg>