<?xml version="1.0" encoding="UTF-8" standalone="no"?>
<svg
   xmlns:dc="http://purl.org/dc/elements/1.1/"
   xmlns:cc="http://creativecommons.org/ns#"
   xmlns:rdf="http://www.w3.org/1999/02/22-rdf-syntax-ns#"
   xmlns:svg="http://www.w3.org/2000/svg"
   xmlns="http://www.w3.org/2000/svg"
   viewBox="0 0 575.60495 107.541"
   version="1.1"
   id="svg86"
   width="575.60498"
   height="107.541">
  <metadata
     id="metadata90">
    <rdf:RDF>
      <cc:Work
         rdf:about="">
        <dc:format>image/svg+xml</dc:format>
        <dc:type
           rdf:resource="http://purl.org/dc/dcmitype/StillImage" />
        <dc:title>Disinfection_Logo</dc:title>
      </cc:Work>
    </rdf:RDF>
  </metadata>
  <defs
     id="defs4">
    <style
       id="style2">.a{fill:#ffef7c;}.b{fill:#fff;}.c{fill:#99c99e;}.d{fill:#5e9c77;}.e{fill:#bbdcbc;}.f{fill:#daebd9;}.g{fill:#ffefa4;}.h{fill:#bb9c48;}</style>
  </defs>
  <title
     id="title6">Disinfection_Logo</title>
  <path
     class="a"
     d="m 19.749883,86.807 -3.339,1.057 q -7.9020003,1.059 -14.9680003,1.395 1.112,-3.12 5.9,-17.2 2.337,-7.011 7.2340003,-20.866 a 134.257,134.257 0 0 1 6.845,-14.58 q -1.5,0.948 -4.007,2.227 l -3.285,-15.245 a 135.913,135.913 0 0 1 19.813,-1.725 q 1.891,0 4.285,0.223 6.621,0.5 7.568,0.667 a 32.476,32.476 0 0 1 7.734,2.393 q 9.348,3.9 9.349,13.355 a 14.45,14.45 0 0 1 -0.39,3.394 q -3.789,32.498 -42.739,44.905 z m 9.348,-37.338 -8.736,23.761 q 11.129,-2.614 20.481,-12.186 7.512,-7.846 7.512,-16.248 0,-8.514 -3.283,-9.627 a 18.05,18.05 0 0 0 -5.954,-1.336 h -0.175 a 42.189,42.189 0 0 0 -9.682,1.336 l 4.952,2.5 q -0.668,1.168 -3.338,7.011 -0.497,1.396 -1.777,4.789 z"
     id="path8"
     style="stroke:#ffdc1a;stroke-width:2;stroke-miterlimit:4;stroke-dasharray:none;stroke-opacity:1" />
  <path
     class="a"
     d="m 65.042883,77.571 1.558,-5.064 q 0.5,-1.725 2.226,-7.067 a 216.177,216.177 0 0 1 8.458,-20.644 q 1.391,-3.284 4.451,-9.293 -4.841,0.78 -14.69,2.17 l 3.897,-13.355 q 7.012,-0.612 17.584,-1.447 11.073,-0.834 19.475997,-1 l -4.118,12.965 q -8.568997,0 -13.521997,0.167 l 3.84,2.114 q -1.337,2.56 -3.339,7.68 -2.559,6.288 -7.067,20.644 -1.614,5.287 -3.06,10.962 1.446,-0.055 4.952,-0.278 l 6.9,-0.223 -4.118,12.964 q -10.406,0 -13.577,0.167 -5.121,0.39 -23.26,2.727 l 3.9,-13.411 4.451,-0.445 q 1.943,-0.111 5.058,-0.333 z"
     id="path10"
     style="stroke:#ffdc1a;stroke-width:2;stroke-miterlimit:4;stroke-dasharray:none;stroke-opacity:1" />
  <path
     class="a"
     d="m 133.43188,34.501 a 36.077,36.077 0 0 0 -6.288,0.668 q -6.567,1.559 -9.348,5.342 a 4.744,4.744 0 0 0 -0.946,2.782 q 0,2.45 2.56,6.121 a 61.659,61.659 0 0 1 3.894,6.01 q 3.115,7.29 3.117,11.351 v 1.113 q -0.891,10.071 -11.578,17.139 -5.787,3.9 -18.699997,7.122 l -3.109,-16.638 a 43.935,43.935 0 0 0 8.791997,-1.947 q 9.236,-3.172 9.237,-8.458 V 64.55 a 13.353,13.353 0 0 0 -1.725,-6.01 q -0.947,-1.391 -3.283,-5.119 -4.173,-6.623 -4.174,-11.463 0,-10.35 7.735,-14.913 5.955,-3.45 17.918,-6.455 z"
     id="path12"
     style="stroke:#ffdc1a;stroke-width:2;stroke-miterlimit:4;stroke-dasharray:none;stroke-opacity:1" />
  <path
     class="b"
     d="m 138.27288,77.571 1.559,-5.064 q 0.5,-1.725 2.225,-7.067 a 216.708,216.708 0 0 1 8.458,-20.644 q 1.39,-3.284 4.451,-9.293 -4.839,0.78 -14.689,2.17 l 3.9,-13.355 q 7.011,-0.612 17.584,-1.447 11.072,-0.834 19.475,-1 l -4.117,12.965 q -8.571,0 -13.523,0.167 l 3.84,2.114 q -1.335,2.56 -3.339,7.68 -2.559,6.288 -7.066,20.644 -1.614,5.287 -3.061,10.962 1.446,-0.055 4.953,-0.278 l 6.9,-0.223 -4.118,12.965 q -10.407,0 -13.577,0.167 -5.121,0.39 -23.26,2.727 l 3.895,-13.411 4.452,-0.445 q 1.94,-0.112 5.058,-0.334 z"
     id="path14"
     style="stroke:#e5e5e5;stroke-width:2;stroke-miterlimit:4;stroke-dasharray:none;stroke-opacity:1" />
  <path
     class="b"
     d="m 183.17788,23.372 16.365,-3.673 a 306.235,306.235 0 0 1 6.956,36.17 q 0.278,0 2,-4.118 l 1.781,-4.34 q 2.892,-6.789 12.742,-24.6 l 1.836,-0.167 q 5.008,-0.612 11.574,-1 -5.953,10.851 -12.575,25.764 -2.337,5.4 -6.956,20.644 -1.279,4.062 -4.841,16.36 l -16.917,4.12 a 13.738,13.738 0 0 0 0.223,-2.893 178.13,178.13 0 0 0 -2.393,-25.374 q -0.889,-6.231 -1.558,-6.233 l -5.844,14.027 a 62.355,62.355 0 0 0 -4.841,17.918 l -16.86,4.173 q 2.949,-10.9 6.622,-22.091 a 211.5,211.5 0 0 1 8.4,-20.644 q 2.448,-5.343 6.788,-13.355 a 4.48,4.48 0 0 0 0.279,-1.336 15.448,15.448 0 0 0 -1.168,-4.618 q -1.448,-4.064 -1.613,-4.734 z"
     id="path16"
     style="stroke:#e5e5e5;stroke-width:2;stroke-miterlimit:4;stroke-dasharray:none;stroke-opacity:1" />
  <path
     class="b"
     d="m 229.19688,87.976 q -7.345,0.78 -16.693,2.393 v -0.167 q 0,-0.612 2.336,-8.959 2.783,-9.683 4.953,-15.8 3.674,-10.239 8.346,-20.644 1.782,-3.9 4.007,-8.125 -4.73,0.5 -8.848,1 l 3.952,-13.355 q 9.236,-0.721 22.09,-1.447 7.68,-0.444 24.818,-1 l -4.115,12.963 h -5.119 q -14.413,0 -22.538,0.668 l 2.783,1.613 q -0.667,1.449 -3.283,7.68 -0.723,1.614 -1.614,3.783 l 19.2,-0.723 -4.061,11.63 -18.919,0.668 q -1,3.283 -1.614,5.119 a 120.942,120.942 0 0 0 -5.681,22.703 z"
     id="path18"
     style="stroke:#e5e5e5;stroke-width:2;stroke-miterlimit:4;stroke-dasharray:none;stroke-opacity:1" />
  <path
     class="b"
     d="m 314.94288,21.87 -4.117,12.965 h -5.12 q -14.414,0 -22.537,0.668 l 2.783,1.613 q -0.669,1.449 -3.283,7.68 -0.724,1.614 -1.614,3.783 l 19.2,-0.723 -4.062,11.63 -18.92,0.668 q -2.058,6.066 -4.507,15.413 7.734,-0.444 23.149,-1.168 l -4.23,12.854 h -9.57 q -9.8,0 -28.824,3.116 v -0.167 q 0,-0.612 2.337,-8.959 2.781,-9.683 4.952,-15.8 3.672,-10.239 8.346,-20.644 1.782,-3.9 4.007,-8.125 -4.729,0.5 -8.847,1 l 3.957,-13.356 q 9.236,-0.721 22.091,-1.447 7.674,-0.444 24.809,-1.001 z"
     id="path20"
     style="stroke:#e5e5e5;stroke-width:2;stroke-miterlimit:4;stroke-dasharray:none;stroke-opacity:1" />
  <path
     class="b"
     d="m 352.67288,79.685 q -9.293,10.406 -23.816,10.406 -11.74,0 -18.307,-8.57 -6.066,-7.9 -6.065,-20.533 0,-2.726 0.278,-5.787 a 38.372,38.372 0 0 1 11.185,-23.371 q 9.96,-9.96 22.759,-9.96 19.308,0 27.321,13.855 l -16.805,8.57 a 11.917,11.917 0 0 0 -11.63,-7.4 18.711,18.711 0 0 0 -13.855,5.62 q -5.231,5.4 -6.511,14.3 a 26.883,26.883 0 0 0 -0.277,3.506 17.864,17.864 0 0 0 3.727,11.407 12.143,12.143 0 0 0 10.073,5.063 15.809,15.809 0 0 0 11.851,-5.453 z"
     id="path22"
     style="stroke:#e5e5e5;stroke-width:2;stroke-miterlimit:4;stroke-dasharray:none;stroke-opacity:1" />
  <path
     class="b"
     d="m 418.83588,21.87 -4.119,12.965 h -5.341 q -7.846,0 -13.578,0.167 l 3.895,2.114 q -4.284,8.181 -10.461,28.324 -2.226,7.624 -5.564,20.756 l -0.446,0.166 q -6.009,1.114 -16.415,4.007 3.284,-12.465 7.512,-24.929 a 208.742,208.742 0 0 1 8.458,-20.644 q 1.337,-3.172 4.452,-9.293 -8.46,0.78 -19.253,2.17 l 3.95,-13.355 q 9.682,-0.721 22.091,-1.447 7.626,-0.444 24.819,-1.001 z"
     id="path24"
     style="stroke:#e5e5e5;stroke-width:2;stroke-miterlimit:4;stroke-dasharray:none;stroke-opacity:1" />
  <path
     class="b"
     d="m 414.04888,77.571 1.559,-5.064 q 0.5,-1.725 2.226,-7.067 a 216.177,216.177 0 0 1 8.458,-20.644 q 1.389,-3.284 4.451,-9.293 -4.841,0.78 -14.69,2.17 l 3.895,-13.355 q 7.013,-0.612 17.584,-1.447 11.073,-0.834 19.475,-1 l -4.117,12.965 q -8.571,0 -13.522,0.167 l 3.84,2.114 q -1.336,2.56 -3.339,7.68 -2.559,6.288 -7.067,20.644 -1.614,5.287 -3.06,10.962 1.446,-0.055 4.952,-0.278 l 6.9,-0.223 -4.118,12.965 q -10.406,0 -13.577,0.167 -5.121,0.39 -23.26,2.727 l 3.9,-13.411 4.451,-0.445 q 1.943,-0.112 5.059,-0.334 z"
     id="path26"
     style="stroke:#e5e5e5;stroke-width:2;stroke-miterlimit:4;stroke-dasharray:none;stroke-opacity:1" />
  <path
     class="b"
     d="m 520.60888,23.372 16.359,-3.673 a 306.032,306.032 0 0 1 6.956,36.17 q 0.279,0 2,-4.118 l 1.782,-4.34 q 2.891,-6.789 12.742,-24.6 l 1.836,-0.167 q 5.008,-0.612 11.574,-1 -5.955,10.851 -12.575,25.764 -2.338,5.4 -6.956,20.644 -1.281,4.062 -4.841,16.36 l -16.913,4.12 a 13.807,13.807 0 0 0 0.223,-2.893 178.13,178.13 0 0 0 -2.393,-25.374 q -0.891,-6.231 -1.559,-6.233 l -5.842,14.027 a 62.322,62.322 0 0 0 -4.841,17.918 l -16.861,4.173 q 2.949,-10.9 6.622,-22.091 a 211.79,211.79 0 0 1 8.4,-20.644 q 2.448,-5.343 6.788,-13.355 a 4.5,4.5 0 0 0 0.278,-1.336 15.417,15.417 0 0 0 -1.168,-4.618 q -1.446,-4.064 -1.611,-4.734 z"
     id="path28"
     style="stroke:#e5e5e5;stroke-width:2;stroke-miterlimit:4;stroke-dasharray:none;stroke-opacity:1" />
  <path
     class="c"
     d="m 505.44288,97.633 a 8.156,8.156 0 0 1 -7.884,-10.352 15.549,15.549 0 0 0 -1.033,-10.482 l -6.173,-13.878 4.426,-1.967 c 1.468,3.356 5.368,12.254 6.987,15.692 1.55,3.305 4.728,4.517 6.627,5.241 a 8.784,8.784 0 0 1 1.206,0.509 8.239,8.239 0 0 1 4.027,7.053 8.186,8.186 0 0 1 -8.183,8.184 z"
     id="path30" />
  <path
     class="d"
     d="m 494.05388,62.825 c 1.732,3.956 4.967,11.305 6.43,14.421 1.794,3.82 5.3,5.159 7.4,5.957 0.356,0.136 0.846,0.323 0.993,0.407 a 6.773,6.773 0 0 1 -3.434,12.608 6.742,6.742 0 0 1 -6.523,-8.55 16.961,16.961 0 0 0 -1.1,-11.446 l -5.597,-12.585 1.831,-0.812 m 1.455,-3.744 -7.021,3.121 6.743,15.171 a 14.089,14.089 0 0 1 0.965,9.52 9.582,9.582 0 0 0 6.792,11.852 10.186,10.186 0 0 0 2.451,0.3 9.6,9.6 0 0 0 4.879,-17.874 c -1.43,-0.846 -5.55,-1.466 -7.273,-5.134 -2.012,-4.278 -7.536,-16.956 -7.536,-16.956 z"
     id="path32" />
  <path
     class="c"
     d="m 490.98588,38.411 3.314,-4.143 a 12.768,12.768 0 0 0 3.014,-9.548 8.019,8.019 0 0 1 0.413,-3.682 8.122,8.122 0 0 1 5.615,-5.218 8.241,8.241 0 0 1 10.284,7.726 8.38,8.38 0 0 1 -3.371,6.438 8.423,8.423 0 0 1 -3.486,1.814 13.791,13.791 0 0 0 -8.012,4.675 l -3.976,4.969 z"
     id="path34" />
  <path
     class="d"
     d="m 505.44288,16.98 a 6.812,6.812 0 0 1 6.772,6.6 6.978,6.978 0 0 1 -2.85,5.306 7.028,7.028 0 0 1 -2.895,1.528 15.207,15.207 0 0 0 -8.815,5.176 l -3.097,3.869 -1.582,-1.264 2.431,-3.04 a 14.182,14.182 0 0 0 3.314,-10.612 6.6,6.6 0 0 1 0.345,-3.036 6.769,6.769 0 0 1 4.618,-4.308 7.491,7.491 0 0 1 1.759,-0.219 m 0,-2.83 a 10.188,10.188 0 0 0 -2.434,0.3 9.574,9.574 0 0 0 -6.616,6.127 9.389,9.389 0 0 0 -0.478,4.327 11.491,11.491 0 0 1 -2.717,8.484 l -4.2,5.247 6,4.8 4.859,-6.075 a 12.4,12.4 0 0 1 7.208,-4.18 9.745,9.745 0 0 0 4.078,-2.1 9.748,9.748 0 0 0 3.894,-7.57 9.6,9.6 0 0 0 -9.594,-9.36 z"
     id="path36" />
  <path
     class="c"
     d="m 446.58188,51.084 a 9.422,9.422 0 0 0 -2.077,-0.235 7.83,7.83 0 0 0 -3.848,0.967 4.089,4.089 0 0 1 -2.027,0.532 4.245,4.245 0 0 1 0,-8.484 4.2,4.2 0 0 1 3.226,1.509 9.311,9.311 0 0 0 5.2,2.917 l 15.358,3.427 -0.614,2.762 z"
     id="path38" />
  <path
     class="d"
     d="m 438.62788,45.279 a 2.786,2.786 0 0 1 2.142,1.005 10.655,10.655 0 0 0 5.923,3.375 10.837,10.837 0 0 0 -2.185,-0.223 9.294,9.294 0 0 0 -4.547,1.146 2.685,2.685 0 0 1 -1.333,0.348 2.825,2.825 0 1 1 0,-5.649 m 0,-2.83 a 5.657,5.657 0 0 0 0,11.309 5.532,5.532 0 0 0 2.716,-0.711 6.425,6.425 0 0 1 3.161,-0.783 8.262,8.262 0 0 1 1.769,0.2 l 16.6,3.7 1.231,-5.521 -16.739,-3.736 a 7.911,7.911 0 0 1 -4.426,-2.442 5.616,5.616 0 0 0 -4.312,-2.018 z"
     id="path40" />
  <path
     class="c"
     d="m 458.54288,94.803 a 4.347,4.347 0 0 1 -1.216,-8.518 7.537,7.537 0 0 0 3.946,-2.826 c 1.845,-2.7 6.46,-9.239 8.336,-11.894 l 2.4,1.681 c -1.766,2.488 -5.923,8.354 -8.082,11.532 -0.911,1.347 -1.033,3.588 -1.033,5.6 a 4.376,4.376 0 0 1 -4.329,4.421 z"
     id="path42" />
  <path
     class="d"
     d="m 469.95188,73.536 0.079,0.054 q -3.678,5.169 -7.276,10.4 c -1.129,1.664 -1.282,4.165 -1.279,6.469 a 2.927,2.927 0 1 1 -3.755,-2.816 8.871,8.871 0 0 0 4.715,-3.379 c 1.6,-2.337 5.348,-7.655 7.516,-10.725 m -0.685,-3.936 c 0,0 -6.814,9.632 -9.163,13.056 a 6.068,6.068 0 0 1 -3.17,2.261 5.765,5.765 0 1 0 7.372,5.533 c 0,-0.988 -0.022,-3.682 0.79,-4.879 q 4.395,-6.369 8.888,-12.669 z"
     id="path44" />
  <path
     class="e"
     d="m 454.94288,34.05 a 12.86,12.86 0 0 0 -7.918,-5.037 8.516,8.516 0 0 1 -6.882,-6.834 8.186,8.186 0 0 1 6.833,-9.346 8.055,8.055 0 0 1 1.26,-0.1 8.716,8.716 0 0 1 1.956,0.223 8.2,8.2 0 0 1 5.815,5.4 8.1,8.1 0 0 1 0.34,3.642 12.938,12.938 0 0 0 2.926,9.7 l 14.97,19.261 -3.829,2.983 z"
     id="path46" />
  <path
     class="d"
     d="m 448.23488,14.15 a 7.424,7.424 0 0 1 1.639,0.19 6.791,6.791 0 0 1 5.068,7.465 14.345,14.345 0 0 0 3.212,10.774 l 14.1,18.134 -1.6,1.242 -14.6,-18.771 a 14.286,14.286 0 0 0 -8.8,-5.566 6.776,6.776 0 0 1 -1.919,-0.634 6.89,6.89 0 0 1 -3.8,-5.006 6.774,6.774 0 0 1 6.693,-7.828 m 0,-2.829 a 9.6,9.6 0 0 0 -9.485,11.067 9.742,9.742 0 0 0 5.337,7.126 9.567,9.567 0 0 0 2.722,0.894 11.511,11.511 0 0 1 7.027,4.511 l 16.337,21.006 6.062,-4.717 -15.841,-20.367 a 11.672,11.672 0 0 1 -2.643,-8.639 9.488,9.488 0 0 0 -0.394,-4.271 9.6,9.6 0 0 0 -6.845,-6.35 10.146,10.146 0 0 0 -2.27,-0.26 z"
     id="path48" />
  <path
     class="e"
     d="m 440.08488,80.653 a 5.7,5.7 0 0 1 -1.551,-11.189 6.283,6.283 0 0 1 1.554,-0.2 5.635,5.635 0 0 1 3.008,0.863 9.012,9.012 0 0 0 4.788,1.418 8.183,8.183 0 0 0 2.536,-0.4 l 13.156,-4.27 0.773,2.377 -13.406,4.349 a 13.159,13.159 0 0 0 -6.324,4.8 5.66,5.66 0 0 1 -4.534,2.252 z"
     id="path50" />
  <path
     class="d"
     d="m 440.08488,70.675 a 4.226,4.226 0 0 1 2.255,0.648 10.428,10.428 0 0 0 5.539,1.633 9.481,9.481 0 0 0 1.027,-0.054 15.4,15.4 0 0 0 -5.417,4.644 4.285,4.285 0 0 1 -7.581,-3.571 4.217,4.217 0 0 1 4.177,-3.3 m 24.4,-5.586 -14.5,4.706 a 6.822,6.822 0 0 1 -2.1,0.331 7.6,7.6 0 0 1 -4.033,-1.2 7.111,7.111 0 0 0 -10.7,4.454 7.114,7.114 0 0 0 12.591,5.879 11.814,11.814 0 0 1 5.634,-4.313 l 14.75,-4.788 z"
     id="path52" />
  <path
     class="e"
     d="m 496.39688,49.185 4.372,-1.118 c 3.951,-1.005 8.926,-2.273 11.5,-2.966 1.738,-0.464 3.1,-1.044 4.7,-4.3 a 4.317,4.317 0 0 1 3.843,-2.6 4.137,4.137 0 1 1 -0.835,8.19 24.693,24.693 0 0 0 -5.034,-0.6 13.99,13.99 0 0 0 -3.5,0.419 l -14.825,3.829 z"
     id="path54" />
  <path
     class="d"
     d="m 520.81088,39.62 a 2.722,2.722 0 1 1 -0.549,5.385 30.314,30.314 0 0 0 -3.979,-0.58 12.191,12.191 0 0 0 1.953,-3 3.035,3.035 0 0 1 2.575,-1.8 m 0,-2.83 a 5.759,5.759 0 0 0 -5.114,3.39 c -1.395,2.835 -2.383,3.181 -3.792,3.557 -4.692,1.259 -17.367,4.435 -17.228,4.443 l 0.925,3.586 16.2,-4.177 a 12.508,12.508 0 0 1 3.147,-0.377 23.849,23.849 0 0 1 4.746,0.566 5.549,5.549 0 1 0 1.118,-10.988 z"
     id="path56" />
  <path
     class="f"
     d="m 479.66988,106.119 a 9.139,9.139 0 0 1 -2.372,-0.316 8.333,8.333 0 0 1 -5.793,-5.757 8.422,8.422 0 0 1 3.662,-9.57 9.7,9.7 0 0 0 4.924,-8.218 v -0.5 a 6.6,6.6 0 0 0 -0.786,-2.906 3.243,3.243 0 0 1 -0.215,-0.5 c 0.011,-0.365 1.027,-1.1 2.558,-1.1 1.531,0 2.544,0.739 2.544,1.228 l -0.272,0.668 a 7.523,7.523 0 0 0 -0.719,2.771 v 1.964 a 13.173,13.173 0 0 0 3.014,8.393 8.27,8.27 0 0 1 1.939,5.354 8.477,8.477 0 0 1 -8.484,8.484 z"
     id="path58" />
  <path
     class="d"
     d="m 481.64788,78.672 a 2.84,2.84 0 0 1 0.886,0.136 8.358,8.358 0 0 0 -0.745,3.113 v 1.964 a 14.569,14.569 0 0 0 3.342,9.3 6.9,6.9 0 0 1 1.611,4.452 7.083,7.083 0 0 1 -7.075,7.074 7.743,7.743 0 0 1 -2,-0.269 6.9,6.9 0 0 1 -4.794,-4.762 7.034,7.034 0 0 1 3.042,-8 11.253,11.253 0 0 0 5.589,-9.25 v 0 -0.671 a 7.341,7.341 0 0 0 -0.676,-2.975 2.956,2.956 0 0 1 0.818,-0.113 m 0,-2.83 c -2.188,0 -3.962,1.183 -3.962,2.641 0,0.656 0.99,1.74 0.99,3.277 v 0.5 a 8.373,8.373 0 0 1 -4.253,7.018 9.87,9.87 0 0 0 -4.282,11.144 9.754,9.754 0 0 0 6.792,6.755 10.536,10.536 0 0 0 2.734,0.365 9.9,9.9 0 0 0 9.905,-9.9 9.739,9.739 0 0 0 -2.264,-6.257 11.71,11.71 0 0 1 -2.689,-7.488 v -1.972 c 0,-1.257 0.991,-2.782 0.991,-3.439 0.002,-1.46 -1.773,-2.643 -3.96,-2.643 z"
     id="path60" />
  <path
     class="f"
     d="m 521.81288,74.993 a 5.554,5.554 0 0 1 -5.346,-4.092 4.895,4.895 0 0 0 -2.889,-3.265 c -0.006,0 -5.912,-2.332 -7.87,-3.136 a 5.625,5.625 0 0 0 -2.109,-0.334 l -0.883,0.011 a 1.285,1.285 0 0 1 -0.223,-0.014 2.441,2.441 0 0 1 0.113,-2.221 c 0.459,-1.047 1.206,-1.542 1.571,-1.548 a 1.507,1.507 0 0 0 0.1,0.141 4.314,4.314 0 0 0 1.947,1.594 c 2.012,0.755 7.983,3.18 7.983,3.18 a 4.691,4.691 0 0 0 1.76,0.34 5.189,5.189 0 0 0 2.855,-0.88 5.487,5.487 0 0 1 4.279,-0.741 5.607,5.607 0 0 1 4.16,4.264 5.559,5.559 0 0 1 -5.447,6.7 z"
     id="path62" />
  <path
     class="d"
     d="m 503.97888,62.347 a 5.543,5.543 0 0 0 0.523,0.438 c -0.23,-0.02 -0.46,-0.032 -0.69,-0.034 a 2.371,2.371 0 0 1 0.167,-0.4 m 17.834,2.943 a 4.144,4.144 0 1 1 -3.979,5.238 6.345,6.345 0 0 0 -2.431,-3.5 6.622,6.622 0 0 0 4.194,-1.081 4.041,4.041 0 0 1 2.216,-0.662 m -17.631,-6.317 a 3.592,3.592 0 0 0 -2.875,2.4 c -0.77,1.766 -0.441,3.611 0.736,4.126 a 2.05,2.05 0 0 0 0.744,0.091 c 0.246,0 0.524,-0.012 0.812,-0.012 a 4.175,4.175 0 0 1 1.568,0.23 c 1.964,0.8 7.881,3.141 7.881,3.141 a 3.457,3.457 0 0 1 2.052,2.323 6.97,6.97 0 1 0 6.713,-8.812 6.857,6.857 0 0 0 -3.764,1.123 3.827,3.827 0 0 1 -2.083,0.645 3.281,3.281 0 0 1 -1.228,-0.234 c 0,0 -6,-2.437 -8.02,-3.195 -1.09,-0.411 -1.375,-1.469 -1.885,-1.693 a 1.617,1.617 0 0 0 -0.651,-0.132 z"
     id="path64" />
  <path
     class="f"
     d="m 479.66688,34.243 c -2.932,0 -5.685,-1.591 -5.685,-2.544 a 2.181,2.181 0 0 1 1.236,-1.69 5.309,5.309 0 0 0 2.728,-4.525 v -0.781 c 0,-2.929 -0.382,-5.909 -3.135,-7.839 a 8.537,8.537 0 0 1 -3.24,-9.6 8.32,8.32 0 0 1 5.7,-5.529 9.332,9.332 0 0 1 2.4,-0.323 8.49,8.49 0 0 1 4.872,15.447 c -2.363,1.661 -3.563,4.262 -3.563,7.731 v 0.891 a 5.309,5.309 0 0 0 2.728,4.525 2.193,2.193 0 0 1 1.234,1.69 c -0.006,1.007 -2.366,2.547 -5.275,2.547 z"
     id="path66" />
  <path
     class="d"
     d="m 479.66688,2.831 a 7.073,7.073 0 0 1 4.058,12.867 c -2.765,1.942 -4.166,4.93 -4.166,8.889 v 0.894 a 6.782,6.782 0 0 0 3.4,5.731 2.209,2.209 0 0 1 0.487,0.39 5.95,5.95 0 0 1 -3.781,1.226 7.257,7.257 0 0 1 -4.146,-1.271 2.191,2.191 0 0 1 0.439,-0.345 6.781,6.781 0 0 0 3.4,-5.731 v -0.775 c 0,-2.071 0,-6.381 -3.744,-9 a 7.14,7.14 0 0 1 -2.691,-8.029 6.878,6.878 0 0 1 4.709,-4.57 7.768,7.768 0 0 1 2.032,-0.277 m 0,-2.83 a 10.6,10.6 0 0 0 -2.773,0.376 9.711,9.711 0 0 0 -6.682,6.492 9.959,9.959 0 0 0 3.781,11.156 c 2.224,1.556 2.536,3.967 2.536,6.681 v 0.778 a 3.949,3.949 0 0 1 -2.052,3.317 3.51,3.51 0 0 0 -1.91,2.895 c 0,2.187 3.817,3.962 7.1,3.962 3.283,0 6.684,-1.775 6.684,-3.962 a 3.517,3.517 0 0 0 -1.905,-2.894 3.956,3.956 0 0 1 -2.052,-3.317 V 24.59 c 0,-2.688 0.762,-5.029 2.96,-6.574 a 9.9,9.9 0 0 0 -5.684,-18.015 z"
     id="path68" />
  <path
     class="e"
     d="m 479.66688,83.483 a 28.3,28.3 0 1 1 28.3,-28.3 28.331,28.331 0 0 1 -28.3,28.3 z"
     id="path70" />
  <path
     class="d"
     d="m 479.66688,28.3 a 26.884,26.884 0 1 1 -26.884,26.884 26.916,26.916 0 0 1 26.884,-26.884 m 0,-2.83 a 29.714,29.714 0 1 0 29.714,29.714 29.713,29.713 0 0 0 -29.714,-29.714 z"
     id="path72" />
  <circle
     class="g"
     cx="474.00687"
     cy="46.694"
     r="5.6599998"
     id="circle74" />
  <path
     class="h"
     d="m 474.00688,42.449 a 4.245,4.245 0 1 1 -4.245,4.245 4.251,4.251 0 0 1 4.245,-4.245 m 0,-2.829 a 7.075,7.075 0 1 0 7.075,7.074 7.1,7.1 0 0 0 -7.075,-7.074 z"
     id="path76" />
  <path
     class="g"
     d="m 471.17688,69.334 a 2.83,2.83 0 1 1 2.83,-2.83 2.6,2.6 0 0 1 -2.83,2.83 z"
     id="path78" />
  <path
     class="h"
     d="m 471.17688,65.089 c 0.979,0 1.415,0.436 1.415,1.415 0,0.979 -0.436,1.415 -1.415,1.415 -0.979,0 -1.415,-0.436 -1.415,-1.415 0,-0.979 0.436,-1.415 1.415,-1.415 m 0,-2.83 a 4.245,4.245 0 1 0 4.245,4.245 4.009,4.009 0 0 0 -4.245,-4.245 z"
     id="path80" />
  <path
     class="g"
     d="m 489.57188,69.334 a 4.245,4.245 0 1 1 4.244,-4.245 4.413,4.413 0 0 1 -4.244,4.245 z"
     id="path82" />
  <path
     class="h"
     d="m 489.57188,62.259 a 2.83,2.83 0 1 1 -2.83,2.83 2.98,2.98 0 0 1 2.83,-2.83 m 0,-2.83 a 5.66,5.66 0 1 0 5.659,5.66 5.8,5.8 0 0 0 -5.659,-5.66 z"
     id="path84" />
</svg>
