<?xml version="1.0" encoding="UTF-8" standalone="no"?>
<svg
   xmlns:dc="http://purl.org/dc/elements/1.1/"
   xmlns:cc="http://creativecommons.org/ns#"
   xmlns:rdf="http://www.w3.org/1999/02/22-rdf-syntax-ns#"
   xmlns:svg="http://www.w3.org/2000/svg"
   xmlns="http://www.w3.org/2000/svg"
   viewBox="0 0 346.563 101.777"
   version="1.1"
   id="svg44">
  <metadata
     id="metadata48">
    <rdf:RDF>
      <cc:Work
         rdf:about="">
        <dc:format>image/svg+xml</dc:format>
        <dc:type
           rdf:resource="http://purl.org/dc/dcmitype/StillImage" />
        <dc:title>KM_Logo</dc:title>
      </cc:Work>
    </rdf:RDF>
  </metadata>
  <defs
     id="defs4">
    <style
       id="style2">.a{fill:#009777;}.b{fill:#3c3c3b;}.c{fill:#1a1a1a;}</style>
  </defs>
  <title
     id="title6">KM_Logo</title>
  <polygon
     class="a"
     points="0,51.107 14.909,76.609 36.679,76.609 21.77,51.107 36.685,25.472 14.915,25.472 "
     id="polygon8"
     style="fill:#ffffff"
     transform="scale(0.99989325,0.99999583)" />
  <polygon
     class="b"
     points="32.655,51.107 47.564,76.609 69.334,76.609 54.425,51.107 69.34,25.472 47.57,25.472 "
     id="polygon10"
     style="fill:#ffffff"
     transform="scale(0.99989325,0.99999583)" />
  <polygon
     class="b"
     points="71.765,80.906 84.288,101.777 29.623,101.777 17.421,80.906 "
     id="polygon12"
     style="fill:#ffffff"
     transform="scale(0.99989325,0.99999583)" />
  <polygon
     class="a"
     points="71.845,21.175 84.288,0.437 29.623,0.437 17.499,21.175 "
     id="polygon14"
     style="fill:#ffffff"
     transform="scale(0.99989325,0.99999583)" />
  <path
     class="a"
     d="m 162.78262,16.099933 q 3.89958,3.518985 3.89958,10.616956 v 19.482918 h -7.39921 v -4.044983 a 9.0550333,9.0559622 0 0 1 -4.09956,3.330986 15.944298,15.945934 0 0 1 -6.29933,1.152996 15.652329,15.653935 0 0 1 -6.59929,-1.276995 10.098922,10.099958 0 0 1 -4.29954,-3.548985 9.0060385,9.0069624 0 0 1 -1.49984,-5.136979 8.8050599,8.8059633 0 0 1 3.29965,-7.19297 q 3.29964,-2.708989 10.49888,-2.707989 h 8.59908 V 26.27489 a 6.8112728,6.8119716 0 0 0 -2.09978,-5.353977 q -2.09977,-1.868992 -6.19934,-1.867992 a 17.860093,17.861926 0 0 0 -5.49941,0.871996 13.537555,13.538944 0 0 0 -4.59951,2.42799 l -2.99968,-5.666977 a 18.889983,18.891921 0 0 1 6.29933,-3.049987 27.975013,27.977883 0 0 1 7.69918,-1.058995 q 7.39921,10e-4 11.29879,3.522985 z m -7.09924,23.537902 a 7.2992207,7.2999696 0 0 0 3.19966,-3.829984 v -3.864984 h -7.99915 q -6.79927,0 -6.79927,4.421981 a 3.9645767,3.9649835 0 0 0 1.69982,3.360986 7.699178,7.6999679 0 0 0 4.69949,1.244995 10.056926,10.057958 0 0 0 5.19945,-1.336994 z"
     id="path16"
     style="fill:#ffffff;stroke-width:0.999945" />
  <path
     class="a"
     d="m 176.58115,0 h 7.79917 v 46.199807 h -7.79917 z"
     id="path18"
     style="fill:#ffffff;stroke-width:0.999945" />
  <path
     class="a"
     d="m 225.7759,32.067866 h -26.09722 a 9.0440344,9.0449623 0 0 0 3.59962,5.821976 11.732747,11.733951 0 0 0 7.09924,2.146991 12.116706,12.117949 0 0 0 9.09903,-3.609985 l 4.09956,4.79398 a 14.0465,14.047941 0 0 1 -5.5994,4.046983 22.441604,22.443906 0 0 1 -17.39814,-0.808996 15.690325,15.691935 0 0 1 -6.39932,-6.070975 17.133171,17.134929 0 0 1 -2.29976,-8.810963 17.398143,17.399927 0 0 1 2.19977,-8.748964 15.674327,15.675935 0 0 1 6.09935,-6.070975 17.898089,17.899925 0 0 1 8.89905,-2.17899 17.437138,17.438927 0 0 1 8.69907,2.148991 15.205377,15.206937 0 0 1 5.89937,6.038974 18.316045,18.317924 0 0 1 2.19976,8.999963 q 0,0.806997 -0.1,2.30199 z M 202.77835,21.014912 a 9.2990072,9.2999612 0 0 0 -3.19966,5.883976 h 18.89798 a 9.17902,9.1799617 0 0 0 -3.09966,-5.852976 9.2830089,9.2839613 0 0 0 -6.29933,-2.24199 9.3989965,9.3999608 0 0 0 -6.29933,2.21099 z"
     id="path20"
     style="fill:#ffffff;stroke-width:0.999945" />
  <path
     class="a"
     d="m 262.272,16.251932 q 3.79959,3.673985 3.79959,10.899955 v 19.04792 h -7.79916 V 28.143883 q 0,-4.356982 -1.99979,-6.567973 a 7.5991887,7.5999683 0 0 0 -5.89937,-2.210991 8.9850407,8.9859625 0 0 0 -6.79927,2.583989 q -2.49974,2.58599 -2.49974,7.440969 v 16.80993 h -7.69918 V 12.950946 h 7.39921 v 4.299982 a 12.1807,12.181949 0 0 1 4.79949,-3.486985 17.491133,17.492927 0 0 1 6.5993,-1.182995 q 6.29932,-0.003 10.09892,3.670984 z"
     id="path22"
     style="fill:#ffffff;stroke-width:0.999945" />
  <path
     class="b"
     d="m 165.7823,61.707743 a 4.5905099,4.5909809 0 0 1 0,-6.662973 4.9994662,4.9999792 0 0 1 3.49963,-1.338994 5.1464506,5.1469785 0 0 1 3.59961,1.275995 4.1195602,4.1199828 0 0 1 1.39985,3.206986 4.6994983,4.6999804 0 0 1 -1.39985,3.456986 4.8494823,4.8499798 0 0 1 -3.49962,1.399994 4.9994662,4.9999792 0 0 1 -3.59962,-1.337994 z m -0.39996,6.816971 h 7.79917 v 33.251866 h -7.79917 z"
     id="path24"
     style="fill:#ffffff;stroke-width:0.999945" />
  <path
     class="b"
     d="m 189.37978,99.599585 a 16.004291,16.005933 0 0 1 -6.39932,-6.070975 17.938085,17.939925 0 0 1 0,-17.590927 16.121279,16.122933 0 0 1 6.39932,-6.039974 19.447924,19.449919 0 0 1 9.29901,-2.179991 17.944084,17.945925 0 0 1 8.59908,1.993991 12.930619,12.931946 0 0 1 5.5994,5.727976 l -5.99936,3.483986 a 9.5179838,9.5189603 0 0 0 -3.59961,-3.455986 10.449884,10.450956 0 0 0 -11.89873,1.680993 10.162915,10.163958 0 0 0 -2.89969,7.565969 10.223908,10.224957 0 0 0 2.89969,7.565968 10.498879,10.499956 0 0 0 11.89873,1.679993 9.487987,9.4889604 0 0 0 3.59961,-3.455985 l 5.99936,3.487985 a 13.477561,13.478944 0 0 1 -5.69939,5.759976 17.572124,17.573927 0 0 1 -8.49909,2.023996 19.490919,19.492919 0 0 1 -9.29901,-2.176995 z"
     id="path26"
     style="fill:#ffffff;stroke-width:0.999945" />
  <path
     class="b"
     d="m 248.1735,71.825701 q 3.7996,3.673984 3.7996,10.899954 v 19.053925 h -7.69918 V 83.718651 q 0,-4.358982 -2.09978,-6.568973 a 7.5991887,7.5999683 0 0 0 -5.79938,-2.21099 8.9850407,8.9859625 0 0 0 -6.79927,2.584989 q -2.49973,2.583989 -2.49973,7.439969 v 16.812934 h -7.79917 V 55.576768 h 7.79917 v 16.80993 a 12.64365,12.644947 0 0 1 4.6995,-3.144987 17.491133,17.492927 0 0 1 6.39931,-1.089995 q 6.19934,0 9.99893,3.673985 z"
     id="path28"
     style="fill:#ffffff;stroke-width:0.999945" />
  <path
     class="b"
     d="m 285.86948,71.233703 q 3.89958,3.518985 3.89958,10.616956 v 19.488921 h -7.39921 v -4.046986 a 9.0550333,9.0559622 0 0 1 -3.99957,3.330986 15.944298,15.945934 0 0 1 -6.39932,1.153 15.649329,15.650935 0 0 1 -6.59929,-1.277 10.098922,10.099958 0 0 1 -4.29954,-3.548984 9.0090382,9.0099624 0 0 1 -1.49984,-5.136979 8.7990606,8.7999633 0 0 1 3.29965,-7.19297 q 3.29964,-2.708989 10.49887,-2.707989 h 8.59909 v -0.499997 a 6.8112728,6.8119716 0 0 0 -2.09978,-5.353978 q -2.09978,-1.868992 -6.19934,-1.868992 a 17.89009,17.891925 0 0 0 -5.49941,0.871996 13.556553,13.557943 0 0 0 -4.59951,2.42899 l -2.99968,-5.666976 a 18.889983,18.891921 0 0 1 6.29933,-3.049988 27.970014,27.972883 0 0 1 7.69918,-1.059995 q 7.39921,0.001 11.29879,3.519985 z m -7.09924,23.536902 a 7.2892218,7.2899696 0 0 0 3.19966,-3.828984 v -3.861984 h -7.99915 q -6.79927,0 -6.79927,4.421981 a 3.9665765,3.9669835 0 0 0 1.69981,3.361986 7.699178,7.6999679 0 0 0 4.6995,1.244995 10.048927,10.049958 0 0 0 5.19945,-1.337994 z"
     id="path30"
     style="fill:#ffffff;stroke-width:0.999945" />
  <path
     class="b"
     d="m 331.16464,87.205636 h -26.09721 a 9.0430345,9.0439623 0 0 0 3.59962,5.820976 11.729748,11.730951 0 0 0 7.19923,2.147991 12.116706,12.117949 0 0 0 8.99904,-3.610985 l 4.19955,4.79398 a 14.038501,14.039941 0 0 1 -5.69939,4.047982 22.441604,22.443906 0 0 1 -17.39815,-0.808995 15.698324,15.699935 0 0 1 -6.39931,-6.070975 17.133171,17.134929 0 0 1 -2.29976,-8.810963 17.398143,17.399927 0 0 1 2.19977,-8.748964 15.687325,15.688935 0 0 1 6.19934,-6.070974 17.898089,17.899925 0 0 1 8.79906,-2.179991 17.445138,17.446927 0 0 1 8.69907,2.148991 15.214376,15.215937 0 0 1 5.99936,6.039975 18.316045,18.317924 0 0 1 2.09977,8.999962 q 0,0.806997 -0.1,2.30199 z M 308.1671,76.152682 a 9.2990072,9.2999612 0 0 0 -3.19966,5.883976 h 18.89798 a 9.1740206,9.1749617 0 0 0 -3.09967,-5.852976 9.2810091,9.2819613 0 0 0 -6.29932,-2.24199 9.3889976,9.3899608 0 0 0 -6.29933,2.21099 z"
     id="path32"
     style="fill:#ffffff;stroke-width:0.999945" />
  <path
     class="b"
     d="m 338.76383,55.573768 h 7.79917 v 46.199812 h -7.79917 z"
     id="path34"
     style="fill:#ffffff;stroke-width:0.999945" />
  <rect
     class="a"
     x="99.864342"
     width="7.7821693"
     height="20.737915"
     id="rect36"
     style="fill:#ffffff;stroke-width:0.999945"
     y="0" />
  <polygon
     class="a"
     points="123.772,12.951 107.645,27.895 107.645,25.035 99.861,25.035 99.861,46.202 107.645,46.202 107.645,37.423 113.435,31.943 124.955,46.202 134.42,46.202 119.226,26.899 133.112,12.951 "
     id="polygon38"
     style="fill:#ffffff"
     transform="scale(0.99989325,0.99999583)" />
  <path
     class="c"
     d="m 151.7838,71.793701 q -3.69961,-3.639985 -9.99894,-3.641985 a 17.210163,17.211928 0 0 0 -7.09924,1.462994 13.85952,13.860942 0 0 0 -5.29943,4.078983 10.763851,10.764955 0 0 0 -4.59951,-4.140983 15.041394,15.042937 0 0 0 -6.5993,-1.399994 15.863306,15.864934 0 0 0 -6.29933,1.182995 12.098708,12.09995 0 0 0 -4.5995,3.424986 v -4.235983 h -7.399214 v 7.999967 h 11.198804 a 8.5070918,8.5079645 0 0 1 5.19944,-1.587993 6.9612568,6.961971 0 0 1 5.49942,2.21099 q 1.99978,2.210991 1.99978,6.568973 v 18.057929 h 7.79917 V 84.899646 q 0,-4.79398 2.29976,-7.377969 a 8.111134,8.1119662 0 0 1 6.29932,-2.584989 6.9662563,6.966971 0 0 1 5.59941,2.21099 q 1.89979,2.210991 1.89979,6.568973 v 18.057929 h 7.79917 V 82.722655 q 0,-7.28697 -3.6996,-10.928954 z"
     id="path40"
     style="fill:#ffffff;stroke-width:0.999945" />
  <rect
     class="c"
     x="99.864342"
     y="80.823662"
     width="7.7821693"
     height="20.952911"
     id="rect42"
     style="fill:#ffffff;stroke-width:0.999945" />
</svg>
