<svg xmlns="http://www.w3.org/2000/svg" xmlns:xlink="http://www.w3.org/1999/xlink" version="1.1" x="0px" y="0px" viewBox="0 0 40 40" xml:space="preserve" width="40" height="40"><path d="M28.607 35.5a2.866 2.866 0 0 1-2.768-2.044 2.862 2.862 0 0 1-.018-1.614c.323-1.132.193-2.447-.365-3.704l-2.18-4.904 1.564-.695c.519 1.186 1.897 4.33 2.469 5.545.548 1.168 1.671 1.596 2.342 1.852.174.066.323.119.426.18a2.91 2.91 0 0 1 1.423 2.492c0 .772-.301 1.5-.848 2.046a2.872 2.872 0 0 1-2.045.846z" fill="#99C99E"/><path d="M24.584 23.2c.612 1.398 1.755 3.995 2.272 5.096.634 1.35 1.874 1.823 2.615 2.105.126.048.299.114.351.144A2.406 2.406 0 0 1 31 32.607 2.395 2.395 0 0 1 28.607 35a2.359 2.359 0 0 1-2.288-1.685 2.366 2.366 0 0 1-.017-1.336c.355-1.244.217-2.681-.389-4.045l-1.976-4.447.647-.287m.514-1.323l-2.481 1.103L25 28.341c.469 1.056.659 2.252.341 3.364a3.368 3.368 0 0 0 .019 1.892c.326 1.114 1.254 2.017 2.381 2.296.294.073.584.107.866.107a3.393 3.393 0 0 0 1.724-6.316c-.505-.299-1.961-.518-2.57-1.814-.711-1.514-2.663-5.993-2.663-5.993z" fill="#5E9C76"/><path d="M23.5 14.573l1.171-1.464c.832-1.04 1.211-2.238 1.065-3.374a2.83 2.83 0 0 1 .146-1.301c.318-.914 1.079-1.621 1.984-1.844A2.911 2.911 0 0 1 31.5 9.32c.02.802-.426 1.652-1.191 2.275-.421.342-.823.551-1.232.641-1.194.259-2.173.831-2.831 1.652l-1.405 1.756-1.341-1.071z" fill="#99C99E"/><path d="M28.607 7A2.407 2.407 0 0 1 31 9.332c.016.648-.361 1.349-1.007 1.875-.359.292-.693.468-1.023.54-1.308.285-2.385.918-3.115 1.829l-1.093 1.366-.559-.447.859-1.074c.918-1.147 1.333-2.479 1.171-3.75a2.334 2.334 0 0 1 .122-1.073c.259-.745.9-1.343 1.632-1.522.206-.05.415-.076.62-.076m0-1c-.28 0-.568.034-.86.106-1.082.266-1.972 1.113-2.338 2.165A3.32 3.32 0 0 0 25.24 9.8c.138 1.076-.282 2.151-.96 2.998l-1.484 1.854 2.121 1.696 1.717-2.147c.635-.793 1.554-1.261 2.547-1.477.447-.097.925-.321 1.441-.741.812-.66 1.402-1.629 1.376-2.675A3.392 3.392 0 0 0 28.607 6z" fill="#5E9C76"/><path d="M7.809 19.051a3.345 3.345 0 0 0-.734-.083c-.493 0-.964.118-1.36.342a1.448 1.448 0 0 1-.716.188 1.5 1.5 0 0 1-.001-2.998c.44 0 .856.194 1.14.533.419.499 1.054.855 1.839 1.031l5.427 1.211-.217.976-5.378-1.2z" fill="#99C99E"/><path d="M4.998 17c.292 0 .568.129.757.355.485.579 1.209.991 2.093 1.192a3.832 3.832 0 0 0-.772-.079c-.579 0-1.135.14-1.607.405a.95.95 0 0 1-.471.123.998.998 0 0 1 0-1.996m0-1a1.999 1.999 0 0 0 0 3.996c.35 0 .676-.092.96-.251a2.268 2.268 0 0 1 1.117-.277c.209 0 .419.025.625.07l5.865 1.309.435-1.951-5.914-1.32c-.593-.132-1.174-.397-1.564-.863A1.984 1.984 0 0 0 4.998 16z" fill="#5E9C76"/><path d="M12.036 34.5a1.536 1.536 0 0 1-.43-3.01A2.663 2.663 0 0 0 13 30.493c.652-.953 2.283-3.265 2.946-4.203l.848.594c-.624.879-2.093 2.952-2.856 4.075-.322.476-.365 1.268-.365 1.979a1.546 1.546 0 0 1-1.537 1.562z" fill="#99C99E"/><path d="M16.067 26.985l.028.019a286.95 286.95 0 0 0-2.571 3.674c-.399.588-.453 1.472-.452 2.286 0 .571-.465 1.036-1.036 1.036a1.037 1.037 0 0 1-.291-2.031 3.136 3.136 0 0 0 1.666-1.194c.567-.826 1.89-2.705 2.656-3.79m-.242-1.391s-2.408 3.405-3.238 4.616a2.145 2.145 0 0 1-1.12.799 2.037 2.037 0 1 0 2.605 1.955c0-.349-.008-1.301.279-1.724a352.06 352.06 0 0 1 3.141-4.477l-1.667-1.169z" fill="#5E9C76"/><path d="M10.764 13.032c-.76-.978-1.754-1.61-2.798-1.78a2.94 2.94 0 0 1-.819-.271c-.863-.431-1.482-1.252-1.614-2.144A2.893 2.893 0 0 1 8.393 5.5c.229 0 .461.026.691.079.943.217 1.75.967 2.055 1.91.139.43.18.863.12 1.287-.162 1.146.205 2.364 1.034 3.429l5.29 6.802-1.353 1.054-5.466-7.029z" fill="#BAE0BD"/><path d="M8.393 6c.191 0 .386.023.579.067.776.178 1.439.797 1.691 1.576.115.358.149.715.1 1.062-.181 1.282.222 2.634 1.135 3.807l4.984 6.408-.564.439-5.159-6.633c-.838-1.077-1.943-1.776-3.111-1.967a2.398 2.398 0 0 1-.678-.224c-.72-.358-1.234-1.036-1.342-1.769A2.393 2.393 0 0 1 8.393 6m0-1a3.395 3.395 0 0 0-3.355 3.911c.16 1.084.905 2.03 1.886 2.518.33.164.651.265.962.316.999.164 1.862.795 2.483 1.594l5.773 7.423 2.142-1.667-5.597-7.197c-.676-.869-1.087-1.964-.934-3.053a3.35 3.35 0 0 0-.139-1.509c-.356-1.101-1.292-1.985-2.419-2.244A3.603 3.603 0 0 0 8.393 5z" fill="#5E9C76"/><path d="M5.513 29.5c-.61 0-1.182-.272-1.566-.749a2.004 2.004 0 0 1-.397-1.716 1.998 1.998 0 0 1 1.415-1.489c.184-.047.368-.071.549-.071.378 0 .745.105 1.063.305a3.184 3.184 0 0 0 1.692.501c.306 0 .607-.048.896-.142l4.649-1.509.273.84-4.737 1.538c-.833.271-1.585.841-2.235 1.696a1.999 1.999 0 0 1-1.602.796z" fill="#BAE0BD"/><path d="M5.513 25.974c.283 0 .559.079.797.229a3.68 3.68 0 0 0 1.957.577c.122 0 .243-.006.363-.019-.706.346-1.348.896-1.914 1.641a1.51 1.51 0 0 1-2.381.035 1.521 1.521 0 0 1-.298-1.297 1.49 1.49 0 0 1 1.476-1.166M14.135 24L9.01 25.663a2.407 2.407 0 0 1-.743.117c-.497 0-.991-.151-1.425-.424a2.49 2.49 0 0 0-1.329-.382A2.498 2.498 0 0 0 3.06 26.93 2.516 2.516 0 0 0 5.513 30c.817 0 1.542-.39 2-.993.52-.685 1.173-1.258 1.991-1.524l5.212-1.692L14.135 24z" fill="#5E9C76"/><path d="M25.412 18.38l1.545-.395c1.396-.355 3.154-.803 4.064-1.048.614-.164 1.094-.369 1.659-1.519.282-.575.79-.919 1.358-.919a1.462 1.462 0 1 1-.295 2.894c-.714-.146-1.263-.211-1.779-.211-.442 0-.847.049-1.235.148l-5.239 1.352-.078-.302z" fill="#BAE0BD"/><path d="M34.039 15a.962.962 0 1 1-.194 1.903c-.538-.11-.989-.176-1.406-.205.236-.253.461-.592.69-1.06.074-.149.357-.638.91-.638m0-1c-.812 0-1.47.512-1.807 1.198-.493 1.002-.842 1.124-1.34 1.257-1.658.445-6.137 1.567-6.088 1.57l.327 1.267 5.724-1.476a4.422 4.422 0 0 1 1.112-.133c.558 0 1.12.086 1.677.2A1.961 1.961 0 1 0 34.039 14z" fill="#5E9C76"/><path d="M19.501 38.499c-.277 0-.56-.037-.838-.112a2.944 2.944 0 0 1-2.047-2.034c-.364-1.34.144-2.667 1.294-3.382 1.105-.687 1.74-1.745 1.74-2.904v-.175c0-.442-.167-.794-.278-1.027-.031-.067-.063-.124-.076-.175.004-.129.363-.39.904-.39s.899.261.899.434l-.096.236c-.113.277-.254.623-.254.979v.694c0 1.085.379 2.139 1.065 2.966.448.538.685 1.192.685 1.892 0 .802-.312 1.555-.878 2.121s-1.319.877-2.12.877z" fill="#D8F0DA"/><path d="M20.2 28.8a1 1 0 0 1 .313.048c-.119.294-.263.68-.263 1.1v.694c0 1.201.419 2.368 1.181 3.285.372.449.569.993.569 1.573 0 1.378-1.121 2.5-2.5 2.5-.233 0-.471-.032-.707-.095a2.44 2.44 0 0 1-1.694-1.683c-.305-1.121.117-2.23 1.075-2.826 1.218-.757 1.953-1.975 1.975-3.269h.001v-.236c0-.435-.126-.793-.239-1.051.076-.022.174-.04.289-.04m0-1c-.773 0-1.4.418-1.4.933 0 .232.35.615.35 1.158v.175c0 1.042-.618 1.93-1.503 2.48-1.241.77-1.961 2.29-1.513 3.938a3.447 3.447 0 0 0 2.4 2.387c.328.088.652.129.966.129a3.5 3.5 0 0 0 3.5-3.5c0-.843-.301-1.611-.8-2.211a4.139 4.139 0 0 1-.95-2.646v-.694c0-.444.35-.983.35-1.215 0-.516-.627-.934-1.4-.934z" fill="#5E9C76"/><g><path d="M34.393 27.5a1.963 1.963 0 0 1-1.889-1.446 1.73 1.73 0 0 0-1.021-1.154c-.002-.001-2.089-.824-2.781-1.108-.255-.104-.532-.118-.745-.118l-.312.004a.463.463 0 0 1-.079-.005c-.044-.022-.15-.35.04-.785.162-.37.426-.545.555-.547.004.008.019.028.035.05.12.159.321.425.688.563.711.267 2.821 1.124 2.821 1.124.2.08.408.12.622.12.351 0 .699-.107 1.009-.311a1.94 1.94 0 0 1 1.512-.262 1.982 1.982 0 0 1 1.47 1.507 1.957 1.957 0 0 1-.405 1.651 1.97 1.97 0 0 1-1.52.717z" fill="#D8F0DA"/><path d="M28.091 23.031c.055.052.116.104.185.155a3.058 3.058 0 0 0-.244-.012.864.864 0 0 1 .059-.143m6.302 1.04a1.466 1.466 0 0 1 0 2.929 1.46 1.46 0 0 1-1.406-1.078 2.241 2.241 0 0 0-.859-1.235 2.339 2.339 0 0 0 1.482-.382c.234-.153.505-.234.783-.234m-6.23-2.232c-.373 0-.791.334-1.016.848-.272.624-.156 1.276.26 1.458.06.026.153.032.263.032.087 0 .185-.004.287-.004.187 0 .387.012.554.081.694.284 2.785 1.11 2.785 1.11.359.143.624.448.725.821A2.46 2.46 0 0 0 34.393 28a2.468 2.468 0 0 0 2.415-2.967 2.472 2.472 0 0 0-2.415-1.962c-.492 0-.947.147-1.33.397a1.354 1.354 0 0 1-.736.228c-.146 0-.292-.026-.434-.083 0 0-2.12-.861-2.834-1.129-.385-.145-.486-.519-.666-.598a.57.57 0 0 0-.23-.047z" fill="#5E9C76"/></g><g><path d="M19.5 13.1c-1.036 0-2.009-.562-2.009-.899 0-.21.159-.427.437-.597.612-.374.964-.957.964-1.599v-.276c0-1.035-.135-2.088-1.108-2.77-1.084-.758-1.532-2.089-1.145-3.391.276-.93 1.067-1.697 2.013-1.954a3.31 3.31 0 0 1 .849-.114 3.003 3.003 0 0 1 2.999 3c0 .977-.478 1.895-1.278 2.457-.835.587-1.259 1.506-1.259 2.732v.315c0 .642.352 1.225.964 1.599.276.17.436.387.436.597-.001.356-.835.9-1.863.9z" fill="#D8F0DA"/><path d="M19.5 2C20.879 2 22 3.122 22 4.5c0 .814-.398 1.579-1.066 2.047-.977.686-1.472 1.742-1.472 3.141v.316c0 .807.449 1.564 1.202 2.025a.77.77 0 0 1 .172.138c-.161.162-.682.433-1.336.433-.643 0-1.247-.262-1.465-.449a.775.775 0 0 1 .155-.122c.753-.461 1.202-1.218 1.202-2.025V9.73c0-.732 0-2.255-1.323-3.18-.903-.632-1.276-1.745-.951-2.837a2.43 2.43 0 0 1 1.664-1.615c.24-.065.481-.098.718-.098m0-1a3.75 3.75 0 0 0-.98.133 3.431 3.431 0 0 0-2.361 2.294c-.479 1.609.167 3.124 1.336 3.942.786.55.896 1.402.896 2.361v.275c0 .496-.301.913-.725 1.172-.415.254-.675.617-.675 1.023 0 .773 1.349 1.4 2.508 1.4 1.16 0 2.362-.627 2.362-1.4 0-.406-.261-.769-.675-1.023-.423-.259-.725-.676-.725-1.172v-.316c0-.95.269-1.777 1.046-2.323A3.5 3.5 0 0 0 19.5 1z" fill="#5E9C76"/></g><g><path d="M19.5 30.5c-5.514 0-10-4.486-10-10s4.486-10 10-10 10 4.486 10 10-4.486 10-10 10z" fill="#BAE0BD"/><path d="M19.5 11c5.238 0 9.5 4.262 9.5 9.5S24.738 30 19.5 30 10 25.738 10 20.5s4.262-9.5 9.5-9.5m0-1C13.701 10 9 14.701 9 20.5S13.701 31 19.5 31 30 26.299 30 20.5 25.299 10 19.5 10z" fill="#5E9C76"/></g><g><circle cx="17.5" cy="17.5" r="2" fill="#FFEEA3"/><path d="M17.5 16c.827 0 1.5.673 1.5 1.5s-.673 1.5-1.5 1.5-1.5-.673-1.5-1.5.673-1.5 1.5-1.5m0-1c-1.375 0-2.5 1.125-2.5 2.5s1.124 2.5 2.5 2.5c1.375 0 2.5-1.125 2.5-2.5S18.875 15 17.5 15z" fill="#BA9B48"/></g><g><path d="M16.5 25.5c-.626 0-1-.374-1-1s.374-1 1-1 1 .374 1 1-.374 1-1 1z" fill="#FFEEA3"/><path d="M16.5 24c.346 0 .5.154.5.5s-.154.5-.5.5-.5-.154-.5-.5.154-.5.5-.5m0-1c-.901 0-1.5.6-1.5 1.5s.6 1.5 1.5 1.5 1.5-.6 1.5-1.5-.6-1.5-1.5-1.5z" fill="#BA9B48"/></g><g><path d="M23 25.5c-.785 0-1.5-.715-1.5-1.5s.715-1.5 1.5-1.5 1.5.715 1.5 1.5-.715 1.5-1.5 1.5z" fill="#FFEEA3"/><path d="M23 23c.514 0 1 .486 1 1s-.486 1-1 1-1-.486-1-1 .486-1 1-1m0-1c-1.068 0-2 .932-2 2s.934 2 2 2c1.066 0 2-.932 2-2s-.934-2-2-2z" fill="#BA9B48"/></g></svg>