<?xml version="1.0" encoding="UTF-8" standalone="no"?>
<svg
   xmlns:osb="http://www.openswatchbook.org/uri/2009/osb"
   xmlns:dc="http://purl.org/dc/elements/1.1/"
   xmlns:cc="http://creativecommons.org/ns#"
   xmlns:rdf="http://www.w3.org/1999/02/22-rdf-syntax-ns#"
   xmlns:svg="http://www.w3.org/2000/svg"
   xmlns="http://www.w3.org/2000/svg"
   xmlns:xlink="http://www.w3.org/1999/xlink"
   version="1.1"
   width="40.000011"
   viewBox="0 0 40.000011 40"
   height="40"
   enable-background="new 0 0 512 512"
   id="Layer_1">
  <metadata
     id="metadata55">
    <rdf:RDF>
      <cc:Work
         rdf:about="">
        <dc:format>image/svg+xml</dc:format>
        <dc:type
           rdf:resource="http://purl.org/dc/dcmitype/StillImage" />
        <dc:title></dc:title>
      </cc:Work>
    </rdf:RDF>
  </metadata>
  <defs
     id="defs53">
    <linearGradient
       osb:paint="solid"
       id="linearGradient1270">
      <stop
         id="stop1268"
         offset="0"
         style="stop-color:#b1e75a;stop-opacity:1;" />
    </linearGradient>
    <linearGradient
       osb:paint="solid"
       id="linearGradient1264">
      <stop
         id="stop1262"
         offset="0"
         style="stop-color:#b1e75a;stop-opacity:1;" />
    </linearGradient>
    <linearGradient
       osb:paint="solid"
       id="linearGradient1258">
      <stop
         id="stop1256"
         offset="0"
         style="stop-color:#9b59b6;stop-opacity:1;" />
    </linearGradient>
    <linearGradient
       gradientTransform="rotate(4.4821681,-1500.8539,-7635.0935)"
       gradientUnits="userSpaceOnUse"
       y2="-65.806503"
       x2="-529.75867"
       y1="-65.806503"
       x1="-637.69916"
       id="linearGradient1260"
       xlink:href="#linearGradient1258" />
    <linearGradient
       gradientTransform="translate(-606.16657,44.489289)"
       gradientUnits="userSpaceOnUse"
       y2="-86.067154"
       x2="-428.61096"
       y1="-86.067154"
       x1="-508.61017"
       id="linearGradient1266"
       xlink:href="#linearGradient1258" />
    <linearGradient
       gradientTransform="translate(-612.16657,50.489289)"
       gradientUnits="userSpaceOnUse"
       y2="-63.637001"
       x2="-304.14429"
       y1="-63.637001"
       x1="-412.08481"
       id="linearGradient1272"
       xlink:href="#linearGradient1258" />
  </defs>
  <g
     transform="matrix(0.05759617,0,0,0.05759617,81.965512,7.1405346)"
     id="g1743">
    <path
       style="fill:url(#linearGradient1266);fill-opacity:1;stroke:#452155;stroke-width:20;stroke-miterlimit:4;stroke-dasharray:none;stroke-opacity:1"
       id="path34"
       d="m -1074.7767,29.735933 c 8.284,0 15,-6.716001 15,-15.000001 v -34.115 c 0,-17.367 3.981,-34.524002 11.804,-50.029003 2.332,-4.623 3.502,-9.932 3.127,-15.545 -0.993,-14.871 -13.088,-26.926999 -27.962,-27.876999 -17.462,-1.114 -31.969,12.716 -31.969,29.937999 0,4.665 1.065,9.08 2.965,13.017 7.628,15.800001 12.035,32.957003 12.035,50.502003 v 34.11 c 0,8.284 6.716,14.999001 15,14.999001 z" />
    <path
       d="m -1073.1157,416.80195 c -8.284,0 -15,6.716 -15,15 v 34.115 c 0,17.367 -3.981,34.524 -11.804,50.029 -2.332,4.623 -3.502,9.932 -3.127,15.545 0.993,14.871 13.088,26.927 27.962,27.877 17.462,1.114 31.969,-12.716 31.969,-29.938 0,-4.665 -1.065,-9.08 -2.965,-13.017 -7.628,-15.8 -12.035,-32.957 -12.035,-50.502 v -34.11 c 0,-8.284 -6.716,-14.999 -15,-14.999 z"
       id="path918"
       style="fill:#9b59b6;fill-opacity:1;stroke:#452155;stroke-width:20;stroke-miterlimit:4;stroke-dasharray:none;stroke-opacity:1" />
    <path
       d="m -1270.4792,227.43843 c 0,-8.284 -6.716,-15 -15,-15 h -34.115 c -17.367,0 -34.5241,-3.981 -50.029,-11.804 -4.623,-2.332 -9.932,-3.502 -15.545,-3.127 -14.871,0.993 -26.927,13.088 -27.877,27.962 -1.114,17.462 12.716,31.969 29.938,31.969 4.665,0 9.08,-1.065 13.017,-2.965 15.7999,-7.628 32.957,-12.035 50.502,-12.035 h 34.11 c 8.284,0 14.999,-6.716 14.999,-15 z"
       id="path920"
       style="fill:#9b59b6;fill-opacity:1;stroke:#452155;stroke-width:20;stroke-miterlimit:4;stroke-dasharray:none;stroke-opacity:1" />
    <path
       style="fill:#9b59b6;fill-opacity:1;stroke:#452155;stroke-width:20;stroke-miterlimit:4;stroke-dasharray:none;stroke-opacity:1"
       id="path922"
       d="m -881.24373,223.09948 c 0,8.284 6.716,15 15,15 h 34.115 c 17.367,0 34.52401,3.981 50.029,11.804 4.623,2.332 9.932,3.502 15.54499,3.127 14.871,-0.993 26.927,-13.088 27.877,-27.962 1.114,-17.462 -12.716,-31.969 -29.938,-31.969 -4.66499,0 -9.07999,1.065 -13.01699,2.965 -15.79999,7.628 -32.957,12.035 -50.502,12.035 h -34.11 c -8.284,0 -14.999,6.716 -14.999,15 z" />
    <path
       d="m -932.29078,95.455636 c 5.83764,5.877634 15.33544,5.910064 21.21308,0.07242 l 24.20516,-24.040452 c 12.32218,-12.238327 27.30073,-21.504083 43.81456,-26.87973 4.92343,-1.603182 9.51474,-4.514239 13.233,-8.735725 9.85147,-11.183975 9.88219,-28.2613055 0.0747,-39.4841115 -11.51487,-13.1746045 -31.55041,-13.7217205 -43.76971,-1.585573 -3.30989,3.287372 -5.69191,7.154208 -7.14637,11.276649 -5.835,16.5462715 -14.90262,31.7634565 -27.35109,44.1272185 l -24.20162,24.036926 c -5.87763,5.837641 -5.90935,15.334739 -0.0717,21.212376 z"
       id="path924"
       style="fill:#9b59b6;fill-opacity:1;stroke:#452155;stroke-width:20;stroke-miterlimit:4;stroke-dasharray:none;stroke-opacity:1" />
    <path
       style="fill:#9b59b6;fill-opacity:1;stroke:#452155;stroke-width:20;stroke-miterlimit:4;stroke-dasharray:none;stroke-opacity:1"
       id="path926"
       d="m -1217.2814,361.49943 c -5.8376,-5.87763 -15.3354,-5.91006 -21.2131,-0.0724 l -24.2051,24.04045 c -12.3222,12.23833 -27.3008,21.50409 -43.8146,26.87974 -4.9234,1.60318 -9.5147,4.51423 -13.233,8.73572 -9.8515,11.18397 -9.8822,28.2613 -0.075,39.48411 11.5149,13.1746 31.5504,13.72172 43.7697,1.58557 3.3099,-3.28737 5.6919,-7.1542 7.1464,-11.27665 5.835,-16.54627 14.9026,-31.76345 27.3511,-44.12721 l 24.2016,-24.03693 c 5.8776,-5.83764 5.9094,-15.33474 0.072,-21.21238 z" />
    <path
       d="m -1214.0836,97.065654 c 5.8776,-5.83764 5.91,-15.335441 0.072,-21.213081 l -24.0405,-24.20516 c -12.2383,-12.322179 -21.5041,-27.300729 -26.8797,-43.8145585 -1.6032,-4.92343 -4.5143,-9.51474 -8.7358,-13.233 -11.1839,-9.8514725 -28.2613,-9.8821905 -39.4841,-0.0747 -13.1746,11.51487 -13.7217,31.5504095 -1.5855,43.7697095 3.2873,3.309892 7.1542,5.691911 11.2766,7.146373 16.5463,5.835 31.7635,14.902619 44.1272,27.351087 l 24.0369,24.20162 c 5.8377,5.877626 15.3348,5.909346 21.2124,0.0717 z"
       id="path928"
       style="fill:#9b59b6;fill-opacity:1;stroke:#452155;stroke-width:20;stroke-miterlimit:4;stroke-dasharray:none;stroke-opacity:1" />
    <path
       style="fill:#9b59b6;fill-opacity:1;stroke:#452155;stroke-width:20;stroke-miterlimit:4;stroke-dasharray:none;stroke-opacity:1"
       id="path930"
       d="m -930.34495,354.19187 c -5.87763,5.83764 -5.91005,15.33545 -0.0724,21.21309 l 24.04046,24.20516 c 12.23832,12.32218 21.50408,27.30072 26.87973,43.81455 1.60318,4.92343 4.51423,9.51474 8.73572,13.233 11.18398,9.85148 28.2613,9.88219 39.48412,0.0747 13.1746,-11.51487 13.72172,-31.55041 1.58557,-43.76971 -3.28737,-3.30989 -7.1542,-5.69191 -11.27666,-7.14637 -16.54627,-5.835 -31.76345,-14.90262 -44.1272,-27.35109 l -24.03693,-24.20162 c -5.83764,-5.87762 -15.33475,-5.90935 -21.21239,-0.0717 z" />
    <path
       style="fill:#9b59b6;fill-opacity:1;stroke:#452155;stroke-width:20;stroke-miterlimit:4;stroke-dasharray:none;stroke-opacity:1"
       id="path932"
       d="m -991.21894,402.06529 c -7.43635,3.6504 -10.50566,12.63865 -6.85527,20.07499 l 15.03303,30.62419 c 7.6529,15.58993 11.63961,32.7456 11.44949,50.11132 -0.0562,5.17757 1.23296,10.45889 4.04299,15.3323 7.44441,12.91176 23.61436,18.40438 37.38501,12.70283 16.1661,-6.69475 23.09438,-25.50222 15.50538,-40.96198 -2.05567,-4.18766 -4.9572,-7.6816 -8.39765,-10.37849 -13.80985,-10.82194 -25.32627,-24.28138 -33.05761,-40.03109 l -15.03082,-30.6197 c -3.65041,-7.43635 -12.63821,-10.50478 -20.07455,-6.85437 z" />
    <path
       d="m -1005.8969,51.651231 c -7.4364,-3.6504 -10.5057,-12.63865 -6.8553,-20.074991 l 15.03305,-30.6241875 c 7.6529,-15.5899305 11.63961,-32.7456005 11.44949,-50.1113205 -0.0562,-5.177573 1.23296,-10.458883 4.04299,-15.332293 7.44441,-12.91176 23.61436,-18.40438 37.38501,-12.70283 16.1661,6.69475 23.09438,25.50221 15.50538,40.961973 -2.05567,4.18766 -4.9572,7.6816 -8.39765,10.37849 -13.80985,10.82194 -25.32627,24.2813805 -33.05761,40.031089 l -15.03082,30.6197 c -3.65041,7.43635 -12.63821,10.50478 -20.07454,6.85437 z"
       id="path934"
       style="fill:url(#linearGradient1272);fill-opacity:1;stroke:#452155;stroke-width:20;stroke-miterlimit:4;stroke-dasharray:none;stroke-opacity:1" />
    <path
       style="fill:#9b59b6;fill-opacity:1;stroke:#452155;stroke-width:20;stroke-miterlimit:4;stroke-dasharray:none;stroke-opacity:1"
       id="path936"
       d="m -1150.1102,404.40428 c 7.4364,3.6504 10.5057,12.63865 6.8553,20.07499 l -15.0331,30.62418 c -7.6529,15.58993 -11.6396,32.7456 -11.4494,50.11132 0.056,5.17757 -1.233,10.45889 -4.043,15.3323 -7.4444,12.91176 -23.6144,18.40438 -37.385,12.70283 -16.1661,-6.69475 -23.0944,-25.50222 -15.5054,-40.96198 2.0556,-4.18766 4.9572,-7.6816 8.3976,-10.37849 13.8099,-10.82194 25.3263,-24.28138 33.0576,-40.03108 l 15.0309,-30.6197 c 3.6504,-7.43635 12.6382,-10.50478 20.0745,-6.85437 z" />
    <path
       d="m -1147.6218,50.100723 c 7.6989,-3.05809 11.4613,-11.77899 8.4032,-19.477862 l -12.5938,-31.7053338 c -6.4112,-16.1403162 -9.0451,-33.5550832 -7.4983,-50.8528342 0.4604,-5.157359 -0.4119,-10.523261 -2.8325,-15.601365 -6.4126,-13.454043 -22.1039,-20.193531 -36.2779,-15.585574 -16.6399,5.410913 -25.0168,23.619426 -18.6591,39.624981 1.7221,4.335503 4.3417,8.045507 7.5608,11.003012 12.922,11.868071 23.3513,26.186341 29.8281,42.4920656 l 12.5921,31.7007044 c 3.0581,7.698882 11.7786,11.460314 19.4774,8.402206 z"
       id="path938"
       style="fill:url(#linearGradient1260);fill-opacity:1;stroke:#452155;stroke-width:20;stroke-miterlimit:4;stroke-dasharray:none;stroke-opacity:1" />
    <path
       style="fill:#9b59b6;fill-opacity:1;stroke:#452155;stroke-width:20;stroke-miterlimit:4;stroke-dasharray:none;stroke-opacity:1"
       id="path942"
       d="m -1254.3322,157.82806 c 3.398,-7.55494 0.028,-16.43483 -7.5268,-19.83295 l -31.1128,-13.99413 c -15.8386,-7.12404 -29.8526,-17.79258 -40.7839,-31.287322 -3.2597,-4.023145 -7.6215,-7.267956 -12.8943,-9.228444 -13.9697,-5.194543 -29.9261,0.890589 -36.8939,14.06588 -8.1789,15.468256 -1.5168,34.371696 14.1895,41.436236 4.2545,1.9136 8.7177,2.75339 13.0877,2.63557 17.5384,-0.47544 34.9934,2.54328 50.9943,9.74033 l 31.108,13.99209 c 7.555,3.39812 16.4339,0.0277 19.8322,-7.52727 z" />
    <path
       d="m -899.65967,157.73728 c -3.18923,-7.64549 0.42355,-16.4294 8.06904,-19.61863 l 31.48549,-13.13383 c 16.02838,-6.68608 30.33031,-16.96547 41.62847,-30.154699 3.36887,-3.932053 7.81823,-7.055775 13.14295,-8.870612 14.10707,-4.808683 29.89023,1.712652 36.49333,15.074451 7.75078,15.68718 0.57178,34.40039 -15.32279,41.03065 -4.30542,1.79596 -8.79013,2.51276 -13.15517,2.2749 -17.51884,-0.95725 -35.05005,1.58066 -51.24271,8.33526 l -31.48086,13.13192 c -7.64548,3.18922 -16.42849,-0.42393 -19.61772,-8.06942 z"
       id="path944"
       style="fill:#9b59b6;fill-opacity:1;stroke:#452155;stroke-width:20;stroke-miterlimit:4;stroke-dasharray:none;stroke-opacity:1" />
    <path
       style="fill:#9b59b6;fill-opacity:1;stroke:#452155;stroke-width:20;stroke-miterlimit:4;stroke-dasharray:none;stroke-opacity:1"
       id="path946"
       d="m -897.46023,289.76211 c -3.21312,7.63548 0.37218,16.43064 8.00765,19.64376 l 31.44428,13.23222 c 16.00739,6.73616 30.27712,17.06022 41.53398,30.2847 3.35656,3.94257 7.79613,7.08019 13.11515,8.91166 14.09196,4.85277 29.89544,-1.61918 36.54028,-14.96027 7.79979,-15.66286 0.67934,-34.39843 -15.19442,-41.07835 -4.29979,-1.80942 -8.78223,-2.54024 -13.14799,-2.31603 -17.52175,0.90248 -35.04494,-1.69024 -51.2164,-8.49544 l -31.43964,-13.23028 c -7.63548,-3.21311 -16.42974,0.37257 -19.64286,8.00804 z" />
    <path
       d="m -1249.8832,299.4573 c 3.2131,7.63547 -0.3722,16.43064 -8.0076,19.64376 l -31.4444,13.2322 c -16.0074,6.73616 -30.277,17.06023 -41.534,30.2847 -3.3565,3.94258 -7.7961,7.0802 -13.1151,8.91167 -14.092,4.85277 -29.8954,-1.61918 -36.5402,-14.96027 -7.7998,-15.66286 -0.6794,-34.39843 15.1944,-41.07835 4.2998,-1.80941 8.7822,-2.54023 13.148,-2.31603 17.5217,0.90247 35.0449,-1.69023 51.2164,-8.49543 l 31.4396,-13.23029 c 7.6355,-3.21311 16.4297,0.37256 19.6428,8.00803 z"
       id="path948"
       style="fill:#9b59b6;fill-opacity:1;stroke:#452155;stroke-width:20;stroke-miterlimit:4;stroke-dasharray:none;stroke-opacity:1" />
    <circle
       style="opacity:1;fill:#9b59b6;fill-opacity:1;stroke:#452155;stroke-width:20;stroke-miterlimit:4;stroke-dasharray:none;stroke-opacity:1"
       id="path85"
       cx="-1074.7767"
       cy="224.55708"
       r="193.08475" />
    <g
       transform="translate(-876.17712,-102.13064)"
       id="g1362">
      <g
         id="g1358">
        <path
           id="path1354"
           d="m -108.75366,389.80926 a 28.676471,28.676471 0 0 1 -28.67647,28.67647 28.676471,28.676471 0 0 1 -28.67647,-28.67647 28.676471,28.676471 0 0 1 28.67647,-28.67647 28.676471,28.676471 0 0 1 28.67647,28.67647 z"
           style="fill:#3498db;fill-opacity:1;stroke:none;stroke-width:17.64705849;stroke-miterlimit:4;stroke-dasharray:none;stroke-opacity:1" />
        <path
           d="m -137.43013,361.13279 c -4.77529,0 -9.27441,1.17441 -13.23529,3.23911 9.17382,4.78324 15.44117,14.3753 15.44117,25.43736 0,11.06206 -6.26735,20.65412 -15.44117,25.43735 3.96088,2.06471 8.46,3.23912 13.23529,3.23912 15.83736,0 28.67647,-12.83912 28.67647,-28.67647 0,-15.83736 -12.83911,-28.67647 -28.67647,-28.67647 z"
           id="path1356"
           style="fill:#2980b9;fill-opacity:1;stroke-width:0.88235295" />
      </g>
      <path
         id="path1360"
         d="m -108.75366,389.80926 a 28.676471,28.676471 0 0 1 -28.67647,28.67647 28.676471,28.676471 0 0 1 -28.67647,-28.67647 28.676471,28.676471 0 0 1 28.67647,-28.67647 28.676471,28.676471 0 0 1 28.67647,28.67647 z"
         style="fill:none;stroke:#452155;stroke-width:17.64705849;stroke-miterlimit:4;stroke-dasharray:none;stroke-opacity:1" />
    </g>
    <g
       id="g1452"
       transform="matrix(0.80000002,0,0,0.80000002,-1017.1292,-216.26202)">
      <g
         id="g1448">
        <path
           style="fill:#3498db;fill-opacity:1;stroke:none;stroke-width:17.64705849;stroke-miterlimit:4;stroke-dasharray:none;stroke-opacity:1"
           d="m -108.75366,389.80926 a 28.676471,28.676471 0 0 1 -28.67647,28.67647 28.676471,28.676471 0 0 1 -28.67647,-28.67647 28.676471,28.676471 0 0 1 28.67647,-28.67647 28.676471,28.676471 0 0 1 28.67647,28.67647 z"
           id="path1444" />
        <path
           style="fill:#2980b9;fill-opacity:1;stroke-width:0.88235295"
           id="path1446"
           d="m -137.43013,361.13279 c -4.77529,0 -9.27441,1.17441 -13.23529,3.23911 9.17382,4.78324 15.44117,14.3753 15.44117,25.43736 0,11.06206 -6.26735,20.65412 -15.44117,25.43735 3.96088,2.06471 8.46,3.23912 13.23529,3.23912 15.83736,0 28.67647,-12.83912 28.67647,-28.67647 0,-15.83736 -12.83911,-28.67647 -28.67647,-28.67647 z" />
      </g>
      <path
         style="fill:none;stroke:#452155;stroke-width:17.64705849;stroke-miterlimit:4;stroke-dasharray:none;stroke-opacity:1"
         d="m -108.75366,389.80926 a 28.676471,28.676471 0 0 1 -28.67647,28.67647 28.676471,28.676471 0 0 1 -28.67647,-28.67647 28.676471,28.676471 0 0 1 28.67647,-28.67647 28.676471,28.676471 0 0 1 28.67647,28.67647 z"
         id="path1450" />
    </g>
    <g
       id="g1392"
       transform="matrix(0.80000002,0,0,0.80000002,-828.38347,-51.380658)">
      <g
         id="g1388">
        <path
           style="fill:#3498db;fill-opacity:1;stroke:none;stroke-width:17.64705849;stroke-miterlimit:4;stroke-dasharray:none;stroke-opacity:1"
           d="m -108.75366,389.80926 a 28.676471,28.676471 0 0 1 -28.67647,28.67647 28.676471,28.676471 0 0 1 -28.67647,-28.67647 28.676471,28.676471 0 0 1 28.67647,-28.67647 28.676471,28.676471 0 0 1 28.67647,28.67647 z"
           id="path1384" />
        <path
           style="fill:#2980b9;fill-opacity:1;stroke-width:0.88235295"
           id="path1386"
           d="m -137.43013,361.13279 c -4.77529,0 -9.27441,1.17441 -13.23529,3.23911 9.17382,4.78324 15.44117,14.3753 15.44117,25.43736 0,11.06206 -6.26735,20.65412 -15.44117,25.43735 3.96088,2.06471 8.46,3.23912 13.23529,3.23912 15.83736,0 28.67647,-12.83912 28.67647,-28.67647 0,-15.83736 -12.83911,-28.67647 -28.67647,-28.67647 z" />
      </g>
      <path
         style="fill:none;stroke:#452155;stroke-width:17.64705849;stroke-miterlimit:4;stroke-dasharray:none;stroke-opacity:1"
         d="m -108.75366,389.80926 a 28.676471,28.676471 0 0 1 -28.67647,28.67647 28.676471,28.676471 0 0 1 -28.67647,-28.67647 28.676471,28.676471 0 0 1 28.67647,-28.67647 28.676471,28.676471 0 0 1 28.67647,28.67647 z"
         id="path1390" />
    </g>
    <g
       id="g1462"
       transform="matrix(0.80000002,0,0,0.80000002,-874.28179,-183.21117)">
      <g
         id="g1458">
        <path
           style="fill:#3498db;fill-opacity:1;stroke:none;stroke-width:17.64705849;stroke-miterlimit:4;stroke-dasharray:none;stroke-opacity:1"
           d="m -108.75366,389.80926 a 28.676471,28.676471 0 0 1 -28.67647,28.67647 28.676471,28.676471 0 0 1 -28.67647,-28.67647 28.676471,28.676471 0 0 1 28.67647,-28.67647 28.676471,28.676471 0 0 1 28.67647,28.67647 z"
           id="path1454" />
        <path
           style="fill:#2980b9;fill-opacity:1;stroke-width:0.88235295"
           id="path1456"
           d="m -137.43013,361.13279 c -4.77529,0 -9.27441,1.17441 -13.23529,3.23911 9.17382,4.78324 15.44117,14.3753 15.44117,25.43736 0,11.06206 -6.26735,20.65412 -15.44117,25.43735 3.96088,2.06471 8.46,3.23912 13.23529,3.23912 15.83736,0 28.67647,-12.83912 28.67647,-28.67647 0,-15.83736 -12.83911,-28.67647 -28.67647,-28.67647 z" />
      </g>
      <path
         style="fill:none;stroke:#452155;stroke-width:17.64705849;stroke-miterlimit:4;stroke-dasharray:none;stroke-opacity:1"
         d="m -108.75366,389.80926 a 28.676471,28.676471 0 0 1 -28.67647,28.67647 28.676471,28.676471 0 0 1 -28.67647,-28.67647 28.676471,28.676471 0 0 1 28.67647,-28.67647 28.676471,28.676471 0 0 1 28.67647,28.67647 z"
         id="path1460" />
    </g>
    <g
       transform="matrix(1.1333334,0,0,1.1333334,-919.02258,-217.22677)"
       id="g1372">
      <g
         id="g1368">
        <path
           id="path1364"
           d="m -108.75366,389.80926 a 28.676471,28.676471 0 0 1 -28.67647,28.67647 28.676471,28.676471 0 0 1 -28.67647,-28.67647 28.676471,28.676471 0 0 1 28.67647,-28.67647 28.676471,28.676471 0 0 1 28.67647,28.67647 z"
           style="fill:#3498db;fill-opacity:1;stroke:none;stroke-width:17.64705849;stroke-miterlimit:4;stroke-dasharray:none;stroke-opacity:1" />
        <path
           d="m -137.43013,361.13279 c -4.77529,0 -9.27441,1.17441 -13.23529,3.23911 9.17382,4.78324 15.44117,14.3753 15.44117,25.43736 0,11.06206 -6.26735,20.65412 -15.44117,25.43735 3.96088,2.06471 8.46,3.23912 13.23529,3.23912 15.83736,0 28.67647,-12.83912 28.67647,-28.67647 0,-15.83736 -12.83911,-28.67647 -28.67647,-28.67647 z"
           id="path1366"
           style="fill:#2980b9;fill-opacity:1;stroke-width:0.88235295" />
      </g>
      <path
         id="path1370"
         d="m -108.75366,389.80926 a 28.676471,28.676471 0 0 1 -28.67647,28.67647 28.676471,28.676471 0 0 1 -28.67647,-28.67647 28.676471,28.676471 0 0 1 28.67647,-28.67647 28.676471,28.676471 0 0 1 28.67647,28.67647 z"
         style="fill:none;stroke:#452155;stroke-width:17.64705849;stroke-miterlimit:4;stroke-dasharray:none;stroke-opacity:1" />
    </g>
    <g
       id="g1432"
       transform="matrix(0.80000002,0,0,0.80000002,-1101.7394,-109.95694)">
      <g
         id="g1428">
        <path
           style="fill:#3498db;fill-opacity:1;stroke:none;stroke-width:17.64705849;stroke-miterlimit:4;stroke-dasharray:none;stroke-opacity:1"
           d="m -108.75366,389.80926 a 28.676471,28.676471 0 0 1 -28.67647,28.67647 28.676471,28.676471 0 0 1 -28.67647,-28.67647 28.676471,28.676471 0 0 1 28.67647,-28.67647 28.676471,28.676471 0 0 1 28.67647,28.67647 z"
           id="path1424" />
        <path
           style="fill:#2980b9;fill-opacity:1;stroke-width:0.88235295"
           id="path1426"
           d="m -137.43013,361.13279 c -4.77529,0 -9.27441,1.17441 -13.23529,3.23911 9.17382,4.78324 15.44117,14.3753 15.44117,25.43736 0,11.06206 -6.26735,20.65412 -15.44117,25.43735 3.96088,2.06471 8.46,3.23912 13.23529,3.23912 15.83736,0 28.67647,-12.83912 28.67647,-28.67647 0,-15.83736 -12.83911,-28.67647 -28.67647,-28.67647 z" />
      </g>
      <path
         style="fill:none;stroke:#452155;stroke-width:17.64705849;stroke-miterlimit:4;stroke-dasharray:none;stroke-opacity:1"
         d="m -108.75366,389.80926 a 28.676471,28.676471 0 0 1 -28.67647,28.67647 28.676471,28.676471 0 0 1 -28.67647,-28.67647 28.676471,28.676471 0 0 1 28.67647,-28.67647 28.676471,28.676471 0 0 1 28.67647,28.67647 z"
         id="path1430" />
    </g>
    <g
       id="g1302"
       transform="translate(-921.73644,-247.48657)">
      <g
         id="g1296">
        <path
           style="fill:#3498db;fill-opacity:1;stroke:none;stroke-width:17.64705849;stroke-miterlimit:4;stroke-dasharray:none;stroke-opacity:1"
           d="m -108.75366,389.80926 a 28.676471,28.676471 0 0 1 -28.67647,28.67647 28.676471,28.676471 0 0 1 -28.67647,-28.67647 28.676471,28.676471 0 0 1 28.67647,-28.67647 28.676471,28.676471 0 0 1 28.67647,28.67647 z"
           id="path1278" />
        <path
           style="fill:#2980b9;fill-opacity:1;stroke-width:0.88235295"
           id="path1280"
           d="m -137.43013,361.13279 c -4.77529,0 -9.27441,1.17441 -13.23529,3.23911 9.17382,4.78324 15.44117,14.3753 15.44117,25.43736 0,11.06206 -6.26735,20.65412 -15.44117,25.43735 3.96088,2.06471 8.46,3.23912 13.23529,3.23912 15.83736,0 28.67647,-12.83912 28.67647,-28.67647 0,-15.83736 -12.83911,-28.67647 -28.67647,-28.67647 z" />
      </g>
      <path
         style="fill:none;stroke:#452155;stroke-width:17.64705849;stroke-miterlimit:4;stroke-dasharray:none;stroke-opacity:1"
         d="m -108.75366,389.80926 a 28.676471,28.676471 0 0 1 -28.67647,28.67647 28.676471,28.676471 0 0 1 -28.67647,-28.67647 28.676471,28.676471 0 0 1 28.67647,-28.67647 28.676471,28.676471 0 0 1 28.67647,28.67647 z"
         id="path1284" />
    </g>
    <g
       id="g1322"
       transform="translate(-854.4822,-184.57132)">
      <g
         id="g1318">
        <path
           style="fill:#3498db;fill-opacity:1;stroke:none;stroke-width:17.64705849;stroke-miterlimit:4;stroke-dasharray:none;stroke-opacity:1"
           d="m -108.75366,389.80926 a 28.676471,28.676471 0 0 1 -28.67647,28.67647 28.676471,28.676471 0 0 1 -28.67647,-28.67647 28.676471,28.676471 0 0 1 28.67647,-28.67647 28.676471,28.676471 0 0 1 28.67647,28.67647 z"
           id="path1314" />
        <path
           style="fill:#2980b9;fill-opacity:1;stroke-width:0.88235295"
           id="path1316"
           d="m -137.43013,361.13279 c -4.77529,0 -9.27441,1.17441 -13.23529,3.23911 9.17382,4.78324 15.44117,14.3753 15.44117,25.43736 0,11.06206 -6.26735,20.65412 -15.44117,25.43735 3.96088,2.06471 8.46,3.23912 13.23529,3.23912 15.83736,0 28.67647,-12.83912 28.67647,-28.67647 0,-15.83736 -12.83911,-28.67647 -28.67647,-28.67647 z" />
      </g>
      <path
         style="fill:none;stroke:#452155;stroke-width:17.64705849;stroke-miterlimit:4;stroke-dasharray:none;stroke-opacity:1"
         d="m -108.75366,389.80926 a 28.676471,28.676471 0 0 1 -28.67647,28.67647 28.676471,28.676471 0 0 1 -28.67647,-28.67647 28.676471,28.676471 0 0 1 28.67647,-28.67647 28.676471,28.676471 0 0 1 28.67647,28.67647 z"
         id="path1320" />
    </g>
    <g
       id="g1332"
       transform="translate(-1004.3466,-221.62217)">
      <g
         id="g1328">
        <path
           style="fill:#3498db;fill-opacity:1;stroke:none;stroke-width:17.64705849;stroke-miterlimit:4;stroke-dasharray:none;stroke-opacity:1"
           d="m -108.75366,389.80926 a 28.676471,28.676471 0 0 1 -28.67647,28.67647 28.676471,28.676471 0 0 1 -28.67647,-28.67647 28.676471,28.676471 0 0 1 28.67647,-28.67647 28.676471,28.676471 0 0 1 28.67647,28.67647 z"
           id="path1324" />
        <path
           style="fill:#2980b9;fill-opacity:1;stroke-width:0.88235295"
           id="path1326"
           d="m -137.43013,361.13279 c -4.77529,0 -9.27441,1.17441 -13.23529,3.23911 9.17382,4.78324 15.44117,14.3753 15.44117,25.43736 0,11.06206 -6.26735,20.65412 -15.44117,25.43735 3.96088,2.06471 8.46,3.23912 13.23529,3.23912 15.83736,0 28.67647,-12.83912 28.67647,-28.67647 0,-15.83736 -12.83911,-28.67647 -28.67647,-28.67647 z" />
      </g>
      <path
         style="fill:none;stroke:#452155;stroke-width:17.64705849;stroke-miterlimit:4;stroke-dasharray:none;stroke-opacity:1"
         d="m -108.75366,389.80926 a 28.676471,28.676471 0 0 1 -28.67647,28.67647 28.676471,28.676471 0 0 1 -28.67647,-28.67647 28.676471,28.676471 0 0 1 28.67647,-28.67647 28.676471,28.676471 0 0 1 28.67647,28.67647 z"
         id="path1330" />
    </g>
    <g
       id="g1342"
       transform="translate(-1019.3636,-139.012)">
      <g
         id="g1338">
        <path
           style="fill:#3498db;fill-opacity:1;stroke:none;stroke-width:17.64705849;stroke-miterlimit:4;stroke-dasharray:none;stroke-opacity:1"
           d="m -108.75366,389.80926 a 28.676471,28.676471 0 0 1 -28.67647,28.67647 28.676471,28.676471 0 0 1 -28.67647,-28.67647 28.676471,28.676471 0 0 1 28.67647,-28.67647 28.676471,28.676471 0 0 1 28.67647,28.67647 z"
           id="path1334" />
        <path
           style="fill:#2980b9;fill-opacity:1;stroke-width:0.88235295"
           id="path1336"
           d="m -137.43013,361.13279 c -4.77529,0 -9.27441,1.17441 -13.23529,3.23911 9.17382,4.78324 15.44117,14.3753 15.44117,25.43736 0,11.06206 -6.26735,20.65412 -15.44117,25.43735 3.96088,2.06471 8.46,3.23912 13.23529,3.23912 15.83736,0 28.67647,-12.83912 28.67647,-28.67647 0,-15.83736 -12.83911,-28.67647 -28.67647,-28.67647 z" />
      </g>
      <path
         style="fill:none;stroke:#452155;stroke-width:17.64705849;stroke-miterlimit:4;stroke-dasharray:none;stroke-opacity:1"
         d="m -108.75366,389.80926 a 28.676471,28.676471 0 0 1 -28.67647,28.67647 28.676471,28.676471 0 0 1 -28.67647,-28.67647 28.676471,28.676471 0 0 1 28.67647,-28.67647 28.676471,28.676471 0 0 1 28.67647,28.67647 z"
         id="path1340" />
    </g>
    <g
       transform="translate(-954.27881,-80.435731)"
       id="g1312">
      <g
         id="g1308">
        <path
           id="path1304"
           d="m -108.75366,389.80926 a 28.676471,28.676471 0 0 1 -28.67647,28.67647 28.676471,28.676471 0 0 1 -28.67647,-28.67647 28.676471,28.676471 0 0 1 28.67647,-28.67647 28.676471,28.676471 0 0 1 28.67647,28.67647 z"
           style="fill:#3498db;fill-opacity:1;stroke:none;stroke-width:17.64705849;stroke-miterlimit:4;stroke-dasharray:none;stroke-opacity:1" />
        <path
           d="m -137.43013,361.13279 c -4.77529,0 -9.27441,1.17441 -13.23529,3.23911 9.17382,4.78324 15.44117,14.3753 15.44117,25.43736 0,11.06206 -6.26735,20.65412 -15.44117,25.43735 3.96088,2.06471 8.46,3.23912 13.23529,3.23912 15.83736,0 28.67647,-12.83912 28.67647,-28.67647 0,-15.83736 -12.83911,-28.67647 -28.67647,-28.67647 z"
           id="path1306"
           style="fill:#2980b9;fill-opacity:1;stroke-width:0.88235295" />
      </g>
      <path
         id="path1310"
         d="m -108.75366,389.80926 a 28.676471,28.676471 0 0 1 -28.67647,28.67647 28.676471,28.676471 0 0 1 -28.67647,-28.67647 28.676471,28.676471 0 0 1 28.67647,-28.67647 28.676471,28.676471 0 0 1 28.67647,28.67647 z"
         style="fill:none;stroke:#452155;stroke-width:17.64705849;stroke-miterlimit:4;stroke-dasharray:none;stroke-opacity:1" />
    </g>
    <g
       id="g1412"
       transform="matrix(0.80000002,0,0,0.80000002,-1056.1801,7.1956045)">
      <g
         id="g1408">
        <path
           style="fill:#3498db;fill-opacity:1;stroke:none;stroke-width:17.64705849;stroke-miterlimit:4;stroke-dasharray:none;stroke-opacity:1"
           d="m -108.75366,389.80926 a 28.676471,28.676471 0 0 1 -28.67647,28.67647 28.676471,28.676471 0 0 1 -28.67647,-28.67647 28.676471,28.676471 0 0 1 28.67647,-28.67647 28.676471,28.676471 0 0 1 28.67647,28.67647 z"
           id="path1404" />
        <path
           style="fill:#2980b9;fill-opacity:1;stroke-width:0.88235295"
           id="path1406"
           d="m -137.43013,361.13279 c -4.77529,0 -9.27441,1.17441 -13.23529,3.23911 9.17382,4.78324 15.44117,14.3753 15.44117,25.43736 0,11.06206 -6.26735,20.65412 -15.44117,25.43735 3.96088,2.06471 8.46,3.23912 13.23529,3.23912 15.83736,0 28.67647,-12.83912 28.67647,-28.67647 0,-15.83736 -12.83911,-28.67647 -28.67647,-28.67647 z" />
      </g>
      <path
         style="fill:none;stroke:#452155;stroke-width:17.64705849;stroke-miterlimit:4;stroke-dasharray:none;stroke-opacity:1"
         d="m -108.75366,389.80926 a 28.676471,28.676471 0 0 1 -28.67647,28.67647 28.676471,28.676471 0 0 1 -28.67647,-28.67647 28.676471,28.676471 0 0 1 28.67647,-28.67647 28.676471,28.676471 0 0 1 28.67647,28.67647 z"
         id="path1410" />
    </g>
    <g
       id="g1402"
       transform="matrix(0.80000002,0,0,0.80000002,-919.50213,46.246451)">
      <g
         id="g1398">
        <path
           style="fill:#3498db;fill-opacity:1;stroke:none;stroke-width:17.64705849;stroke-miterlimit:4;stroke-dasharray:none;stroke-opacity:1"
           d="m -108.75366,389.80926 a 28.676471,28.676471 0 0 1 -28.67647,28.67647 28.676471,28.676471 0 0 1 -28.67647,-28.67647 28.676471,28.676471 0 0 1 28.67647,-28.67647 28.676471,28.676471 0 0 1 28.67647,28.67647 z"
           id="path1394" />
        <path
           style="fill:#2980b9;fill-opacity:1;stroke-width:0.88235295"
           id="path1396"
           d="m -137.43013,361.13279 c -4.77529,0 -9.27441,1.17441 -13.23529,3.23911 9.17382,4.78324 15.44117,14.3753 15.44117,25.43736 0,11.06206 -6.26735,20.65412 -15.44117,25.43735 3.96088,2.06471 8.46,3.23912 13.23529,3.23912 15.83736,0 28.67647,-12.83912 28.67647,-28.67647 0,-15.83736 -12.83911,-28.67647 -28.67647,-28.67647 z" />
      </g>
      <path
         style="fill:none;stroke:#452155;stroke-width:17.64705849;stroke-miterlimit:4;stroke-dasharray:none;stroke-opacity:1"
         d="m -108.75366,389.80926 a 28.676471,28.676471 0 0 1 -28.67647,28.67647 28.676471,28.676471 0 0 1 -28.67647,-28.67647 28.676471,28.676471 0 0 1 28.67647,-28.67647 28.676471,28.676471 0 0 1 28.67647,28.67647 z"
         id="path1400" />
    </g>
    <g
       transform="matrix(0.53333334,0,0,0.53333334,-903.26664,136.63542)"
       id="g1522">
      <g
         id="g1518">
        <path
           id="path1514"
           d="m -108.75366,389.80926 a 28.676471,28.676471 0 0 1 -28.67647,28.67647 28.676471,28.676471 0 0 1 -28.67647,-28.67647 28.676471,28.676471 0 0 1 28.67647,-28.67647 28.676471,28.676471 0 0 1 28.67647,28.67647 z"
           style="fill:#3498db;fill-opacity:1;stroke:none;stroke-width:17.64705849;stroke-miterlimit:4;stroke-dasharray:none;stroke-opacity:1" />
        <path
           d="m -137.43013,361.13279 c -4.77529,0 -9.27441,1.17441 -13.23529,3.23911 9.17382,4.78324 15.44117,14.3753 15.44117,25.43736 0,11.06206 -6.26735,20.65412 -15.44117,25.43735 3.96088,2.06471 8.46,3.23912 13.23529,3.23912 15.83736,0 28.67647,-12.83912 28.67647,-28.67647 0,-15.83736 -12.83911,-28.67647 -28.67647,-28.67647 z"
           id="path1516"
           style="fill:#2980b9;fill-opacity:1;stroke-width:0.88235295" />
      </g>
      <path
         id="path1520"
         d="m -108.75366,389.80926 a 28.676471,28.676471 0 0 1 -28.67647,28.67647 28.676471,28.676471 0 0 1 -28.67647,-28.67647 28.676471,28.676471 0 0 1 28.67647,-28.67647 28.676471,28.676471 0 0 1 28.67647,28.67647 z"
         style="fill:none;stroke:#452155;stroke-width:17.64705849;stroke-miterlimit:4;stroke-dasharray:none;stroke-opacity:1" />
    </g>
    <g
       transform="matrix(0.53333334,0,0,0.53333334,-863.90946,-42.319643)"
       id="g1482">
      <g
         id="g1478">
        <path
           id="path1474"
           d="m -108.75366,389.80926 a 28.676471,28.676471 0 0 1 -28.67647,28.67647 28.676471,28.676471 0 0 1 -28.67647,-28.67647 28.676471,28.676471 0 0 1 28.67647,-28.67647 28.676471,28.676471 0 0 1 28.67647,28.67647 z"
           style="fill:#3498db;fill-opacity:1;stroke:none;stroke-width:17.64705849;stroke-miterlimit:4;stroke-dasharray:none;stroke-opacity:1" />
        <path
           d="m -137.43013,361.13279 c -4.77529,0 -9.27441,1.17441 -13.23529,3.23911 9.17382,4.78324 15.44117,14.3753 15.44117,25.43736 0,11.06206 -6.26735,20.65412 -15.44117,25.43735 3.96088,2.06471 8.46,3.23912 13.23529,3.23912 15.83736,0 28.67647,-12.83912 28.67647,-28.67647 0,-15.83736 -12.83911,-28.67647 -28.67647,-28.67647 z"
           id="path1476"
           style="fill:#2980b9;fill-opacity:1;stroke-width:0.88235295" />
      </g>
      <path
         id="path1480"
         d="m -108.75366,389.80926 a 28.676471,28.676471 0 0 1 -28.67647,28.67647 28.676471,28.676471 0 0 1 -28.67647,-28.67647 28.676471,28.676471 0 0 1 28.67647,-28.67647 28.676471,28.676471 0 0 1 28.67647,28.67647 z"
         style="fill:none;stroke:#452155;stroke-width:17.64705849;stroke-miterlimit:4;stroke-dasharray:none;stroke-opacity:1" />
    </g>
    <g
       transform="matrix(0.53333334,0,0,0.53333334,-848.18012,2.9022075)"
       id="g1492">
      <g
         id="g1488">
        <path
           id="path1484"
           d="m -108.75366,389.80926 a 28.676471,28.676471 0 0 1 -28.67647,28.67647 28.676471,28.676471 0 0 1 -28.67647,-28.67647 28.676471,28.676471 0 0 1 28.67647,-28.67647 28.676471,28.676471 0 0 1 28.67647,28.67647 z"
           style="fill:#3498db;fill-opacity:1;stroke:none;stroke-width:17.64705849;stroke-miterlimit:4;stroke-dasharray:none;stroke-opacity:1" />
        <path
           d="m -137.43013,361.13279 c -4.77529,0 -9.27441,1.17441 -13.23529,3.23911 9.17382,4.78324 15.44117,14.3753 15.44117,25.43736 0,11.06206 -6.26735,20.65412 -15.44117,25.43735 3.96088,2.06471 8.46,3.23912 13.23529,3.23912 15.83736,0 28.67647,-12.83912 28.67647,-28.67647 0,-15.83736 -12.83911,-28.67647 -28.67647,-28.67647 z"
           id="path1486"
           style="fill:#2980b9;fill-opacity:1;stroke-width:0.88235295" />
      </g>
      <path
         id="path1490"
         d="m -108.75366,389.80926 a 28.676471,28.676471 0 0 1 -28.67647,28.67647 28.676471,28.676471 0 0 1 -28.67647,-28.67647 28.676471,28.676471 0 0 1 28.67647,-28.67647 28.676471,28.676471 0 0 1 28.67647,28.67647 z"
         style="fill:none;stroke:#452155;stroke-width:17.64705849;stroke-miterlimit:4;stroke-dasharray:none;stroke-opacity:1" />
    </g>
    <g
       transform="matrix(0.53333334,0,0,0.53333334,-940.58999,-124.89867)"
       id="g1502">
      <g
         id="g1498">
        <path
           id="path1494"
           d="m -108.75366,389.80926 a 28.676471,28.676471 0 0 1 -28.67647,28.67647 28.676471,28.676471 0 0 1 -28.67647,-28.67647 28.676471,28.676471 0 0 1 28.67647,-28.67647 28.676471,28.676471 0 0 1 28.67647,28.67647 z"
           style="fill:#3498db;fill-opacity:1;stroke:none;stroke-width:17.64705849;stroke-miterlimit:4;stroke-dasharray:none;stroke-opacity:1" />
        <path
           d="m -137.43013,361.13279 c -4.77529,0 -9.27441,1.17441 -13.23529,3.23911 9.17382,4.78324 15.44117,14.3753 15.44117,25.43736 0,11.06206 -6.26735,20.65412 -15.44117,25.43735 3.96088,2.06471 8.46,3.23912 13.23529,3.23912 15.83736,0 28.67647,-12.83912 28.67647,-28.67647 0,-15.83736 -12.83911,-28.67647 -28.67647,-28.67647 z"
           id="path1496"
           style="fill:#2980b9;fill-opacity:1;stroke-width:0.88235295" />
      </g>
      <path
         id="path1500"
         d="m -108.75366,389.80926 a 28.676471,28.676471 0 0 1 -28.67647,28.67647 28.676471,28.676471 0 0 1 -28.67647,-28.67647 28.676471,28.676471 0 0 1 28.67647,-28.67647 28.676471,28.676471 0 0 1 28.67647,28.67647 z"
         style="fill:none;stroke:#452155;stroke-width:17.64705849;stroke-miterlimit:4;stroke-dasharray:none;stroke-opacity:1" />
    </g>
    <g
       id="g1472"
       transform="matrix(0.53333334,0,0,0.53333334,-995.64268,-138.66184)">
      <g
         id="g1468">
        <path
           style="fill:#3498db;fill-opacity:1;stroke:none;stroke-width:17.64705849;stroke-miterlimit:4;stroke-dasharray:none;stroke-opacity:1"
           d="m -108.75366,389.80926 a 28.676471,28.676471 0 0 1 -28.67647,28.67647 28.676471,28.676471 0 0 1 -28.67647,-28.67647 28.676471,28.676471 0 0 1 28.67647,-28.67647 28.676471,28.676471 0 0 1 28.67647,28.67647 z"
           id="path1464" />
        <path
           style="fill:#2980b9;fill-opacity:1;stroke-width:0.88235295"
           id="path1466"
           d="m -137.43013,361.13279 c -4.77529,0 -9.27441,1.17441 -13.23529,3.23911 9.17382,4.78324 15.44117,14.3753 15.44117,25.43736 0,11.06206 -6.26735,20.65412 -15.44117,25.43735 3.96088,2.06471 8.46,3.23912 13.23529,3.23912 15.83736,0 28.67647,-12.83912 28.67647,-28.67647 0,-15.83736 -12.83911,-28.67647 -28.67647,-28.67647 z" />
      </g>
      <path
         style="fill:none;stroke:#452155;stroke-width:17.64705849;stroke-miterlimit:4;stroke-dasharray:none;stroke-opacity:1"
         d="m -108.75366,389.80926 a 28.676471,28.676471 0 0 1 -28.67647,28.67647 28.676471,28.676471 0 0 1 -28.67647,-28.67647 28.676471,28.676471 0 0 1 28.67647,-28.67647 28.676471,28.676471 0 0 1 28.67647,28.67647 z"
         id="path1470" />
    </g>
    <g
       id="g1572"
       transform="matrix(0.53333334,0,0,0.53333334,-1135.2406,-61.981311)">
      <g
         id="g1568">
        <path
           style="fill:#3498db;fill-opacity:1;stroke:none;stroke-width:17.64705849;stroke-miterlimit:4;stroke-dasharray:none;stroke-opacity:1"
           d="m -108.75366,389.80926 a 28.676471,28.676471 0 0 1 -28.67647,28.67647 28.676471,28.676471 0 0 1 -28.67647,-28.67647 28.676471,28.676471 0 0 1 28.67647,-28.67647 28.676471,28.676471 0 0 1 28.67647,28.67647 z"
           id="path1564" />
        <path
           style="fill:#2980b9;fill-opacity:1;stroke-width:0.88235295"
           id="path1566"
           d="m -137.43013,361.13279 c -4.77529,0 -9.27441,1.17441 -13.23529,3.23911 9.17382,4.78324 15.44117,14.3753 15.44117,25.43736 0,11.06206 -6.26735,20.65412 -15.44117,25.43735 3.96088,2.06471 8.46,3.23912 13.23529,3.23912 15.83736,0 28.67647,-12.83912 28.67647,-28.67647 0,-15.83736 -12.83911,-28.67647 -28.67647,-28.67647 z" />
      </g>
      <path
         style="fill:none;stroke:#452155;stroke-width:17.64705849;stroke-miterlimit:4;stroke-dasharray:none;stroke-opacity:1"
         d="m -108.75366,389.80926 a 28.676471,28.676471 0 0 1 -28.67647,28.67647 28.676471,28.676471 0 0 1 -28.67647,-28.67647 28.676471,28.676471 0 0 1 28.67647,-28.67647 28.676471,28.676471 0 0 1 28.67647,28.67647 z"
         id="path1570" />
    </g>
    <g
       transform="matrix(0.53333334,0,0,0.53333334,-1107.7142,-99.338491)"
       id="g1592">
      <g
         id="g1588">
        <path
           id="path1584"
           d="m -108.75366,389.80926 a 28.676471,28.676471 0 0 1 -28.67647,28.67647 28.676471,28.676471 0 0 1 -28.67647,-28.67647 28.676471,28.676471 0 0 1 28.67647,-28.67647 28.676471,28.676471 0 0 1 28.67647,28.67647 z"
           style="fill:#3498db;fill-opacity:1;stroke:none;stroke-width:17.64705849;stroke-miterlimit:4;stroke-dasharray:none;stroke-opacity:1" />
        <path
           d="m -137.43013,361.13279 c -4.77529,0 -9.27441,1.17441 -13.23529,3.23911 9.17382,4.78324 15.44117,14.3753 15.44117,25.43736 0,11.06206 -6.26735,20.65412 -15.44117,25.43735 3.96088,2.06471 8.46,3.23912 13.23529,3.23912 15.83736,0 28.67647,-12.83912 28.67647,-28.67647 0,-15.83736 -12.83911,-28.67647 -28.67647,-28.67647 z"
           id="path1586"
           style="fill:#2980b9;fill-opacity:1;stroke-width:0.88235295" />
      </g>
      <path
         id="path1590"
         d="m -108.75366,389.80926 a 28.676471,28.676471 0 0 1 -28.67647,28.67647 28.676471,28.676471 0 0 1 -28.67647,-28.67647 28.676471,28.676471 0 0 1 28.67647,-28.67647 28.676471,28.676471 0 0 1 28.67647,28.67647 z"
         style="fill:none;stroke:#452155;stroke-width:17.64705849;stroke-miterlimit:4;stroke-dasharray:none;stroke-opacity:1" />
    </g>
    <g
       transform="matrix(0.53333334,0,0,0.53333334,-1150.9699,46.157894)"
       id="g1562">
      <g
         id="g1558">
        <path
           id="path1554"
           d="m -108.75366,389.80926 a 28.676471,28.676471 0 0 1 -28.67647,28.67647 28.676471,28.676471 0 0 1 -28.67647,-28.67647 28.676471,28.676471 0 0 1 28.67647,-28.67647 28.676471,28.676471 0 0 1 28.67647,28.67647 z"
           style="fill:#3498db;fill-opacity:1;stroke:none;stroke-width:17.64705849;stroke-miterlimit:4;stroke-dasharray:none;stroke-opacity:1" />
        <path
           d="m -137.43013,361.13279 c -4.77529,0 -9.27441,1.17441 -13.23529,3.23911 9.17382,4.78324 15.44117,14.3753 15.44117,25.43736 0,11.06206 -6.26735,20.65412 -15.44117,25.43735 3.96088,2.06471 8.46,3.23912 13.23529,3.23912 15.83736,0 28.67647,-12.83912 28.67647,-28.67647 0,-15.83736 -12.83911,-28.67647 -28.67647,-28.67647 z"
           id="path1556"
           style="fill:#2980b9;fill-opacity:1;stroke-width:0.88235295" />
      </g>
      <path
         id="path1560"
         d="m -108.75366,389.80926 a 28.676471,28.676471 0 0 1 -28.67647,28.67647 28.676471,28.676471 0 0 1 -28.67647,-28.67647 28.676471,28.676471 0 0 1 28.67647,-28.67647 28.676471,28.676471 0 0 1 28.67647,28.67647 z"
         style="fill:none;stroke:#452155;stroke-width:17.64705849;stroke-miterlimit:4;stroke-dasharray:none;stroke-opacity:1" />
    </g>
    <g
       id="g1552"
       transform="matrix(0.53333334,0,0,0.53333334,-1141.1391,87.447409)">
      <g
         id="g1548">
        <path
           style="fill:#3498db;fill-opacity:1;stroke:none;stroke-width:17.64705849;stroke-miterlimit:4;stroke-dasharray:none;stroke-opacity:1"
           d="m -108.75366,389.80926 a 28.676471,28.676471 0 0 1 -28.67647,28.67647 28.676471,28.676471 0 0 1 -28.67647,-28.67647 28.676471,28.676471 0 0 1 28.67647,-28.67647 28.676471,28.676471 0 0 1 28.67647,28.67647 z"
           id="path1544" />
        <path
           style="fill:#2980b9;fill-opacity:1;stroke-width:0.88235295"
           id="path1546"
           d="m -137.43013,361.13279 c -4.77529,0 -9.27441,1.17441 -13.23529,3.23911 9.17382,4.78324 15.44117,14.3753 15.44117,25.43736 0,11.06206 -6.26735,20.65412 -15.44117,25.43735 3.96088,2.06471 8.46,3.23912 13.23529,3.23912 15.83736,0 28.67647,-12.83912 28.67647,-28.67647 0,-15.83736 -12.83911,-28.67647 -28.67647,-28.67647 z" />
      </g>
      <path
         style="fill:none;stroke:#452155;stroke-width:17.64705849;stroke-miterlimit:4;stroke-dasharray:none;stroke-opacity:1"
         d="m -108.75366,389.80926 a 28.676471,28.676471 0 0 1 -28.67647,28.67647 28.676471,28.676471 0 0 1 -28.67647,-28.67647 28.676471,28.676471 0 0 1 28.67647,-28.67647 28.676471,28.676471 0 0 1 28.67647,28.67647 z"
         id="path1550" />
    </g>
    <g
       transform="matrix(0.53333334,0,0,0.53333334,-1056.5939,156.26327)"
       id="g1542">
      <g
         id="g1538">
        <path
           id="path1534"
           d="m -108.75366,389.80926 a 28.676471,28.676471 0 0 1 -28.67647,28.67647 28.676471,28.676471 0 0 1 -28.67647,-28.67647 28.676471,28.676471 0 0 1 28.67647,-28.67647 28.676471,28.676471 0 0 1 28.67647,28.67647 z"
           style="fill:#3498db;fill-opacity:1;stroke:none;stroke-width:17.64705849;stroke-miterlimit:4;stroke-dasharray:none;stroke-opacity:1" />
        <path
           d="m -137.43013,361.13279 c -4.77529,0 -9.27441,1.17441 -13.23529,3.23911 9.17382,4.78324 15.44117,14.3753 15.44117,25.43736 0,11.06206 -6.26735,20.65412 -15.44117,25.43735 3.96088,2.06471 8.46,3.23912 13.23529,3.23912 15.83736,0 28.67647,-12.83912 28.67647,-28.67647 0,-15.83736 -12.83911,-28.67647 -28.67647,-28.67647 z"
           id="path1536"
           style="fill:#2980b9;fill-opacity:1;stroke-width:0.88235295" />
      </g>
      <path
         id="path1540"
         d="m -108.75366,389.80926 a 28.676471,28.676471 0 0 1 -28.67647,28.67647 28.676471,28.676471 0 0 1 -28.67647,-28.67647 28.676471,28.676471 0 0 1 28.67647,-28.67647 28.676471,28.676471 0 0 1 28.67647,28.67647 z"
         style="fill:none;stroke:#452155;stroke-width:17.64705849;stroke-miterlimit:4;stroke-dasharray:none;stroke-opacity:1" />
    </g>
    <g
       transform="matrix(0.47058824,0,0,0.47058824,-1021.019,139.3151)"
       id="g1244">
      <g
         id="g1240">
        <path
           style="fill:#ffc808;stroke:none;stroke-width:20;stroke-miterlimit:4;stroke-dasharray:none;stroke-opacity:1"
           d="m -102.75423,502.86731 a 32.5,32.5 0 0 1 -32.5,32.5 32.5,32.5 0 0 1 -32.5,-32.5 32.5,32.5 0 0 1 32.5,-32.5 32.5,32.5 0 0 1 32.5,32.5 z"
           id="path1236" />
        <path
           style="fill:#ffae08"
           id="path1238"
           d="m -135.25423,470.36731 c -5.412,0 -10.511,1.331 -15,3.671 10.397,5.421 17.5,16.292 17.5,28.829 0,12.537 -7.103,23.408 -17.5,28.829 4.489,2.34 9.588,3.671 15,3.671 17.94901,0 32.5,-14.551 32.5,-32.5 0,-17.949 -14.55099,-32.5 -32.5,-32.5 z" />
      </g>
      <path
         style="fill:none;stroke:#000000;stroke-width:20;stroke-miterlimit:4;stroke-dasharray:none;stroke-opacity:1"
         d="m -102.75423,502.86731 a 32.5,32.5 0 0 1 -32.5,32.5 32.5,32.5 0 0 1 -32.5,-32.5 32.5,32.5 0 0 1 32.5,-32.5 32.5,32.5 0 0 1 32.5,32.5 z"
         id="path1242" />
    </g>
    <g
       id="g1532"
       transform="matrix(0.53333334,0,0,0.53333334,-1011.372,168.06027)">
      <g
         id="g1528">
        <path
           style="fill:#3498db;fill-opacity:1;stroke:none;stroke-width:17.64705849;stroke-miterlimit:4;stroke-dasharray:none;stroke-opacity:1"
           d="m -108.75366,389.80926 a 28.676471,28.676471 0 0 1 -28.67647,28.67647 28.676471,28.676471 0 0 1 -28.67647,-28.67647 28.676471,28.676471 0 0 1 28.67647,-28.67647 28.676471,28.676471 0 0 1 28.67647,28.67647 z"
           id="path1524" />
        <path
           style="fill:#2980b9;fill-opacity:1;stroke-width:0.88235295"
           id="path1526"
           d="m -137.43013,361.13279 c -4.77529,0 -9.27441,1.17441 -13.23529,3.23911 9.17382,4.78324 15.44117,14.3753 15.44117,25.43736 0,11.06206 -6.26735,20.65412 -15.44117,25.43735 3.96088,2.06471 8.46,3.23912 13.23529,3.23912 15.83736,0 28.67647,-12.83912 28.67647,-28.67647 0,-15.83736 -12.83911,-28.67647 -28.67647,-28.67647 z" />
      </g>
      <path
         style="fill:none;stroke:#452155;stroke-width:17.64705849;stroke-miterlimit:4;stroke-dasharray:none;stroke-opacity:1"
         d="m -108.75366,389.80926 a 28.676471,28.676471 0 0 1 -28.67647,28.67647 28.676471,28.676471 0 0 1 -28.67647,-28.67647 28.676471,28.676471 0 0 1 28.67647,-28.67647 28.676471,28.676471 0 0 1 28.67647,28.67647 z"
         id="path1530" />
    </g>
    <g
       id="g1512"
       transform="matrix(0.53333334,0,0,0.53333334,-871.84179,105.21058)">
      <g
         id="g1508">
        <path
           style="fill:#3498db;fill-opacity:1;stroke:none;stroke-width:17.64705849;stroke-miterlimit:4;stroke-dasharray:none;stroke-opacity:1"
           d="m -108.75366,389.80926 a 28.676471,28.676471 0 0 1 -28.67647,28.67647 28.676471,28.676471 0 0 1 -28.67647,-28.67647 28.676471,28.676471 0 0 1 28.67647,-28.67647 28.676471,28.676471 0 0 1 28.67647,28.67647 z"
           id="path1504" />
        <path
           style="fill:#2980b9;fill-opacity:1;stroke-width:0.88235295"
           id="path1506"
           d="m -137.43013,361.13279 c -4.77529,0 -9.27441,1.17441 -13.23529,3.23911 9.17382,4.78324 15.44117,14.3753 15.44117,25.43736 0,11.06206 -6.26735,20.65412 -15.44117,25.43735 3.96088,2.06471 8.46,3.23912 13.23529,3.23912 15.83736,0 28.67647,-12.83912 28.67647,-28.67647 0,-15.83736 -12.83911,-28.67647 -28.67647,-28.67647 z" />
      </g>
      <path
         style="fill:none;stroke:#452155;stroke-width:17.64705849;stroke-miterlimit:4;stroke-dasharray:none;stroke-opacity:1"
         d="m -108.75366,389.80926 a 28.676471,28.676471 0 0 1 -28.67647,28.67647 28.676471,28.676471 0 0 1 -28.67647,-28.67647 28.676471,28.676471 0 0 1 28.67647,-28.67647 28.676471,28.676471 0 0 1 28.67647,28.67647 z"
         id="path1510" />
    </g>
  </g>
</svg>
