<?xml version="1.0" encoding="UTF-8" standalone="no"?>
<svg
   xmlns:dc="http://purl.org/dc/elements/1.1/"
   xmlns:cc="http://creativecommons.org/ns#"
   xmlns:rdf="http://www.w3.org/1999/02/22-rdf-syntax-ns#"
   xmlns:svg="http://www.w3.org/2000/svg"
   xmlns="http://www.w3.org/2000/svg"
   height="40"
   width="40"
   xml:space="preserve"
   viewBox="0 0 40 40"
   y="0px"
   x="0px"
   id="Layer_1"
   version="1.1"><defs
     id="defs75" /><path
     style="fill:#ffaaaa"
     id="path2"
     d="M 2.8319082,15.176393 A 2.866,2.866 0 0 1 6.234506,14.664447 2.862,2.862 0 0 1 7.3885043,15.79299 c 0.5720494,1.02884 1.5938187,1.866762 2.8772177,2.361029 l 5.009144,1.926159 -0.614476,1.597354 c -1.205617,-0.47164 -4.403154,-1.72039 -5.6667533,-2.17506 -1.2133953,-0.438406 -2.3101179,0.05303 -2.9656059,0.346482 -0.1697056,0.07637 -0.3125412,0.14425 -0.4285067,0.173948 A 2.91,2.91 0 0 1 2.8312011,19.267005 C 2.2853146,18.721119 1.98338,17.993506 1.9840871,17.220638 a 2.872,2.872 0 0 1 0.8478211,-2.044245 z" /><path
     style="fill:#800000"
     id="path4"
     d="M 14.374012,21.029115 C 12.952728,20.47333 10.308148,19.445196 9.1640494,19.032246 7.7611496,18.525957 6.5498756,19.068308 5.8265054,19.39287 5.7034688,19.448025 5.5344703,19.523685 5.4764875,19.539241 a 2.406,2.406 0 0 1 -2.2910259,-0.625082 2.395,2.395 0 0 1 0,-3.384213 2.359,2.359 0 0 1 2.8093352,-0.426385 2.366,2.366 0 0 1 0.9567155,0.932673 c 0.6286179,1.130664 1.7423111,2.049196 3.1353117,2.585183 l 4.541747,1.747261 -0.254559,0.660437 m 0.57205,1.298956 L 15.920455,19.7938 10.44462,17.688036 C 9.3662819,17.272964 8.3862319,16.561615 7.8247892,15.550452 A 3.368,3.368 0 0 0 6.4735081,14.226041 c -1.0182338,-0.5572 -2.3129463,-0.539522 -3.3071384,0.0601 -0.2595082,0.156271 -0.4886108,0.33729 -0.6880149,0.536694 a 3.393,3.393 0 0 0 3.2470343,5.685139 c 0.5685139,-0.145664 1.7529177,-1.020355 3.0999562,-0.534573 1.5733127,0.567807 6.1207167,2.354666 6.1207167,2.354666 z" /><path
     style="fill:#ff8080"
     id="path6"
     d="m 21.240726,26.362822 0.207182,1.863226 c 0.147079,1.323704 0.726199,2.438812 1.63271,3.138847 a 2.83,2.83 0 0 1 0.816708,1.023184 c 0.421436,0.871155 0.383252,1.909188 -0.09899,2.706805 a 2.911,2.911 0 0 1 -4.500027,0.639224 C 18.717062,35.181151 18.431391,34.26474 18.5318,33.283276 c 0.05586,-0.539523 0.192333,-0.971565 0.4179,-1.324411 0.661145,-1.027426 0.948937,-2.124149 0.833679,-3.16996 l -0.248194,-2.235164 z" /><path
     style="fill:#800000"
     id="path8"
     d="m 22.984451,35.328936 a 2.407,2.407 0 0 1 -3.341079,0.04313 c -0.469519,-0.446891 -0.698622,-1.209152 -0.613769,-2.037881 0.04738,-0.460327 0.159099,-0.820951 0.341533,-1.105208 0.72337,-1.126421 1.037325,-2.335574 0.909339,-3.495936 l -0.19304,-1.738776 0.711349,-0.0792 0.152028,1.366838 c 0.161928,1.460175 0.810345,2.695491 1.823629,3.479672 a 2.334,2.334 0 0 1 0.672458,0.844993 c 0.343654,0.709935 0.313249,1.58604 -0.07778,2.230215 -0.110309,0.181019 -0.23971,0.347189 -0.384667,0.492146 m 0.707107,0.707107 c 0.19799,-0.19799 0.377595,-0.425679 0.533159,-0.683066 0.576999,-0.953179 0.607404,-2.181424 0.122329,-3.184101 a 3.32,3.32 0 0 0 -0.961665,-1.200668 c -0.858428,-0.663266 -1.321583,-1.72039 -1.441084,-2.798728 l -0.261629,-2.360323 -2.699027,0.300521 0.304056,2.73226 c 0.111723,1.009749 -0.207182,1.990506 -0.756604,2.845398 -0.247487,0.384666 -0.427093,0.881055 -0.494975,1.542907 -0.10748,1.040861 0.160513,2.143241 0.918532,2.86449 a 3.392,3.392 0 0 0 4.736908,-0.05869 z" /><path
     style="fill:#c83737"
     id="path10"
     d="m 29.169514,12.101185 a 3.345,3.345 0 0 0 0.577707,-0.460326 c 0.348603,-0.348604 0.598212,-0.76509 0.719834,-1.203496 a 1.448,1.448 0 0 1 0.373353,-0.6392246 1.5,1.5 0 0 1 2.120613,2.1191986 c -0.311127,0.311127 -0.742462,0.468105 -1.18299,0.429214 -0.649124,-0.05657 -1.349866,0.140715 -2.029396,0.571343 l -4.693775,2.981162 -0.536694,-0.843579 z" /><path
     style="fill:#800000"
     id="path12"
     d="m 32.607468,11.563784 c -0.206476,0.206475 -0.492854,0.31042 -0.786303,0.284257 -0.752362,-0.06647 -1.555635,0.154149 -2.322846,0.637103 a 3.832,3.832 0 0 0 0.601748,-0.490025 c 0.409415,-0.409415 0.703571,-0.901561 0.849942,-1.422699 a 0.95,0.95 0 0 1 0.246073,-0.420021 0.998,0.998 0 0 1 1.411386,1.411385 m 0.707106,0.707107 A 1.999,1.999 0 0 0 30.488976,9.4452921 c -0.247488,0.2474874 -0.412951,0.543058 -0.501339,0.8563059 a 2.268,2.268 0 0 1 -0.59397,0.985707 c -0.147785,0.147786 -0.313955,0.2786 -0.491439,0.392445 l -5.072784,3.221578 1.071974,1.687157 5.11521,-3.248449 c 0.512653,-0.325976 1.110865,-0.549422 1.716149,-0.495682 a 1.984,1.984 0 0 0 1.581797,-0.573463 z" /><path
     style="fill:#ffaaaa"
     id="path14"
     d="m 15.256481,4.1660329 a 1.536,1.536 0 0 1 2.432448,1.8243355 2.663,2.663 0 0 0 -0.280722,1.6906923 c 0.21284,1.1349064 0.694379,3.9230283 0.888834,5.0551063 l -1.019648,0.179605 C 17.09708,11.852991 16.669988,9.3484185 16.415429,8.0148151 16.306535,7.4505439 15.776912,6.8601097 15.274159,6.3573568 a 1.546,1.546 0 0 1 -0.01768,-2.1913239 z" /><path
     style="fill:#800000"
     id="path16"
     d="m 17.720041,12.330288 -0.03323,0.0064 A 286.95,286.95 0 0 0 16.906869,7.9207699 C 16.773225,7.2228555 16.186327,6.5595894 15.610035,5.9847116 c -0.403758,-0.403758 -0.403758,-1.0613673 0,-1.4651253 a 1.037,1.037 0 0 1 1.641902,1.2303658 3.136,3.136 0 0 0 -0.333755,2.0223254 c 0.183141,0.9849997 0.576292,3.2491555 0.801859,4.5580105 m 1.154706,0.812466 c 0,0 -0.704986,-4.1104122 -0.974393,-5.5536172 a 2.145,2.145 0 0 1 0.226981,-1.3569379 2.037,2.037 0 1 0 -3.224407,0.4596194 c 0.24678,0.2467803 0.925603,0.9142891 1.021769,1.4163349 a 352.06,352.06 0 0 1 0.944695,5.3867398 z" /><path
     style="fill:#ffaaaa"
     id="path18"
     d="m 30.801753,18.367506 c 1.231417,-0.133025 2.291315,-0.646909 2.984336,-1.446007 a 2.94,2.94 0 0 1 0.660787,-0.554584 c 0.82005,-0.507984 1.843808,-0.603491 2.672186,-0.247293 a 2.893,2.893 0 0 1 1.337398,4.186472 c -0.120284,0.194866 -0.264265,0.378629 -0.430173,0.546509 -0.679967,0.688465 -1.742054,0.981242 -2.7047,0.74547 -0.438917,-0.107574 -0.828913,-0.30012 -1.158199,-0.573883 -0.890097,-0.73979 -2.119317,-1.067247 -3.461009,-0.921203 l -8.566721,0.928764 -0.186236,-1.704947 z" /><path
     style="fill:#800000"
     id="path20"
     d="m 38.030986,20.043468 c -0.100318,0.162532 -0.222318,0.316385 -0.361133,0.457507 -0.559063,0.566841 -1.434041,0.805889 -2.229291,0.611162 -0.365044,-0.09019 -0.68669,-0.248763 -0.956233,-0.472722 -0.995844,-0.827391 -2.358001,-1.194598 -3.835716,-1.033801 l -8.070721,0.875321 -0.07732,-0.710519 8.354102,-0.906056 c 1.356631,-0.1474 2.531845,-0.720549 3.307868,-1.614132 a 2.398,2.398 0 0 1 0.546733,-0.459286 c 0.682818,-0.424644 1.52974,-0.50591 2.210212,-0.212806 a 2.393,2.393 0 0 1 1.111505,3.465334 m 0.850947,0.525251 a 3.395,3.395 0 0 0 -1.565845,-4.909187 c -1.006467,-0.433219 -2.202775,-0.296152 -3.133308,0.282309 -0.312889,0.194671 -0.567439,0.414775 -0.774191,0.652633 -0.664281,0.763955 -1.654519,1.166891 -2.660607,1.275655 l -9.348855,1.013589 0.293444,2.698323 9.064097,-0.98253 c 1.094543,-0.118798 2.242209,0.106611 3.088527,0.808802 a 3.35,3.35 0 0 0 1.357091,0.674322 c 1.123883,0.275363 2.367755,-0.0568 3.180107,-0.879781 a 3.603,3.603 0 0 0 0.499537,-0.634138 z" /><path
     style="fill:#ffaaaa;stroke:none"
     id="path22"
     d="M 23.404473,3.0891093 C 23.835808,2.6577741 24.432606,2.4456421 25.041425,2.511403 a 2.004,2.004 0 0 1 1.494117,0.9326739 1.998,1.998 0 0 1 0.05233,2.0534381 C 26.490994,5.6608566 26.377857,5.8079349 26.249871,5.9359212 25.982584,6.2032076 25.64883,6.3884695 25.282548,6.4719081 A 3.184,3.184 0 0 0 23.731863,7.3140723 C 23.515489,7.530447 23.336591,7.7772272 23.198705,8.0480491 l -2.220315,4.3543639 -0.78701,-0.40093 2.262034,-4.4370949 c 0.397394,-0.7806459 0.526088,-1.715441 0.381131,-2.7796368 a 1.999,1.999 0 0 1 0.569928,-1.695642 z" /><path
     style="fill:#800000"
     id="path24"
     d="M 25.897731,5.5823678 C 25.69762,5.782479 25.446597,5.9217791 25.17224,5.9840044 a 3.68,3.68 0 0 0 -1.791809,0.9758074 c -0.08627,0.086267 -0.167584,0.1760696 -0.243244,0.2701148 0.254558,-0.7438763 0.319612,-1.5867476 0.19304,-2.5137646 a 1.51,1.51 0 0 1 1.658872,-1.70837 1.521,1.521 0 0 1 1.127835,0.7063997 1.49,1.49 0 0 1 -0.219203,1.8681761 M 21.196886,13.074871 23.644889,8.2750304 A 2.407,2.407 0 0 1 24.087538,7.6669186 C 24.43897,7.3154865 24.895054,7.0729489 25.394978,6.9591047 A 2.49,2.49 0 0 0 26.604838,6.2894746 2.498,2.498 0 0 0 26.95627,3.1718408 2.516,2.516 0 0 0 23.050919,2.7355559 c -0.577706,0.5777062 -0.814587,1.3661303 -0.712056,2.1163706 0.116673,0.8520637 0.0601,1.7189766 -0.330219,2.4854803 l -2.489016,4.8818652 z" /><path
     style="fill:#ffaaaa;stroke:none"
     id="path26"
     d="m 14.939478,26.448255 -0.753821,1.405276 c -0.679272,1.27021 -1.535604,2.869573 -1.991589,3.694317 -0.306394,0.556789 -0.620473,0.973658 -1.872375,1.246535 -0.6258323,0.135952 -1.0815733,0.546682 -1.2177213,1.098126 a 1.462,1.462 0 1 0 2.8803403,0.407289 c 0.0294,-0.728182 0.09789,-1.276758 0.221577,-1.777715 0.105948,-0.429114 0.250598,-0.810562 0.439716,-1.16352 l 2.568372,-4.762193 z" /><path
     style="fill:#800000"
     id="path28"
     d="m 9.5901237,34.013566 a 0.962,0.962 0 1 0 1.8940233,0.267804 c 0.02217,-0.548682 0.06619,-1.002354 0.137995,-1.414149 -0.302193,0.168476 -0.685243,0.305659 -1.19449,0.415803 -0.162393,0.03613 -0.7049743,0.193664 -0.8375283,0.730542 m -0.970847,-0.2397 c 0.194636,-0.788328 0.849432,-1.304419 1.5962123,-1.46716 1.090961,-0.238449 1.293059,-0.548031 1.541553,-0.999633 0.829449,-1.502997 2.992355,-5.582478 2.983523,-5.534187 l 1.151682,0.621167 -2.805013,5.203331 a 4.422,4.422 0 0 0 -0.395669,1.047702 c -0.133752,0.541732 -0.184971,1.107963 -0.207808,1.676051 A 1.961,1.961 0 1 1 8.6192767,33.773866 Z" /><path
     style="fill:#ff8080;stroke:none"
     id="path30"
     d="M 6.0129703,5.3944681 C 6.201602,5.1916207 6.4214147,5.0095759 6.66565,4.8570697 A 2.944,2.944 0 0 1 9.549119,4.7431672 c 1.22916,0.6459569 1.854985,1.9216277 1.595452,3.2506754 -0.249393,1.2770266 0.09292,2.4625164 0.941696,3.2517714 l 0.128152,0.119172 c 0.323678,0.300994 0.695171,0.418405 0.941387,0.495788 0.07018,0.02293 0.133707,0.0383 0.179907,0.06351 0.09174,0.09077 0.0384,0.531408 -0.33001,0.927583 -0.368411,0.396174 -0.803332,0.480602 -0.930021,0.362792 L 11.968228,12.98345 C 11.842337,12.71207 11.684979,12.373196 11.42428,12.130767 L 10.916063,11.658166 C 10.121516,10.919302 9.091579,10.47909 8.0188134,10.418277 7.319756,10.379981 6.6794385,10.108174 6.1668278,9.6314872 5.5795224,9.0853412 5.2405657,8.3440844 5.2115186,7.5441667 5.1824714,6.7442491 5.4675045,5.9810412 6.0129703,5.3944681 Z" /><path
     style="fill:#800000"
     id="path32"
     d="m 12.639552,12.511181 a 1,1 0 0 1 -0.248297,0.196524 C 12.256995,12.420353 12.072388,12.052042 11.764822,11.76603 L 11.256605,11.293429 C 10.377111,10.475571 9.237185,9.9877002 8.0467574,9.9212542 7.4646292,9.8879102 6.9321042,9.6617192 6.5073696,9.2667502 5.4982587,8.3283588 5.4399966,6.7433885 6.3790695,5.7335454 6.5377381,5.5629192 6.7232452,5.4104229 6.9300916,5.2805016 A 2.44,2.44 0 0 1 9.316136,5.1860726 c 1.028609,0.5400279 1.553357,1.6042669 1.337428,2.711676 -0.275082,1.4074454 0.116343,2.7751214 1.048955,3.6724214 l -6.81e-4,7.32e-4 0.172823,0.160711 c 0.318551,0.296228 0.666518,0.447749 0.932403,0.540692 -0.03564,0.07064 -0.0892,0.154659 -0.167512,0.238874 m 0.732302,0.680981 c 0.526398,-0.566068 0.647271,-1.309871 0.270136,-1.660577 -0.169894,-0.157987 -0.688708,-0.162497 -1.086348,-0.53227 l -0.128153,-0.11917 C 11.664432,10.170561 11.434995,9.1132882 11.634897,8.0906619 11.916123,6.6575209 11.293332,5.095173 9.78142,4.3009871 A 3.447,3.447 0 0 0 6.3990629,4.433008 C 6.1112586,4.6132765 5.8605964,4.8226218 5.6467684,5.0525643 A 3.5,3.5 0 0 0 5.8263886,9.9990522 C 6.4437184,10.573119 7.211101,10.875689 7.9902911,10.91886 a 4.139,4.139 0 0 1 2.5845999,1.10619 l 0.508218,0.4726 c 0.325141,0.302356 0.481508,0.92571 0.651402,1.083698 0.377867,0.351386 1.110945,0.176883 1.637343,-0.389186 z" /><path
     d="m 4.3974426,24.924567 a 1.963,1.963 0 0 1 2.3582011,-0.313249 1.73,1.73 0 0 0 1.5379573,0.09405 c 0.00212,-7.08e-4 2.059802,-0.89449 2.749938,-1.18299 0.253852,-0.106773 0.45962,-0.292742 0.610233,-0.443356 l 0.217789,-0.223446 a 0.463,0.463 0 0 1 0.0594,-0.05233 c 0.04667,-0.01556 0.353554,0.141422 0.526795,0.583363 0.147078,0.376181 0.08414,0.686601 -0.0057,0.779232 -0.0085,-0.0028 -0.03323,-0.0064 -0.0601,-0.01061 -0.197283,-0.02758 -0.527502,-0.07354 -0.884591,0.08839 -0.69155,0.313955 -2.789536,1.19996 -2.789536,1.19996 -0.1979899,0.08485 -0.3733524,0.203647 -0.5246732,0.354968 -0.2481945,0.248194 -0.4186072,0.569928 -0.4935605,0.933381 A 1.94,1.94 0 0 1 6.8157478,27.986339 1.982,1.982 0 0 1 4.7106909,27.960176 1.957,1.957 0 0 1 3.8296358,26.506365 1.97,1.97 0 0 1 4.3974426,24.924567 Z"
     id="path34"
     style="fill:#ffaaaa;stroke:none" /><path
     d="m 12.01369,23.62844 c -0.07566,0.0021 -0.155564,0.0085 -0.240417,0.02121 a 3.058,3.058 0 0 0 0.18102,-0.164049 0.864,0.864 0 0 1 0.0594,0.142836 M 6.8221117,27.349236 A 1.466,1.466 0 0 1 4.750996,25.27812 1.46,1.46 0 0 1 6.5074492,25.046189 2.241,2.241 0 0 0 7.9881308,25.312061 2.339,2.339 0 0 0 7.2103134,26.630108 c -0.057276,0.273651 -0.191626,0.522552 -0.3882017,0.719128 m 5.9835373,-2.827013 c 0.263751,-0.263751 0.323148,-0.795495 0.118794,-1.318047 -0.248901,-0.633568 -0.791959,-1.012577 -1.214809,-0.847114 -0.06081,0.02404 -0.130815,0.08556 -0.208597,0.163342 -0.06152,0.06152 -0.127986,0.133643 -0.200111,0.205768 -0.132229,0.132229 -0.282136,0.265165 -0.449013,0.334461 -0.69155,0.289914 -2.7541806,1.184404 -2.7541806,1.184404 -0.3549676,0.152735 -0.7580185,0.124451 -1.0931871,-0.06788 a 2.46,2.46 0 0 0 -2.9606561,0.393858 2.468,2.468 0 0 0 0.3903229,3.805649 2.472,2.472 0 0 0 3.0950064,-0.320319 C 7.8771151,27.708446 8.094904,27.282768 8.1889492,26.835169 a 1.354,1.354 0 0 1 0.3592102,-0.681651 c 0.1032376,-0.103237 0.22486,-0.18809 0.3655742,-0.248194 0,0 2.1078854,-0.890248 2.8022644,-1.205617 0.374766,-0.169706 0.710642,0.02333 0.893783,-0.04808 a 0.57,0.57 0 0 0 0.195868,-0.1294 z"
     id="path36"
     style="fill:#800000" /><path
     d="m 25.110722,24.575963 c 0.732562,-0.732563 1.817971,-1.023183 2.056266,-0.784888 0.148492,0.148492 0.189505,0.414364 0.113137,0.731148 -0.168291,0.697207 -0.005,1.358352 0.449013,1.812315 l 0.195161,0.195161 c 0.731856,0.731856 1.571899,1.38098 2.742161,1.175212 1.30249,-0.230517 2.560433,0.393858 3.207436,1.588161 0.462448,0.852771 0.445477,1.954444 -0.04172,2.805093 a 3.31,3.31 0 0 1 -0.519724,0.680944 3.003,3.003 0 0 1 -4.241933,-7.07e-4 c -0.690844,-0.690844 -1.001971,-1.677965 -0.833679,-2.641044 0.175362,-1.005506 -0.174656,-1.95515 -1.041569,-2.822063 l -0.222738,-0.222739 c -0.453963,-0.453962 -1.115108,-0.617304 -1.812315,-0.449013 -0.31537,0.07495 -0.581949,0.03465 -0.730441,-0.113844 -0.251023,-0.252437 -0.04596,-1.22683 0.680944,-1.953736 z"
     id="path40"
     style="fill:#ffaaaa;stroke:none" /><path
     d="m 32.959607,32.424848 c -0.9751,0.975101 -2.561141,0.974393 -3.535534,0 -0.575585,-0.575585 -0.835093,-1.39795 -0.693672,-2.201223 0.205768,-1.175919 -0.190919,-2.272641 -1.180161,-3.261884 L 27.326794,26.738296 C 26.756159,26.16766 25.903388,25.949872 25.044961,26.156347 a 0.77,0.77 0 0 1 -0.219203,0.02404 c -7.08e-4,-0.228395 0.176069,-0.788424 0.638517,-1.250872 0.45467,-0.454669 1.067024,-0.6965 1.353402,-0.71842 a 0.775,0.775 0 0 1 -0.02333,0.195869 c -0.206475,0.858427 0.01131,1.711198 0.581949,2.281833 l 0.193747,0.193747 c 0.517602,0.517603 1.594526,1.594526 3.184102,1.313098 1.085409,-0.191626 2.136169,0.331633 2.67852,1.333603 a 2.43,2.43 0 0 1 -0.03465,2.318603 c -0.123744,0.215668 -0.270822,0.409415 -0.438406,0.576999 m 0.707107,0.707107 a 3.75,3.75 0 0 0 0.598919,-0.78701 3.431,3.431 0 0 0 0.04738,-3.291582 c -0.79903,-1.476439 -2.327088,-2.090915 -3.732109,-1.84272 -0.944695,0.166877 -1.624932,-0.357796 -2.303047,-1.035912 l -0.194455,-0.194454 c -0.350725,-0.350725 -0.432749,-0.858428 -0.316076,-1.341381 0.113844,-0.473055 0.04101,-0.913582 -0.246073,-1.200668 -0.546594,-0.546593 -1.943837,-0.03606 -2.763374,0.783475 -0.820244,0.820243 -1.22683,2.113542 -0.680236,2.660135 0.287085,0.287086 0.72832,0.359211 1.200667,0.246073 0.482247,-0.115965 0.990656,-0.03465 1.341381,0.316077 l 0.223446,0.223446 c 0.671752,0.671751 1.066317,1.44674 0.902976,2.382243 a 3.5,3.5 0 0 0 5.920605,3.082278 z"
     id="path42"
     style="fill:#800000" /><path
     d="m 12.807064,12.272305 c 3.898986,-3.8989867 10.243148,-3.8989867 14.142135,0 3.898987,3.898987 3.898987,10.243149 0,14.142136 -3.898987,3.898986 -10.243149,3.898986 -14.142135,0 -3.8989872,-3.898987 -3.8989872,-10.243149 0,-14.142136 z"
     id="path46"
     style="fill:#ffaaaa;stroke:none" /><path
     d="m 26.595646,26.060887 c -3.703826,3.703826 -9.731204,3.703826 -13.435029,0 -3.7038254,-3.703825 -3.7038254,-9.731203 0,-13.435029 3.703825,-3.7038249 9.731203,-3.7038249 13.435029,0 3.703825,3.703826 3.703825,9.731204 0,13.435029 m 0.707107,0.707107 c 4.100512,-4.100512 4.100512,-10.74873 0,-14.849242 -4.100513,-4.1005126 -10.748731,-4.1005126 -14.849243,0 -4.1005121,4.100512 -4.1005121,10.74873 0,14.849242 4.100512,4.100512 10.74873,4.100512 14.849243,0 z"
     id="path48"
     style="fill:#800000" /><circle
     transform="rotate(135)"
     cx="3.2787228"
     cy="-33.562222"
     r="2"
     id="circle52"
     style="fill:#ff6600" /><path
     d="m 22.474325,27.11114 c -0.584777,0.584777 -1.536543,0.584777 -2.12132,0 -0.584777,-0.584777 -0.584777,-1.536543 0,-2.121321 0.584777,-0.584777 1.536543,-0.584777 2.12132,0 0.584778,0.584778 0.584778,1.536544 0,2.121321 m 0.707107,0.707107 c 0.972272,-0.972272 0.972272,-2.563262 0,-3.535534 -0.972272,-0.972272 -2.562555,-0.972979 -3.535534,0 -0.972272,0.972272 -0.972272,2.563262 0,3.535534 0.972272,0.972271 2.563262,0.972271 3.535534,0 z"
     id="path54"
     style="fill:#550000" /><path
     d="m 14.214339,19.019518 c 0.442649,-0.442649 0.971565,-0.442649 1.414213,0 0.442649,0.442648 0.442649,0.971564 0,1.414213 -0.442648,0.442649 -0.971564,0.442649 -1.414213,0 -0.442649,-0.442649 -0.442649,-0.971565 0,-1.414213 z"
     id="path58"
     style="fill:#808000" /><path
     d="m 15.274866,20.080178 c -0.244659,0.244659 -0.462448,0.244659 -0.707107,0 -0.244659,-0.244659 -0.244659,-0.462448 0,-0.707107 0.244659,-0.244659 0.462448,-0.244659 0.707107,0 0.244659,0.244659 0.244659,0.462448 0,0.707107 m 0.707107,0.707107 c 0.637103,-0.637104 0.636396,-1.484925 0,-2.121321 -0.636396,-0.636396 -1.484924,-0.636396 -2.121321,0 -0.636396,0.636396 -0.636396,1.484924 0,2.121321 0.636397,0.636396 1.484925,0.636396 2.121321,0 z"
     id="path60"
     style="fill:#550000" /><path
     d="m 25.867724,18.282713 c 0.555079,-0.555079 1.566241,-0.555079 2.12132,0 0.555079,0.555079 0.555079,1.566241 0,2.12132 -0.555079,0.555079 -1.566241,0.555079 -2.12132,0 -0.555079,-0.555079 -0.555079,-1.566241 0,-2.12132 z"
     id="path64"
     style="fill:#808000" /><path
     d="m 27.635491,20.05048 c -0.363453,0.363453 -1.050761,0.363453 -1.414214,0 -0.363453,-0.363453 -0.363453,-1.050761 0,-1.414214 0.363453,-0.363453 1.050761,-0.363453 1.414214,0 0.363453,0.363453 0.363453,1.050761 0,1.414214 m 0.707106,0.707106 c 0.75519,-0.75519 0.75519,-2.073237 0,-2.828427 -0.75519,-0.75519 -2.074651,-0.753776 -2.828427,0 -0.753776,0.753776 -0.75519,2.073237 0,2.828427 0.75519,0.75519 2.074652,0.753776 2.828427,0 z"
     id="path66"
     style="fill:#550000" /><metadata
     id="metadata70"><rdf:RDF><rdf:Description
         dc:language="en"
         dc:format="image/svg+xml"
         dc:date="2017-10-29"
         dc:publisher="Iconscout"
         dc:description="virus"
         dc:title="virus"
         about="https://iconscout.com/legal#licenses"><dc:creator><rdf:Bag><rdf:li>Icons8</rdf:li></rdf:Bag></dc:creator></rdf:Description><cc:Work
         rdf:about=""><dc:format>image/svg+xml</dc:format><dc:type
           rdf:resource="http://purl.org/dc/dcmitype/StillImage" /><dc:title></dc:title></cc:Work></rdf:RDF></metadata></svg>