<?xml version="1.0" encoding="UTF-8" standalone="no"?>
<svg
   xmlns:osb="http://www.openswatchbook.org/uri/2009/osb"
   xmlns:dc="http://purl.org/dc/elements/1.1/"
   xmlns:cc="http://creativecommons.org/ns#"
   xmlns:rdf="http://www.w3.org/1999/02/22-rdf-syntax-ns#"
   xmlns:svg="http://www.w3.org/2000/svg"
   xmlns="http://www.w3.org/2000/svg"
   xmlns:xlink="http://www.w3.org/1999/xlink"
   xmlns:sodipodi="http://sodipodi.sourceforge.net/DTD/sodipodi-0.dtd"
   xmlns:inkscape="http://www.inkscape.org/namespaces/inkscape"
   version="1.1"
   width="40.000011"
   viewBox="0 0 40.000011 40"
   height="40"
   enable-background="new 0 0 512 512"
   id="Layer_1"
   sodipodi:docname="virus-4.svg"
   inkscape:version="0.92.3 (2405546, 2018-03-11)">
  <sodipodi:namedview
     pagecolor="#ffffff"
     bordercolor="#666666"
     borderopacity="1"
     objecttolerance="10"
     gridtolerance="10"
     guidetolerance="10"
     inkscape:pageopacity="0"
     inkscape:pageshadow="2"
     inkscape:window-width="1366"
     inkscape:window-height="714"
     id="namedview162"
     showgrid="false"
     inkscape:zoom="2.085965"
     inkscape:cx="-102.04785"
     inkscape:cy="-4.2181362"
     inkscape:window-x="0"
     inkscape:window-y="26"
     inkscape:window-maximized="1"
     inkscape:current-layer="Layer_1" />
  <metadata
     id="metadata55">
    <rdf:RDF>
      <cc:Work
         rdf:about="">
        <dc:format>image/svg+xml</dc:format>
        <dc:type
           rdf:resource="http://purl.org/dc/dcmitype/StillImage" />
        <dc:title></dc:title>
      </cc:Work>
    </rdf:RDF>
  </metadata>
  <defs
     id="defs53">
    <linearGradient
       osb:paint="solid"
       id="linearGradient1270">
      <stop
         id="stop1268"
         offset="0"
         style="stop-color:#b1e75a;stop-opacity:1;" />
    </linearGradient>
    <linearGradient
       osb:paint="solid"
       id="linearGradient1264">
      <stop
         id="stop1262"
         offset="0"
         style="stop-color:#b1e75a;stop-opacity:1;" />
    </linearGradient>
    <linearGradient
       osb:paint="solid"
       id="linearGradient1258">
      <stop
         id="stop1256"
         offset="0"
         style="stop-color:#9b59b6;stop-opacity:1;" />
    </linearGradient>
    <linearGradient
       gradientTransform="matrix(0.05742002,0.00450107,-0.00450107,0.05742002,47.335029,12.551095)"
       gradientUnits="userSpaceOnUse"
       y2="-65.806503"
       x2="-529.75867"
       y1="-65.806503"
       x1="-637.69916"
       id="linearGradient1260"
       xlink:href="#linearGradient1258" />
    <linearGradient
       gradientTransform="matrix(0.05759617,0,0,0.05759617,55.188232,-6.9072222)"
       gradientUnits="userSpaceOnUse"
       y2="-86.067154"
       x2="-428.61096"
       y1="-86.067154"
       x1="-508.61017"
       id="linearGradient1266"
       xlink:href="#linearGradient1258" />
    <linearGradient
       gradientTransform="matrix(0.05759617,0,0,0.05759617,46.707062,10.048524)"
       gradientUnits="userSpaceOnUse"
       y2="-63.637001"
       x2="-304.14429"
       y1="-63.637001"
       x1="-412.08481"
       id="linearGradient1272"
       xlink:href="#linearGradient1258" />
  </defs>
  <path
     style="opacity:1;fill:#cc8914;fill-opacity:1;stroke:#008080;stroke-width:0.98898435;stroke-miterlimit:4;stroke-dasharray:none;stroke-opacity:1"
     d="m 20.349762,1.6665204 c 0,0.6472941 -0.524736,2.024413 -1.172028,2.024413 -0.647294,0 -1.172029,-1.3771189 -1.172029,-2.024413 0,-0.6472928 0.524734,-1.17202828 1.172029,-1.17202828 0.647292,0 1.172028,0.52473548 1.172028,1.17202828 z"
     id="path362"
     inkscape:connector-curvature="0"
     sodipodi:nodetypes="sssss" />
  <circle
     style="opacity:1;fill:#08966e;fill-opacity:1;stroke:#008080;stroke-width:1.6093998;stroke-miterlimit:4;stroke-dasharray:none;stroke-opacity:1"
     id="circle373"
     cx="19.959583"
     cy="19.966045"
     r="15.537527" />
  <g
     id="g1199"
     transform="matrix(1.3971413,0,0,1.3971413,-68.971641,-57.847741)">
    <path
       sodipodi:type="star"
       style="opacity:1;fill:#cc8914;fill-opacity:1;stroke:none;stroke-width:1.07917559;stroke-miterlimit:4;stroke-dasharray:none;stroke-opacity:1"
       id="path1194"
       sodipodi:sides="3"
       sodipodi:cx="59.282898"
       sodipodi:cy="52.196724"
       sodipodi:r1="3.3061712"
       sodipodi:r2="1.6530855"
       sodipodi:arg1="2.3305591"
       sodipodi:arg2="3.3777566"
       inkscape:flatsided="false"
       inkscape:rounded="1"
       inkscape:randomized="0"
       d="m 57.005774,54.593696 c -2.075839,-1.972047 0,0 0.669924,-2.783752 0.669923,-2.783753 -2.075839,-1.972047 0.669923,-2.783753 2.745762,-0.811706 0,0 2.075839,1.972047 2.075839,1.972047 2.745762,-0.811706 2.075839,1.972047 -0.669924,2.783752 0,0 -2.745763,0.811705 -2.745762,0.811706 -0.669923,2.783753 -2.745762,0.811706 z"
       inkscape:transform-center-x="0.086032829"
       inkscape:transform-center-y="0.078585899" />
    <path
       inkscape:connector-curvature="0"
       id="path1188"
       d="m 59.544334,48.713292 c -0.161743,0.0073 -0.504889,0.109978 -1.193891,0.313665 -1.608132,0.475399 -1.335571,0.409027 -0.966481,0.815531 0.01244,-0.0036 0.01673,-0.0042 0.0294,-0.0079 2.756002,-0.814734 3.33e-4,6.11e-4 2.083915,1.980014 2.08358,1.979403 2.756339,-0.816082 2.083916,1.978053 -0.0082,0.03411 -0.01176,0.04597 -0.0196,0.07843 0.635571,0.380341 0.512711,0.950585 0.95472,-0.886106 0.672421,-2.794136 -3.35e-4,0.0014 -2.083917,-1.978053 -1.562685,-1.484553 -0.402836,-2.315468 -0.888065,-2.29368 z"
       style="opacity:1;fill:#98660f;fill-opacity:1;stroke:none;stroke-width:1.08320093;stroke-miterlimit:4;stroke-dasharray:none;stroke-opacity:1" />
    <path
       inkscape:transform-center-y="0.078585899"
       inkscape:transform-center-x="0.086032829"
       d="m 57.005774,54.593696 c -2.075839,-1.972047 0,0 0.669924,-2.783752 0.669923,-2.783753 -2.075839,-1.972047 0.669923,-2.783753 2.745762,-0.811706 0,0 2.075839,1.972047 2.075839,1.972047 2.745762,-0.811706 2.075839,1.972047 -0.669924,2.783752 0,0 -2.745763,0.811705 -2.745762,0.811706 -0.669923,2.783753 -2.745762,0.811706 z"
       inkscape:randomized="0"
       inkscape:rounded="1"
       inkscape:flatsided="false"
       sodipodi:arg2="3.3777566"
       sodipodi:arg1="2.3305591"
       sodipodi:r2="1.6530855"
       sodipodi:r1="3.3061712"
       sodipodi:cy="52.196724"
       sodipodi:cx="59.282898"
       sodipodi:sides="3"
       id="path1182"
       style="opacity:1;fill:none;fill-opacity:1;stroke:#008080;stroke-width:0.5;stroke-miterlimit:4;stroke-dasharray:none;stroke-opacity:1"
       sodipodi:type="star" />
  </g>
  <g
     transform="matrix(0.6928504,0,0,0.6928504,-19.805102,-27.859177)"
     id="g1207">
    <path
       inkscape:transform-center-y="0.078585899"
       inkscape:transform-center-x="0.086032829"
       d="m 57.005774,54.593696 c -2.075839,-1.972047 0,0 0.669924,-2.783752 0.669923,-2.783753 -2.075839,-1.972047 0.669923,-2.783753 2.745762,-0.811706 0,0 2.075839,1.972047 2.075839,1.972047 2.745762,-0.811706 2.075839,1.972047 -0.669924,2.783752 0,0 -2.745763,0.811705 -2.745762,0.811706 -0.669923,2.783753 -2.745762,0.811706 z"
       inkscape:randomized="0"
       inkscape:rounded="1"
       inkscape:flatsided="false"
       sodipodi:arg2="3.3777566"
       sodipodi:arg1="2.3305591"
       sodipodi:r2="1.6530855"
       sodipodi:r1="3.3061712"
       sodipodi:cy="52.196724"
       sodipodi:cx="59.282898"
       sodipodi:sides="3"
       id="path1201"
       style="opacity:1;fill:#cc8914;fill-opacity:1;stroke:none;stroke-width:1.07917559;stroke-miterlimit:4;stroke-dasharray:none;stroke-opacity:1"
       sodipodi:type="star" />
    <path
       style="opacity:1;fill:#98660f;fill-opacity:1;stroke:none;stroke-width:1.08320093;stroke-miterlimit:4;stroke-dasharray:none;stroke-opacity:1"
       d="m 59.544334,48.713292 c -0.161743,0.0073 -0.504889,0.109978 -1.193891,0.313665 -1.608132,0.475399 -1.335571,0.409027 -0.966481,0.815531 0.01244,-0.0036 0.01673,-0.0042 0.0294,-0.0079 2.756002,-0.814734 3.33e-4,6.11e-4 2.083915,1.980014 2.08358,1.979403 2.756339,-0.816082 2.083916,1.978053 -0.0082,0.03411 -0.01176,0.04597 -0.0196,0.07843 0.635571,0.380341 0.512711,0.950585 0.95472,-0.886106 0.672421,-2.794136 -3.35e-4,0.0014 -2.083917,-1.978053 -1.562685,-1.484553 -0.402836,-2.315468 -0.888065,-2.29368 z"
       id="path1203"
       inkscape:connector-curvature="0" />
    <path
       sodipodi:type="star"
       style="opacity:1;fill:none;fill-opacity:1;stroke:#008080;stroke-width:0.5;stroke-miterlimit:4;stroke-dasharray:none;stroke-opacity:1"
       id="path1205"
       sodipodi:sides="3"
       sodipodi:cx="59.282898"
       sodipodi:cy="52.196724"
       sodipodi:r1="3.3061712"
       sodipodi:r2="1.6530855"
       sodipodi:arg1="2.3305591"
       sodipodi:arg2="3.3777566"
       inkscape:flatsided="false"
       inkscape:rounded="1"
       inkscape:randomized="0"
       d="m 57.005774,54.593696 c -2.075839,-1.972047 0,0 0.669924,-2.783752 0.669923,-2.783753 -2.075839,-1.972047 0.669923,-2.783753 2.745762,-0.811706 0,0 2.075839,1.972047 2.075839,1.972047 2.745762,-0.811706 2.075839,1.972047 -0.669924,2.783752 0,0 -2.745763,0.811705 -2.745762,0.811706 -0.669923,2.783753 -2.745762,0.811706 z"
       inkscape:transform-center-x="0.086032829"
       inkscape:transform-center-y="0.078585899" />
  </g>
  <g
     id="g1215"
     transform="matrix(0.92497658,0,0,0.92497658,-28.626781,-32.359996)">
    <path
       sodipodi:type="star"
       style="opacity:1;fill:#cc8914;fill-opacity:1;stroke:none;stroke-width:1.07917559;stroke-miterlimit:4;stroke-dasharray:none;stroke-opacity:1"
       id="path1209"
       sodipodi:sides="3"
       sodipodi:cx="59.282898"
       sodipodi:cy="52.196724"
       sodipodi:r1="3.3061712"
       sodipodi:r2="1.6530855"
       sodipodi:arg1="2.3305591"
       sodipodi:arg2="3.3777566"
       inkscape:flatsided="false"
       inkscape:rounded="1"
       inkscape:randomized="0"
       d="m 57.005774,54.593696 c -2.075839,-1.972047 0,0 0.669924,-2.783752 0.669923,-2.783753 -2.075839,-1.972047 0.669923,-2.783753 2.745762,-0.811706 0,0 2.075839,1.972047 2.075839,1.972047 2.745762,-0.811706 2.075839,1.972047 -0.669924,2.783752 0,0 -2.745763,0.811705 -2.745762,0.811706 -0.669923,2.783753 -2.745762,0.811706 z"
       inkscape:transform-center-x="0.086032829"
       inkscape:transform-center-y="0.078585899" />
    <path
       inkscape:connector-curvature="0"
       id="path1211"
       d="m 59.544334,48.713292 c -0.161743,0.0073 -0.504889,0.109978 -1.193891,0.313665 -1.608132,0.475399 -1.335571,0.409027 -0.966481,0.815531 0.01244,-0.0036 0.01673,-0.0042 0.0294,-0.0079 2.756002,-0.814734 3.33e-4,6.11e-4 2.083915,1.980014 2.08358,1.979403 2.756339,-0.816082 2.083916,1.978053 -0.0082,0.03411 -0.01176,0.04597 -0.0196,0.07843 0.635571,0.380341 0.512711,0.950585 0.95472,-0.886106 0.672421,-2.794136 -3.35e-4,0.0014 -2.083917,-1.978053 -1.562685,-1.484553 -0.402836,-2.315468 -0.888065,-2.29368 z"
       style="opacity:1;fill:#98660f;fill-opacity:1;stroke:none;stroke-width:1.08320093;stroke-miterlimit:4;stroke-dasharray:none;stroke-opacity:1" />
    <path
       inkscape:transform-center-y="0.078585899"
       inkscape:transform-center-x="0.086032829"
       d="m 57.005774,54.593696 c -2.075839,-1.972047 0,0 0.669924,-2.783752 0.669923,-2.783753 -2.075839,-1.972047 0.669923,-2.783753 2.745762,-0.811706 0,0 2.075839,1.972047 2.075839,1.972047 2.745762,-0.811706 2.075839,1.972047 -0.669924,2.783752 0,0 -2.745763,0.811705 -2.745762,0.811706 -0.669923,2.783753 -2.745762,0.811706 z"
       inkscape:randomized="0"
       inkscape:rounded="1"
       inkscape:flatsided="false"
       sodipodi:arg2="3.3777566"
       sodipodi:arg1="2.3305591"
       sodipodi:r2="1.6530855"
       sodipodi:r1="3.3061712"
       sodipodi:cy="52.196724"
       sodipodi:cx="59.282898"
       sodipodi:sides="3"
       id="path1213"
       style="opacity:1;fill:none;fill-opacity:1;stroke:#008080;stroke-width:0.5;stroke-miterlimit:4;stroke-dasharray:none;stroke-opacity:1"
       sodipodi:type="star" />
  </g>
  <g
     transform="matrix(0.46636856,0,0,0.46636856,-16.745176,0.64046404)"
     id="g1223">
    <path
       inkscape:transform-center-y="0.078585899"
       inkscape:transform-center-x="0.086032829"
       d="m 57.005774,54.593696 c -2.075839,-1.972047 0,0 0.669924,-2.783752 0.669923,-2.783753 -2.075839,-1.972047 0.669923,-2.783753 2.745762,-0.811706 0,0 2.075839,1.972047 2.075839,1.972047 2.745762,-0.811706 2.075839,1.972047 -0.669924,2.783752 0,0 -2.745763,0.811705 -2.745762,0.811706 -0.669923,2.783753 -2.745762,0.811706 z"
       inkscape:randomized="0"
       inkscape:rounded="1"
       inkscape:flatsided="false"
       sodipodi:arg2="3.3777566"
       sodipodi:arg1="2.3305591"
       sodipodi:r2="1.6530855"
       sodipodi:r1="3.3061712"
       sodipodi:cy="52.196724"
       sodipodi:cx="59.282898"
       sodipodi:sides="3"
       id="path1217"
       style="opacity:1;fill:#cc8914;fill-opacity:1;stroke:none;stroke-width:1.07917559;stroke-miterlimit:4;stroke-dasharray:none;stroke-opacity:1"
       sodipodi:type="star" />
    <path
       style="opacity:1;fill:#98660f;fill-opacity:1;stroke:none;stroke-width:1.08320093;stroke-miterlimit:4;stroke-dasharray:none;stroke-opacity:1"
       d="m 59.544334,48.713292 c -0.161743,0.0073 -0.504889,0.109978 -1.193891,0.313665 -1.608132,0.475399 -1.335571,0.409027 -0.966481,0.815531 0.01244,-0.0036 0.01673,-0.0042 0.0294,-0.0079 2.756002,-0.814734 3.33e-4,6.11e-4 2.083915,1.980014 2.08358,1.979403 2.756339,-0.816082 2.083916,1.978053 -0.0082,0.03411 -0.01176,0.04597 -0.0196,0.07843 0.635571,0.380341 0.512711,0.950585 0.95472,-0.886106 0.672421,-2.794136 -3.35e-4,0.0014 -2.083917,-1.978053 -1.562685,-1.484553 -0.402836,-2.315468 -0.888065,-2.29368 z"
       id="path1219"
       inkscape:connector-curvature="0" />
    <path
       sodipodi:type="star"
       style="opacity:1;fill:none;fill-opacity:1;stroke:#008080;stroke-width:0.5;stroke-miterlimit:4;stroke-dasharray:none;stroke-opacity:1"
       id="path1221"
       sodipodi:sides="3"
       sodipodi:cx="59.282898"
       sodipodi:cy="52.196724"
       sodipodi:r1="3.3061712"
       sodipodi:r2="1.6530855"
       sodipodi:arg1="2.3305591"
       sodipodi:arg2="3.3777566"
       inkscape:flatsided="false"
       inkscape:rounded="1"
       inkscape:randomized="0"
       d="m 57.005774,54.593696 c -2.075839,-1.972047 0,0 0.669924,-2.783752 0.669923,-2.783753 -2.075839,-1.972047 0.669923,-2.783753 2.745762,-0.811706 0,0 2.075839,1.972047 2.075839,1.972047 2.745762,-0.811706 2.075839,1.972047 -0.669924,2.783752 0,0 -2.745763,0.811705 -2.745762,0.811706 -0.669923,2.783753 -2.745762,0.811706 z"
       inkscape:transform-center-x="0.086032829"
       inkscape:transform-center-y="0.078585899" />
  </g>
  <g
     id="g1231"
     transform="matrix(0.71507518,0,0,0.71507518,-22.940926,-14.491256)">
    <path
       sodipodi:type="star"
       style="opacity:1;fill:#cc8914;fill-opacity:1;stroke:none;stroke-width:1.07917559;stroke-miterlimit:4;stroke-dasharray:none;stroke-opacity:1"
       id="path1225"
       sodipodi:sides="3"
       sodipodi:cx="59.282898"
       sodipodi:cy="52.196724"
       sodipodi:r1="3.3061712"
       sodipodi:r2="1.6530855"
       sodipodi:arg1="2.3305591"
       sodipodi:arg2="3.3777566"
       inkscape:flatsided="false"
       inkscape:rounded="1"
       inkscape:randomized="0"
       d="m 57.005774,54.593696 c -2.075839,-1.972047 0,0 0.669924,-2.783752 0.669923,-2.783753 -2.075839,-1.972047 0.669923,-2.783753 2.745762,-0.811706 0,0 2.075839,1.972047 2.075839,1.972047 2.745762,-0.811706 2.075839,1.972047 -0.669924,2.783752 0,0 -2.745763,0.811705 -2.745762,0.811706 -0.669923,2.783753 -2.745762,0.811706 z"
       inkscape:transform-center-x="0.086032829"
       inkscape:transform-center-y="0.078585899" />
    <path
       inkscape:connector-curvature="0"
       id="path1227"
       d="m 59.544334,48.713292 c -0.161743,0.0073 -0.504889,0.109978 -1.193891,0.313665 -1.608132,0.475399 -1.335571,0.409027 -0.966481,0.815531 0.01244,-0.0036 0.01673,-0.0042 0.0294,-0.0079 2.756002,-0.814734 3.33e-4,6.11e-4 2.083915,1.980014 2.08358,1.979403 2.756339,-0.816082 2.083916,1.978053 -0.0082,0.03411 -0.01176,0.04597 -0.0196,0.07843 0.635571,0.380341 0.512711,0.950585 0.95472,-0.886106 0.672421,-2.794136 -3.35e-4,0.0014 -2.083917,-1.978053 -1.562685,-1.484553 -0.402836,-2.315468 -0.888065,-2.29368 z"
       style="opacity:1;fill:#98660f;fill-opacity:1;stroke:none;stroke-width:1.08320093;stroke-miterlimit:4;stroke-dasharray:none;stroke-opacity:1" />
    <path
       inkscape:transform-center-y="0.078585899"
       inkscape:transform-center-x="0.086032829"
       d="m 57.005774,54.593696 c -2.075839,-1.972047 0,0 0.669924,-2.783752 0.669923,-2.783753 -2.075839,-1.972047 0.669923,-2.783753 2.745762,-0.811706 0,0 2.075839,1.972047 2.075839,1.972047 2.745762,-0.811706 2.075839,1.972047 -0.669924,2.783752 0,0 -2.745763,0.811705 -2.745762,0.811706 -0.669923,2.783753 -2.745762,0.811706 z"
       inkscape:randomized="0"
       inkscape:rounded="1"
       inkscape:flatsided="false"
       sodipodi:arg2="3.3777566"
       sodipodi:arg1="2.3305591"
       sodipodi:r2="1.6530855"
       sodipodi:r1="3.3061712"
       sodipodi:cy="52.196724"
       sodipodi:cx="59.282898"
       sodipodi:sides="3"
       id="path1229"
       style="opacity:1;fill:none;fill-opacity:1;stroke:#008080;stroke-width:0.5;stroke-miterlimit:4;stroke-dasharray:none;stroke-opacity:1"
       sodipodi:type="star" />
  </g>
  <g
     transform="matrix(0.73165562,0,0,0.73165562,-25.406276,-7.977211)"
     id="g1239">
    <path
       inkscape:transform-center-y="0.078585899"
       inkscape:transform-center-x="0.086032829"
       d="m 57.005774,54.593696 c -2.075839,-1.972047 0,0 0.669924,-2.783752 0.669923,-2.783753 -2.075839,-1.972047 0.669923,-2.783753 2.745762,-0.811706 0,0 2.075839,1.972047 2.075839,1.972047 2.745762,-0.811706 2.075839,1.972047 -0.669924,2.783752 0,0 -2.745763,0.811705 -2.745762,0.811706 -0.669923,2.783753 -2.745762,0.811706 z"
       inkscape:randomized="0"
       inkscape:rounded="1"
       inkscape:flatsided="false"
       sodipodi:arg2="3.3777566"
       sodipodi:arg1="2.3305591"
       sodipodi:r2="1.6530855"
       sodipodi:r1="3.3061712"
       sodipodi:cy="52.196724"
       sodipodi:cx="59.282898"
       sodipodi:sides="3"
       id="path1233"
       style="opacity:1;fill:#cc8914;fill-opacity:1;stroke:none;stroke-width:1.07917559;stroke-miterlimit:4;stroke-dasharray:none;stroke-opacity:1"
       sodipodi:type="star" />
    <path
       style="opacity:1;fill:#98660f;fill-opacity:1;stroke:none;stroke-width:1.08320093;stroke-miterlimit:4;stroke-dasharray:none;stroke-opacity:1"
       d="m 59.544334,48.713292 c -0.161743,0.0073 -0.504889,0.109978 -1.193891,0.313665 -1.608132,0.475399 -1.335571,0.409027 -0.966481,0.815531 0.01244,-0.0036 0.01673,-0.0042 0.0294,-0.0079 2.756002,-0.814734 3.33e-4,6.11e-4 2.083915,1.980014 2.08358,1.979403 2.756339,-0.816082 2.083916,1.978053 -0.0082,0.03411 -0.01176,0.04597 -0.0196,0.07843 0.635571,0.380341 0.512711,0.950585 0.95472,-0.886106 0.672421,-2.794136 -3.35e-4,0.0014 -2.083917,-1.978053 -1.562685,-1.484553 -0.402836,-2.315468 -0.888065,-2.29368 z"
       id="path1235"
       inkscape:connector-curvature="0" />
    <path
       sodipodi:type="star"
       style="opacity:1;fill:none;fill-opacity:1;stroke:#008080;stroke-width:0.5;stroke-miterlimit:4;stroke-dasharray:none;stroke-opacity:1"
       id="path1237"
       sodipodi:sides="3"
       sodipodi:cx="59.282898"
       sodipodi:cy="52.196724"
       sodipodi:r1="3.3061712"
       sodipodi:r2="1.6530855"
       sodipodi:arg1="2.3305591"
       sodipodi:arg2="3.3777566"
       inkscape:flatsided="false"
       inkscape:rounded="1"
       inkscape:randomized="0"
       d="m 57.005774,54.593696 c -2.075839,-1.972047 0,0 0.669924,-2.783752 0.669923,-2.783753 -2.075839,-1.972047 0.669923,-2.783753 2.745762,-0.811706 0,0 2.075839,1.972047 2.075839,1.972047 2.745762,-0.811706 2.075839,1.972047 -0.669924,2.783752 0,0 -2.745763,0.811705 -2.745762,0.811706 -0.669923,2.783753 -2.745762,0.811706 z"
       inkscape:transform-center-x="0.086032829"
       inkscape:transform-center-y="0.078585899" />
  </g>
  <g
     id="g1247"
     transform="matrix(0.6928504,0,0,0.6928504,-10.451359,-13.532559)">
    <path
       sodipodi:type="star"
       style="opacity:1;fill:#cc8914;fill-opacity:1;stroke:none;stroke-width:1.07917559;stroke-miterlimit:4;stroke-dasharray:none;stroke-opacity:1"
       id="path1241"
       sodipodi:sides="3"
       sodipodi:cx="59.282898"
       sodipodi:cy="52.196724"
       sodipodi:r1="3.3061712"
       sodipodi:r2="1.6530855"
       sodipodi:arg1="2.3305591"
       sodipodi:arg2="3.3777566"
       inkscape:flatsided="false"
       inkscape:rounded="1"
       inkscape:randomized="0"
       d="m 57.005774,54.593696 c -2.075839,-1.972047 0,0 0.669924,-2.783752 0.669923,-2.783753 -2.075839,-1.972047 0.669923,-2.783753 2.745762,-0.811706 0,0 2.075839,1.972047 2.075839,1.972047 2.745762,-0.811706 2.075839,1.972047 -0.669924,2.783752 0,0 -2.745763,0.811705 -2.745762,0.811706 -0.669923,2.783753 -2.745762,0.811706 z"
       inkscape:transform-center-x="0.086032829"
       inkscape:transform-center-y="0.078585899" />
    <path
       inkscape:connector-curvature="0"
       id="path1243"
       d="m 59.544334,48.713292 c -0.161743,0.0073 -0.504889,0.109978 -1.193891,0.313665 -1.608132,0.475399 -1.335571,0.409027 -0.966481,0.815531 0.01244,-0.0036 0.01673,-0.0042 0.0294,-0.0079 2.756002,-0.814734 3.33e-4,6.11e-4 2.083915,1.980014 2.08358,1.979403 2.756339,-0.816082 2.083916,1.978053 -0.0082,0.03411 -0.01176,0.04597 -0.0196,0.07843 0.635571,0.380341 0.512711,0.950585 0.95472,-0.886106 0.672421,-2.794136 -3.35e-4,0.0014 -2.083917,-1.978053 -1.562685,-1.484553 -0.402836,-2.315468 -0.888065,-2.29368 z"
       style="opacity:1;fill:#98660f;fill-opacity:1;stroke:none;stroke-width:1.08320093;stroke-miterlimit:4;stroke-dasharray:none;stroke-opacity:1" />
    <path
       inkscape:transform-center-y="0.078585899"
       inkscape:transform-center-x="0.086032829"
       d="m 57.005774,54.593696 c -2.075839,-1.972047 0,0 0.669924,-2.783752 0.669923,-2.783753 -2.075839,-1.972047 0.669923,-2.783753 2.745762,-0.811706 0,0 2.075839,1.972047 2.075839,1.972047 2.745762,-0.811706 2.075839,1.972047 -0.669924,2.783752 0,0 -2.745763,0.811705 -2.745762,0.811706 -0.669923,2.783753 -2.745762,0.811706 z"
       inkscape:randomized="0"
       inkscape:rounded="1"
       inkscape:flatsided="false"
       sodipodi:arg2="3.3777566"
       sodipodi:arg1="2.3305591"
       sodipodi:r2="1.6530855"
       sodipodi:r1="3.3061712"
       sodipodi:cy="52.196724"
       sodipodi:cx="59.282898"
       sodipodi:sides="3"
       id="path1245"
       style="opacity:1;fill:none;fill-opacity:1;stroke:#008080;stroke-width:0.5;stroke-miterlimit:4;stroke-dasharray:none;stroke-opacity:1"
       sodipodi:type="star" />
  </g>
  <g
     transform="matrix(0.96075805,0,0,0.96075805,-31.314224,-21.661915)"
     id="g1255">
    <path
       inkscape:transform-center-y="0.078585899"
       inkscape:transform-center-x="0.086032829"
       d="m 57.005774,54.593696 c -2.075839,-1.972047 0,0 0.669924,-2.783752 0.669923,-2.783753 -2.075839,-1.972047 0.669923,-2.783753 2.745762,-0.811706 0,0 2.075839,1.972047 2.075839,1.972047 2.745762,-0.811706 2.075839,1.972047 -0.669924,2.783752 0,0 -2.745763,0.811705 -2.745762,0.811706 -0.669923,2.783753 -2.745762,0.811706 z"
       inkscape:randomized="0"
       inkscape:rounded="1"
       inkscape:flatsided="false"
       sodipodi:arg2="3.3777566"
       sodipodi:arg1="2.3305591"
       sodipodi:r2="1.6530855"
       sodipodi:r1="3.3061712"
       sodipodi:cy="52.196724"
       sodipodi:cx="59.282898"
       sodipodi:sides="3"
       id="path1249"
       style="opacity:1;fill:#cc8914;fill-opacity:1;stroke:none;stroke-width:1.07917559;stroke-miterlimit:4;stroke-dasharray:none;stroke-opacity:1"
       sodipodi:type="star" />
    <path
       style="opacity:1;fill:#98660f;fill-opacity:1;stroke:none;stroke-width:1.08320093;stroke-miterlimit:4;stroke-dasharray:none;stroke-opacity:1"
       d="m 59.544334,48.713292 c -0.161743,0.0073 -0.504889,0.109978 -1.193891,0.313665 -1.608132,0.475399 -1.335571,0.409027 -0.966481,0.815531 0.01244,-0.0036 0.01673,-0.0042 0.0294,-0.0079 2.756002,-0.814734 3.33e-4,6.11e-4 2.083915,1.980014 2.08358,1.979403 2.756339,-0.816082 2.083916,1.978053 -0.0082,0.03411 -0.01176,0.04597 -0.0196,0.07843 0.635571,0.380341 0.512711,0.950585 0.95472,-0.886106 0.672421,-2.794136 -3.35e-4,0.0014 -2.083917,-1.978053 -1.562685,-1.484553 -0.402836,-2.315468 -0.888065,-2.29368 z"
       id="path1251"
       inkscape:connector-curvature="0" />
    <path
       sodipodi:type="star"
       style="opacity:1;fill:none;fill-opacity:1;stroke:#008080;stroke-width:0.5;stroke-miterlimit:4;stroke-dasharray:none;stroke-opacity:1"
       id="path1253"
       sodipodi:sides="3"
       sodipodi:cx="59.282898"
       sodipodi:cy="52.196724"
       sodipodi:r1="3.3061712"
       sodipodi:r2="1.6530855"
       sodipodi:arg1="2.3305591"
       sodipodi:arg2="3.3777566"
       inkscape:flatsided="false"
       inkscape:rounded="1"
       inkscape:randomized="0"
       d="m 57.005774,54.593696 c -2.075839,-1.972047 0,0 0.669924,-2.783752 0.669923,-2.783753 -2.075839,-1.972047 0.669923,-2.783753 2.745762,-0.811706 0,0 2.075839,1.972047 2.075839,1.972047 2.745762,-0.811706 2.075839,1.972047 -0.669924,2.783752 0,0 -2.745763,0.811705 -2.745762,0.811706 -0.669923,2.783753 -2.745762,0.811706 z"
       inkscape:transform-center-x="0.086032829"
       inkscape:transform-center-y="0.078585899" />
  </g>
  <path
     sodipodi:nodetypes="sssss"
     inkscape:connector-curvature="0"
     id="path1257"
     d="M 24.015585,2.0241033 C 23.870337,2.6548917 23.049969,3.8791465 22.419183,3.7338997 21.788397,3.5886528 21.586056,2.1289057 21.731304,1.4981174 21.87655,0.86733182 22.50565,0.47372362 23.136437,0.61897042 c 0.630786,0.1452468 1.024395,0.77434738 0.879148,1.40513288 z"
     style="opacity:1;fill:#cc8914;fill-opacity:1;stroke:#008080;stroke-width:0.98898435;stroke-miterlimit:4;stroke-dasharray:none;stroke-opacity:1" />
  <path
     style="opacity:1;fill:#cc8914;fill-opacity:1;stroke:#008080;stroke-width:0.98898435;stroke-miterlimit:4;stroke-dasharray:none;stroke-opacity:1"
     d="M 27.302084,2.9678038 C 27.073433,3.5733682 26.096074,4.6763525 25.49051,4.447702 24.884947,4.2190528 24.880491,2.7453565 25.109135,2.1397908 c 0.228649,-0.6055629 0.904912,-0.9111135 1.510478,-0.6824644 0.605563,0.2286506 0.911114,0.9049144 0.682465,1.5104788 z"
     id="path1259"
     inkscape:connector-curvature="0"
     sodipodi:nodetypes="sssss" />
  <path
     sodipodi:nodetypes="sssss"
     inkscape:connector-curvature="0"
     id="path1261"
     d="m 30.189532,5.0428743 c -0.455606,0.4597978 -1.797645,1.0686776 -2.257441,0.613074 -0.459798,-0.4556035 0.136766,-1.8031645 0.592367,-2.2629623 0.455603,-0.4597978 1.197682,-0.463197 1.65748,-0.00755 0.459798,0.4556035 0.463197,1.197684 0.0075,1.6574818 z"
     style="opacity:1;fill:#cc8914;fill-opacity:1;stroke:#008080;stroke-width:0.98898435;stroke-miterlimit:4;stroke-dasharray:none;stroke-opacity:1" />
  <path
     style="opacity:1;fill:#cc8914;fill-opacity:1;stroke:#008080;stroke-width:0.98898435;stroke-miterlimit:4;stroke-dasharray:none;stroke-opacity:1"
     d="m 33.062192,7.075177 c -0.430592,0.4833005 -1.738469,1.1624607 -2.22177,0.7318702 -0.4833,-0.4305921 0.04099,-1.8078785 0.471584,-2.2911804 0.430591,-0.4833006 1.171447,-0.5260307 1.654748,-0.095439 0.4833,0.430592 0.526029,1.1714485 0.09544,1.654749 z"
     id="path1263"
     inkscape:connector-curvature="0"
     sodipodi:nodetypes="sssss" />
  <path
     sodipodi:nodetypes="sssss"
     inkscape:connector-curvature="0"
     id="path1265"
     d="M 35.455205,9.9812139 C 34.934978,10.366382 33.515956,10.764101 33.130789,10.243876 32.745623,9.7236497 33.540164,8.4824783 34.06039,8.0973102 34.580615,7.7121435 35.314581,7.821629 35.699749,8.3418546 36.084916,8.8620801 35.97543,9.5960474 35.455205,9.9812139 Z"
     style="opacity:1;fill:#cc8914;fill-opacity:1;stroke:#008080;stroke-width:0.98898435;stroke-miterlimit:4;stroke-dasharray:none;stroke-opacity:1" />
  <path
     style="opacity:1;fill:#cc8914;fill-opacity:1;stroke:#008080;stroke-width:0.98898435;stroke-miterlimit:4;stroke-dasharray:none;stroke-opacity:1"
     d="m 37.159254,13.415377 c -0.604186,0.232265 -2.077883,0.236621 -2.310148,-0.367567 -0.232265,-0.604186 0.864855,-1.588122 1.469043,-1.820387 0.604185,-0.232264 1.282265,0.06923 1.51453,0.673425 0.232265,0.604186 -0.06924,1.282264 -0.673425,1.514529 z"
     id="path1267"
     inkscape:connector-curvature="0"
     sodipodi:nodetypes="sssss" />
  <path
     sodipodi:nodetypes="sssss"
     inkscape:connector-curvature="0"
     id="path1269"
     d="m 37.908448,16.747202 c -0.640705,0.09211 -2.078483,-0.231303 -2.170598,-0.872009 -0.09211,-0.640706 1.196313,-1.356076 1.83702,-1.448191 0.640705,-0.09211 1.234775,0.352596 1.326888,0.99331 0.09211,0.640705 -0.352611,1.234773 -0.99331,1.32689 z"
     style="opacity:1;fill:#cc8914;fill-opacity:1;stroke:#008080;stroke-width:0.98898435;stroke-miterlimit:4;stroke-dasharray:none;stroke-opacity:1" />
  <path
     style="opacity:1;fill:#cc8914;fill-opacity:1;stroke:#008080;stroke-width:0.98898435;stroke-miterlimit:4;stroke-dasharray:none;stroke-opacity:1"
     d="m 37.908448,16.747202 c -0.640705,0.09211 -2.078483,-0.231303 -2.170598,-0.872009 -0.09211,-0.640706 1.196313,-1.356076 1.83702,-1.448191 0.640705,-0.09211 1.234775,0.352596 1.326888,0.99331 0.09211,0.640705 -0.352611,1.234773 -0.99331,1.32689 z"
     id="path1271"
     inkscape:connector-curvature="0"
     sodipodi:nodetypes="sssss" />
  <path
     sodipodi:nodetypes="sssss"
     inkscape:connector-curvature="0"
     id="path1273"
     d="m 38.246105,20.44228 c -0.646025,-0.0405 -1.987607,-0.650391 -1.947101,-1.296416 0.0405,-0.646024 1.447763,-1.083554 2.09379,-1.043047 0.646022,0.04051 1.136896,0.597042 1.096385,1.243074 -0.0405,0.646025 -0.597054,1.136894 -1.243074,1.096389 z"
     style="opacity:1;fill:#cc8914;fill-opacity:1;stroke:#008080;stroke-width:0.98898435;stroke-miterlimit:4;stroke-dasharray:none;stroke-opacity:1" />
  <path
     style="opacity:1;fill:#cc8914;fill-opacity:1;stroke:#008080;stroke-width:0.98898435;stroke-miterlimit:4;stroke-dasharray:none;stroke-opacity:1"
     d="M 14.363408,2.3637679 C 14.558563,2.9809425 15.47407,4.1357734 16.09125,3.9406165 16.708419,3.7454624 16.793535,2.2742181 16.598378,1.6570435 16.403222,1.0398718 15.744707,0.69776081 15.127526,0.89291632 14.510358,1.0880718 14.168251,1.7465962 14.363408,2.3637679 Z"
     id="path1277"
     inkscape:connector-curvature="0"
     sodipodi:nodetypes="sssss" />
  <path
     sodipodi:nodetypes="sssss"
     inkscape:connector-curvature="0"
     id="path1279"
     d="m 11.162754,3.5669077 c 0.276287,0.5853716 1.338604,1.6067837 1.923974,1.3305032 0.585369,-0.276279 0.472125,-1.7456231 0.195855,-2.3309946 C 13.00631,1.9810448 12.307798,1.7304759 11.722428,2.0067536 11.137058,2.2830328 10.886485,2.9815391 11.162769,3.5669077 Z"
     style="opacity:1;fill:#cc8914;fill-opacity:1;stroke:#008080;stroke-width:0.98898435;stroke-miterlimit:4;stroke-dasharray:none;stroke-opacity:1" />
  <path
     style="opacity:1;fill:#cc8914;fill-opacity:1;stroke:#008080;stroke-width:0.98898435;stroke-miterlimit:4;stroke-dasharray:none;stroke-opacity:1"
     d="M 8.4502438,6.0333832 C 8.9411154,6.4553297 10.327493,6.9550913 10.749438,6.4642225 11.171386,5.9733565 10.469099,4.6777413 9.9782427,4.2557948 9.4873837,3.8338484 8.7473919,3.8897214 8.325461,4.3806294 7.9035144,4.8714997 7.9593763,5.6114801 8.4508544,6.0333777 Z"
     id="path1281"
     inkscape:connector-curvature="0"
     sodipodi:nodetypes="sssss" />
  <path
     sodipodi:nodetypes="sssss"
     inkscape:connector-curvature="0"
     id="path1283"
     d="M 5.5816082,8.3723235 C 6.0494256,8.8196938 7.407363,9.392238 7.8547319,8.9244276 8.3021021,8.4566172 7.669552,7.1255928 7.2016801,6.6782268 6.7338753,6.2308538 5.9919639,6.2474253 5.5445965,6.715279 5.0972263,7.1830908 5.113802,7.9249923 5.5816347,8.3723626 Z"
     style="opacity:1;fill:#cc8914;fill-opacity:1;stroke:#008080;stroke-width:0.98898435;stroke-miterlimit:4;stroke-dasharray:none;stroke-opacity:1" />
  <path
     style="opacity:1;fill:#cc8914;fill-opacity:1;stroke:#008080;stroke-width:0.98898435;stroke-miterlimit:4;stroke-dasharray:none;stroke-opacity:1"
     d="m 3.2608657,11.543901 c 0.5493225,0.342395 1.9955719,0.625524 2.3379608,0.07619 C 5.9412309,11.070763 5.0500965,9.8970069 4.5007755,9.5546152 3.9514516,9.212222 3.2285777,9.3799697 2.8861888,9.9292939 2.5437997,10.478615 2.7115418,11.201495 3.2608643,11.543888 Z"
     id="path1285"
     inkscape:connector-curvature="0"
     sodipodi:nodetypes="sssss" />
  <path
     sodipodi:nodetypes="sssss"
     inkscape:connector-curvature="0"
     id="path1287"
     d="m 2.0039457,15.438071 c 0.6208128,0.183273 2.0901457,0.06993 2.2734143,-0.550877 0.1832853,-0.620807 -0.9889064,-1.513986 -1.6097177,-1.697261 -0.6208002,-0.183272 -1.2726462,0.171404 -1.4559149,0.792223 -0.18327,0.620805 0.171474,1.272635 0.7922183,1.455915 z"
     style="opacity:1;fill:#cc8914;fill-opacity:1;stroke:#008080;stroke-width:0.98898435;stroke-miterlimit:4;stroke-dasharray:none;stroke-opacity:1" />
  <path
     sodipodi:nodetypes="sssss"
     inkscape:connector-curvature="0"
     id="path1291"
     d="M 1.606948,18.986527 C 2.2529582,19.027187 3.6603223,18.58998 3.700975,17.943963 3.74159,17.297952 2.4001875,16.687754 1.754162,16.647099 1.1081518,16.606439 0.55149855,17.097176 0.51084453,17.743199 0.47022963,18.38921 0.96093638,18.945871 1.606948,18.986527 Z"
     style="opacity:1;fill:#cc8914;fill-opacity:1;stroke:#008080;stroke-width:0.98898435;stroke-miterlimit:4;stroke-dasharray:none;stroke-opacity:1" />
  <path
     style="opacity:1;fill:#cc8914;fill-opacity:1;stroke:#008080;stroke-width:0.98898435;stroke-miterlimit:4;stroke-dasharray:none;stroke-opacity:1"
     d="m 1.9003365,22.947938 c 0.6407248,-0.09196 1.9293152,-0.80704 1.8373497,-1.447768 -0.091988,-0.640723 -1.5296657,-0.964477 -2.1703919,-0.872508 -0.64072619,0.09196 -1.08558576,0.685924 -0.99362033,1.326659 0.0919878,0.640726 0.68593503,1.085583 1.32666253,0.993617 z"
     id="path1293"
     inkscape:connector-curvature="0"
     sodipodi:nodetypes="sssss" />
  <path
     sodipodi:nodetypes="sssss"
     inkscape:connector-curvature="0"
     id="path1295"
     d="m 24.858321,37.59319 c -0.195167,-0.617175 -1.110671,-1.772006 -1.727844,-1.576849 -0.617173,0.195155 -0.702287,1.666398 -0.507135,2.283573 0.195167,0.617172 0.853682,0.959283 1.470854,0.764127 0.617174,-0.195155 0.959278,-0.853679 0.764125,-1.470851 z"
     style="opacity:1;fill:#cc8914;fill-opacity:1;stroke:#008080;stroke-width:0.98898435;stroke-miterlimit:4;stroke-dasharray:none;stroke-opacity:1" />
  <path
     style="opacity:1;fill:#cc8914;fill-opacity:1;stroke:#008080;stroke-width:0.98898435;stroke-miterlimit:4;stroke-dasharray:none;stroke-opacity:1"
     d="m 28.310145,36.306327 c -0.276299,-0.585371 -1.338615,-1.606783 -1.923975,-1.330503 -0.585375,0.27628 -0.472137,1.745624 -0.195866,2.330996 0.276285,0.58537 0.974786,0.83594 1.56016,0.559662 0.585374,-0.276279 0.835938,-0.974786 0.559667,-1.560155 z"
     id="path1297"
     inkscape:connector-curvature="0"
     sodipodi:nodetypes="sssss" />
  <path
     sodipodi:nodetypes="sssss"
     inkscape:connector-curvature="0"
     id="path1299"
     d="m 31.524989,34.007298 c -0.490872,-0.421947 -1.877255,-0.921708 -2.299191,-0.430839 -0.421951,0.490866 0.280335,1.786481 0.771193,2.208427 0.490858,0.421947 1.23084,0.366074 1.652777,-0.124834 0.42195,-0.490871 0.366078,-1.230851 -0.125324,-1.652748 z"
     style="opacity:1;fill:#cc8914;fill-opacity:1;stroke:#008080;stroke-width:0.98898435;stroke-miterlimit:4;stroke-dasharray:none;stroke-opacity:1" />
  <path
     style="opacity:1;fill:#cc8914;fill-opacity:1;stroke:#008080;stroke-width:0.98898435;stroke-miterlimit:4;stroke-dasharray:none;stroke-opacity:1"
     d="m 34.22618,31.75208 c -0.467818,-0.44737 -1.825756,-1.019915 -2.273135,-0.552104 -0.447364,0.46781 0.185191,1.798835 0.653052,2.246201 0.467804,0.447373 1.209729,0.430801 1.657094,-0.03705 0.447364,-0.467811 0.430793,-1.209713 -0.03703,-1.657083 z"
     id="path1301"
     inkscape:connector-curvature="0"
     sodipodi:nodetypes="sssss" />
  <path
     sodipodi:nodetypes="sssss"
     inkscape:connector-curvature="0"
     id="path1303"
     d="m 36.379468,28.664225 c -0.549314,-0.342395 -1.995565,-0.625524 -2.337962,-0.07619 -0.342397,0.549325 0.548741,1.723081 1.098055,2.065472 0.549328,0.342394 1.272195,0.174646 1.614593,-0.374677 0.342383,-0.549322 0.174642,-1.272202 -0.374686,-1.614594 z"
     style="opacity:1;fill:#cc8914;fill-opacity:1;stroke:#008080;stroke-width:0.98898435;stroke-miterlimit:4;stroke-dasharray:none;stroke-opacity:1" />
  <path
     style="opacity:1;fill:#cc8914;fill-opacity:1;stroke:#008080;stroke-width:0.98898435;stroke-miterlimit:4;stroke-dasharray:none;stroke-opacity:1"
     d="m 37.80384,25.104946 c -0.62082,-0.183273 -2.090151,-0.06993 -2.273414,0.550877 -0.183292,0.620806 0.98891,1.513986 1.609715,1.69726 0.620807,0.183273 1.272643,-0.171404 1.45592,-0.792222 0.183263,-0.620805 -0.171485,-1.272635 -0.792221,-1.455915 z"
     id="path1305"
     inkscape:connector-curvature="0"
     sodipodi:nodetypes="sssss" />
  <path
     style="opacity:1;fill:#cc8914;fill-opacity:1;stroke:#008080;stroke-width:0.98898435;stroke-miterlimit:4;stroke-dasharray:none;stroke-opacity:1"
     d="m 38.284554,21.723935 c -0.64601,-0.04066 -2.053364,0.396548 -2.094022,1.042563 -0.04066,0.646012 1.300781,1.256211 1.946819,1.296865 0.646011,0.04066 1.202659,-0.450076 1.243317,-1.096099 0.04066,-0.646012 -0.450104,-1.202672 -1.096114,-1.243329 z"
     id="path1307"
     inkscape:connector-curvature="0"
     sodipodi:nodetypes="sssss" />
  <path
     style="opacity:1;fill:#cc8914;fill-opacity:1;stroke:#008080;stroke-width:0.98898435;stroke-miterlimit:4;stroke-dasharray:none;stroke-opacity:1"
     d="m 18.64117,38.153407 c 0.09953,-0.6396 0.82973,-1.919672 1.469328,-1.820158 0.639598,0.09952 0.946369,1.540935 0.846859,2.180534 -0.09953,0.639599 -0.698686,1.077419 -1.338285,0.977905 -0.639597,-0.09952 -1.077414,-0.698685 -0.977902,-1.338281 z"
     id="path1311"
     inkscape:connector-curvature="0"
     sodipodi:nodetypes="sssss" />
  <path
     sodipodi:nodetypes="sssss"
     inkscape:connector-curvature="0"
     id="path1313"
     d="m 14.709249,37.364743 c 0.184534,-0.620442 1.080051,-1.790849 1.70048,-1.60633 0.620441,0.184517 0.730857,1.654077 0.546349,2.274513 -0.184523,0.620437 -0.837061,0.973823 -1.457501,0.789308 -0.620441,-0.184513 -0.973821,-0.837058 -0.789313,-1.457493 z"
     style="opacity:1;fill:#cc8914;fill-opacity:1;stroke:#008080;stroke-width:0.98898435;stroke-miterlimit:4;stroke-dasharray:none;stroke-opacity:1" />
  <path
     style="opacity:1;fill:#cc8914;fill-opacity:1;stroke:#008080;stroke-width:0.98898435;stroke-miterlimit:4;stroke-dasharray:none;stroke-opacity:1"
     d="m 10.842848,35.670106 c 0.421367,-0.49137 1.716158,-1.195171 2.207518,-0.773805 0.491371,0.421362 -0.0067,1.808329 -0.428121,2.299696 -0.421354,0.491367 -1.16127,0.548118 -1.652634,0.126707 -0.491374,-0.421366 -0.548123,-1.161281 -0.126218,-1.652682 z"
     id="path1315"
     inkscape:connector-curvature="0"
     sodipodi:nodetypes="sssss" />
  <path
     sodipodi:nodetypes="sssss"
     inkscape:connector-curvature="0"
     id="path1317"
     d="M 7.8314918,33.849618 C 8.2262234,33.336609 9.4818845,32.565166 9.9949023,32.959889 10.507906,33.354615 10.084053,34.766033 9.689279,35.279046 9.29456,35.792056 8.5586718,35.88795 8.0456611,35.493176 7.5326559,35.098449 7.4367659,34.362582 7.8315044,33.849572 Z"
     style="opacity:1;fill:#cc8914;fill-opacity:1;stroke:#008080;stroke-width:0.98898435;stroke-miterlimit:4;stroke-dasharray:none;stroke-opacity:1" />
  <path
     style="opacity:1;fill:#cc8914;fill-opacity:1;stroke:#008080;stroke-width:0.98898435;stroke-miterlimit:4;stroke-dasharray:none;stroke-opacity:1"
     d="m 5.2357277,31.123171 c 0.4911761,-0.421576 1.8779255,-0.920299 2.2995101,-0.429102 0.4215804,0.491184 -0.2816749,1.786275 -0.772851,2.20785 C 6.2711994,33.323497 5.531272,33.267069 5.1096902,32.775883 4.6881237,32.284702 4.7445403,31.544759 5.2357403,31.123184 Z"
     id="path1319"
     inkscape:connector-curvature="0"
     sodipodi:nodetypes="sssss" />
  <path
     sodipodi:nodetypes="sssss"
     inkscape:connector-curvature="0"
     id="path1321"
     d="m 3.2891495,27.820425 c 0.5859358,-0.275108 2.0554993,-0.385415 2.3305964,0.200509 0.2751223,0.58592 -0.7484178,1.646198 -1.3343412,1.921305 -0.5859219,0.275106 -1.2839239,0.02315 -1.5590364,-0.562781 -0.2750943,-0.585924 -0.023067,-1.28393 0.5627812,-1.559033 z"
     style="opacity:1;fill:#cc8914;fill-opacity:1;stroke:#008080;stroke-width:0.98898435;stroke-miterlimit:4;stroke-dasharray:none;stroke-opacity:1" />
  <path
     sodipodi:nodetypes="sssss"
     inkscape:connector-curvature="0"
     id="path1323"
     d="M 2.2186136,23.965038 C 2.8510311,23.827084 4.3083417,24.046248 4.446287,24.678716 4.5842407,25.311134 3.3505845,26.1173 2.7181378,26.255248 2.085719,26.393201 1.4612191,25.992349 1.3232711,25.359918 1.1853313,24.727498 1.5861963,24.102983 2.2186136,23.965038 Z"
     style="opacity:1;fill:#cc8914;fill-opacity:1;stroke:#008080;stroke-width:0.98898435;stroke-miterlimit:4;stroke-dasharray:none;stroke-opacity:1" />
</svg>
